<svg width="141" height="28" viewBox="0 0 141 28" fill="none" xmlns="http://www.w3.org/2000/svg">
<path d="M136.162 5.42358L131.363 10.6595V5.42358H127.879V18.6354H131.363V13.0617L136.51 18.6354H141L134.672 11.7104L140.536 5.42358H136.162Z" fill="#EF3124"/>
<path d="M121.725 10.3592H116.926V5.42358H113.443V18.6354H116.926V13.4182H121.725V18.6354H125.209V5.42358H121.725V10.3592Z" fill="#EF3124"/>
<path d="M20.6681 12.5737C20.5907 15.0322 20.2617 15.5201 18.8297 15.5201V18.6166H19.3522C22.913 18.6166 23.7645 16.8338 23.8999 12.874L24.0354 8.48257H27.364V18.6166H30.8474V5.42358H20.881L20.6681 12.5737Z" fill="#EF3124"/>
<path d="M39.5365 9.43967H37.0207V5.42358H33.5374V18.6166H39.5752C43.3683 18.6166 44.7229 16.2332 44.7229 13.9812C44.7229 11.0724 42.8458 9.43967 39.5365 9.43967ZM39.2656 15.7265H37.0207V12.3673H39.2656C40.4654 12.3673 41.2008 12.874 41.2008 13.9812C41.2008 15.1823 40.5041 15.7265 39.2656 15.7265Z" fill="#EF3124"/>
<path d="M56.0633 5.12334V0.22522H52.5799V5.12334C48.5933 5.44238 45.9034 8.20109 45.9034 12.0107C45.9034 15.8579 48.5933 18.5979 52.5799 18.9357V23.9089H56.0633V18.9357C60.0498 18.6354 62.7398 15.8579 62.7398 12.0107C62.7398 8.16356 60.0498 5.42361 56.0633 5.12334ZM52.5799 15.7453C50.6447 15.4826 49.4448 14.0751 49.4448 12.0107C49.4448 9.9464 50.6447 8.53889 52.5799 8.27616V15.7453ZM56.0633 15.7453V8.29493C57.9985 8.53889 59.2177 9.9464 59.2177 12.0107C59.2177 14.0751 57.9985 15.4826 56.0633 15.7453Z" fill="#EF3124"/>
<path d="M75.8025 14.563V10.1341C75.8025 6.90617 73.6738 4.8606 70.0936 4.8606C66.3974 4.8606 64.4428 7.01877 64.2686 9.27078H67.7907C67.9068 8.78285 68.4487 7.93834 70.0936 7.93834C71.4483 7.93834 72.3191 8.53888 72.3191 10.1341H68.8551C65.7587 10.1341 63.9203 11.7105 63.9203 14.3378C63.9203 17.0778 65.9329 18.9544 68.8357 18.9544C70.9645 18.9544 72.145 17.9786 72.6481 17.2467C73.1126 18.1287 74.1189 18.6354 75.4542 18.6354H76.654V15.5764C76.0348 15.5764 75.8025 15.2949 75.8025 14.563ZM72.3191 13.6997C72.3191 15.2198 71.2161 16.0831 69.7647 16.0831C68.5068 16.0831 67.5198 15.6327 67.5198 14.319C67.5198 13.0241 68.6035 12.8177 69.5518 12.8177H72.3385V13.6997H72.3191Z" fill="#EF3124"/>
<path d="M90.7037 7.30029H86.8139V3.5657H95.832V0.22522H83.1564V18.6354H90.7037C94.8838 18.6354 97.2835 16.6274 97.2835 12.9115C97.2835 9.42093 94.9031 7.30029 90.7037 7.30029ZM90.5489 15.2949H86.8333V10.5094H90.5489C92.4841 10.5094 93.5678 11.3727 93.5678 12.8928C93.5678 14.4692 92.4841 15.2949 90.5489 15.2949Z" fill="#EF3124"/>
<path d="M110.617 14.563V10.1341C110.617 6.90617 108.488 4.8606 104.908 4.8606C101.212 4.8606 99.2574 7.01877 99.0832 9.27078H102.605C102.721 8.78285 103.263 7.93834 104.908 7.93834C106.263 7.93834 107.134 8.53888 107.134 10.1341H103.67C100.573 10.1341 98.7349 11.7105 98.7349 14.3378C98.7349 17.0778 100.747 18.9544 103.65 18.9544C105.779 18.9544 106.96 17.9786 107.463 17.2467C107.927 18.1287 108.933 18.6354 110.269 18.6354H111.469V15.5764C110.849 15.5764 110.617 15.2949 110.617 14.563ZM107.134 13.6997C107.134 15.2198 106.031 16.0831 104.579 16.0831C103.321 16.0831 102.334 15.6327 102.334 14.319C102.334 13.0241 103.418 12.8177 104.366 12.8177H107.153V13.6997H107.134Z" fill="#EF3124"/>
<path d="M18.6168 24.2467H0V28.0001H18.6168V24.2467Z" fill="#EF3124"/>
<path d="M12.695 2.73995C12.1532 1.21984 11.5532 0 9.44385 0C7.35381 0 6.71519 1.20107 6.15398 2.73995L0.387024 18.6354H4.1994L5.53471 14.8633H12.8885L14.1271 18.6354H18.191L12.695 2.73995ZM6.65713 11.6542L9.26968 4.12869H9.36644L11.8242 11.6542H6.65713Z" fill="#EF3124"/>
</svg>
