<svg width="109" height="39" viewBox="0 0 109 39" fill="none" xmlns="http://www.w3.org/2000/svg">
<path d="M12.305 0.593517C14.9132 0.593517 15.7327 2.46426 16.4203 4.33207C16.7091 5.12523 23.4869 23.686 23.6907 24.2431C23.7449 24.3986 23.7083 24.6537 23.4693 24.746C23.2289 24.8369 19.7073 26.2063 19.5123 26.2796C19.3173 26.3543 19.0989 26.2458 19.0285 26.0508C18.9552 25.8588 17.4935 21.8124 17.3293 21.3608H7.28358C7.12524 21.8124 5.64594 25.8676 5.57997 26.0508C5.51253 26.237 5.30288 26.3631 5.09469 26.2796C4.8865 26.1975 1.35174 24.8281 1.14062 24.746C0.938303 24.6669 0.845938 24.4367 0.916311 24.2431C1.16555 23.5482 7.84069 5.28503 8.18083 4.33207C8.8435 2.49212 9.69091 0.593517 12.305 0.593517ZM0.379719 33.805C0.168601 33.805 0 33.981 0 34.195V38.5332C0 38.7473 0.168601 38.9203 0.379719 38.9203H24.2199C24.4355 38.9203 24.6041 38.7473 24.6041 38.5332V34.195C24.6041 33.981 24.4355 33.805 24.2199 33.805H0.379719ZM12.2815 6.65437L8.88602 16.8511H15.7327L12.3255 6.65437H12.2815ZM63.2328 23.3738C62.7329 23.5424 62.403 23.5834 62.0101 23.5834C61.1979 23.5834 60.7478 23.2623 60.7478 22.4296C60.7478 21.5617 61.3196 21.2714 62.4426 21.2714C62.7168 21.2714 62.9865 21.311 63.1126 21.3549V21.9766C63.1126 22.6466 63.1492 23.0864 63.2328 23.3738ZM66.1196 24.3678C65.5199 23.4573 65.3631 22.9207 65.3631 21.7728V19.4417C65.3631 18.1867 65.2164 17.7337 64.8851 17.2762C64.4233 16.6282 63.6536 16.3467 62.2388 16.3467C61.2374 16.3467 60.2654 16.4552 59.3242 16.6957L59.6643 18.3524C60.3006 18.2629 60.9677 18.1867 61.4383 18.1867C62.9411 18.1867 63.1126 18.4037 63.1126 19.5311V19.9519C62.7783 19.8624 62.403 19.7979 61.9676 19.7979C59.7054 19.7979 58.5105 20.9048 58.5105 22.7375C58.5105 24.4557 59.7875 25.3926 61.343 25.3926C61.9236 25.3926 62.5305 25.2855 63.0114 25.0891C63.3017 24.963 63.4278 24.8882 63.8031 24.6449C64.0289 24.9733 64.4819 25.309 64.6667 25.372L66.1196 24.3678ZM88.4966 23.3738C87.9937 23.5424 87.6697 23.5834 87.2739 23.5834C86.4587 23.5834 86.0028 23.2623 86.0028 22.4296C86.0028 21.5617 86.5819 21.2714 87.7079 21.2714C87.982 21.2714 88.2532 21.311 88.3764 21.3549V21.9766C88.3764 22.6466 88.4116 23.0864 88.4966 23.3738ZM91.3863 24.3678C90.7823 23.4573 90.6283 22.9207 90.6283 21.7728V19.4417C90.6283 18.1867 90.4788 17.7337 90.1445 17.2762C89.6886 16.6282 88.9174 16.3467 87.4982 16.3467C86.4983 16.3467 85.5204 16.4552 84.5792 16.6957L84.9149 18.3524C85.5527 18.2629 86.2212 18.1867 86.705 18.1867C88.199 18.1867 88.3764 18.4037 88.3764 19.5311V19.9519C88.0421 19.8624 87.6697 19.7979 87.2255 19.7979C84.9604 19.7979 83.7611 20.9048 83.7611 22.7375C83.7611 24.4557 85.041 25.3926 86.6039 25.3926C87.1918 25.3926 87.7929 25.2855 88.2694 25.0891C88.5641 24.963 88.6857 24.8882 89.0611 24.6449C89.2898 24.9733 89.7428 25.309 89.929 25.372L91.3863 24.3678ZM109 25.1976C109 25.1976 107.76 22.5542 107.456 21.9531C107.115 21.2758 106.798 20.8081 106.1 20.6395V20.6014C106.568 20.5119 106.94 20.229 107.348 19.364C107.733 18.521 107.848 18.3392 108.075 18.1383C108.298 17.9389 108.603 18.0108 108.603 18.0108L108.717 16.4523C108.393 16.4083 108.034 16.4069 107.663 16.4274C107.047 16.464 106.729 16.6414 106.426 16.9464C106.188 17.1795 106.027 17.5284 105.827 17.9287C105.616 18.3656 105.449 18.7174 105.229 19.1617C105.011 19.6176 104.908 19.8229 104.32 19.8229H103.938V12.919H101.672V25.1976H103.938V21.6672L104.247 21.6613C104.896 21.6613 105.011 21.8241 105.354 22.5088C105.756 23.3254 106.525 25.1976 106.525 25.1976H109ZM45.1895 25.1976H47.8036L43.8495 13.1243C43.4332 12.985 42.9186 12.8985 42.3688 12.8985C41.7691 12.8985 41.5551 12.9776 41.0859 13.1243L36.9017 25.1976H39.4102C39.4102 25.1976 39.7489 24.1391 40.1476 22.8269H44.4814C44.8685 24.1376 45.1895 25.1976 45.1895 25.1976ZM40.7839 20.8022C40.7839 20.8022 41.5082 18.3788 41.6211 18.002C41.9084 17.0255 42.3453 15.4744 42.3453 15.4744H42.4172C42.4172 15.4744 42.8218 17.0813 43.0857 17.9844C43.1854 18.3436 43.8774 20.8022 43.8774 20.8022H40.7839ZM69.9783 19.4212C69.1793 19.4212 68.5298 20.0736 68.5298 20.8726C68.5298 21.6775 69.1793 22.3255 69.9783 22.3255C70.7788 22.3255 71.4254 21.6775 71.4254 20.8726C71.4254 20.0736 70.7788 19.4212 69.9783 19.4212ZM50.9073 12.919H48.6363V25.1961H50.9073V12.919ZM96.0265 18.2981C97.2815 18.3245 97.4369 18.584 97.4369 19.6367V25.1976H99.6873V19.4417C99.6873 18.1867 99.5407 17.7337 99.2065 17.2762C98.7446 16.6282 97.8371 16.3467 96.3021 16.3467C94.7832 16.3467 93.8156 16.508 92.5709 16.8789V25.1976H94.8448V18.4037C95.4415 18.3172 95.5471 18.2981 96.0265 18.2981ZM56.524 12.7006C55.1048 12.7006 54.3321 12.982 53.8776 13.6286C53.5434 14.0875 53.3953 14.5508 53.3953 15.8087V16.8789H52.2679V18.7145H53.3953V25.1976H55.6472L55.6414 18.7145H57.886V16.8789H55.6414L55.6472 15.8952C55.6472 14.7692 55.8188 14.5508 57.323 14.5508C57.4857 14.5508 57.669 14.5596 57.864 14.5742L58.2188 12.8105C57.6631 12.7372 57.0943 12.7006 56.524 12.7006ZM74.5921 12.8149C75.3648 12.7695 77.0918 12.705 78.1753 12.705C78.3732 12.705 78.5785 12.7064 78.7837 12.7167C80.914 12.7167 82.1352 14.2678 82.1352 16.0887C82.1352 17.3276 81.5678 18.15 80.2381 18.6397C81.8024 18.9857 82.622 20.207 82.622 21.7009C82.622 22.7976 82.3126 23.6684 81.7452 24.2622C81.0092 24.9865 79.895 25.3926 78.4113 25.3926C77.0918 25.3926 75.4352 25.3515 74.5921 25.3017V12.8149ZM78.1753 14.8264C77.8 14.8264 77.3352 14.8337 76.8749 14.8499V17.7982H78.1768C78.6928 17.7982 79.1077 17.6545 79.3907 17.3774C79.6604 17.1164 79.8012 16.747 79.8012 16.3086C79.8012 15.3659 79.291 14.8323 78.3424 14.8264H78.1753ZM78.2222 23.2755H78.3204C79.5036 23.2755 80.2278 22.6466 80.2366 21.3799C80.2249 20.9254 80.0504 20.5061 79.7382 20.2026C79.3965 19.8595 78.9127 19.6807 78.3454 19.6807H76.8749V23.2623C77.2898 23.2711 77.7472 23.2726 78.2222 23.2755Z" fill="white"/>
</svg>
