<?xml version="1.0" encoding="utf-8"?>
<!-- Generator: Adobe Illustrator 23.1.0, SVG Export Plug-In . SVG Version: 6.00 Build 0)  -->
<svg version="1.1" id="Слой_1" xmlns="http://www.w3.org/2000/svg" xmlns:xlink="http://www.w3.org/1999/xlink" x="0px" y="0px"
	 viewBox="0 0 77.3 27" style="enable-background:new 0 0 77.3 27;" xml:space="preserve">
<style type="text/css">
	.st0{fill:#FFFFFF;}
</style>
<path class="st0" d="M1.2,25h3.7c1.8,0,3-0.9,3-2.3v0c0-1.1-0.8-1.7-1.8-2c0.7-0.3,1.3-0.9,1.3-1.9v0c0-0.5-0.2-1-0.5-1.3
	c-0.5-0.5-1.2-0.7-2.2-0.7H1.2V25z M6.5,18.8c0,1-0.8,1.5-1.9,1.5H2.1v-2.9h2.6C5.9,17.5,6.5,18,6.5,18.8L6.5,18.8z M7,22.6
	c0,0.9-0.8,1.5-2.1,1.5H2.1v-3h2.7C6.3,21.2,7,21.7,7,22.6L7,22.6z M9.8,25h0.9v-8.8H9.8V25z M14.7,25.1c1.1,0,1.8-0.5,2.2-1.1V25
	h0.9v-3.8c0-0.8-0.2-1.4-0.6-1.8c-0.5-0.5-1.1-0.7-2-0.7c-0.9,0-1.6,0.2-2.3,0.5l0.3,0.8c0.6-0.3,1.2-0.5,1.9-0.5
	c1.2,0,1.8,0.6,1.8,1.7v0.2c-0.6-0.2-1.1-0.3-1.9-0.3c-1.6,0-2.7,0.7-2.7,2v0C12.4,24.5,13.5,25.1,14.7,25.1z M14.9,24.4
	c-0.8,0-1.6-0.5-1.6-1.2v0c0-0.8,0.6-1.3,1.8-1.3c0.8,0,1.4,0.1,1.8,0.3v0.6C16.9,23.7,16,24.4,14.9,24.4z M22.6,25.1
	c1.2,0,1.9-0.5,2.5-1.2l-0.6-0.6c-0.5,0.5-1.1,0.9-1.9,0.9c-1.3,0-2.3-1.1-2.3-2.4v0c0-1.3,1-2.4,2.2-2.4c0.9,0,1.4,0.4,1.9,0.9
	l0.6-0.6c-0.6-0.6-1.3-1.1-2.5-1.1c-1.8,0-3.2,1.5-3.2,3.2v0C19.4,23.7,20.8,25.1,22.6,25.1z M26.6,25h0.9v-1.6l1.3-1.3l2.2,2.9h1.1
	l-2.7-3.5l2.6-2.7h-1.2l-3.3,3.5v-6h-0.9V25z"/>
<path class="st0" d="M4.1,9.8h3v-7h4.1V0.3H0v2.5h4.1V9.8z M15.4,9.8V0.3h-3v9.5H15.4z M20.3,0.3h-2.7v9.5h2.8V4.5l5.1,5.3h2.6V0.3
	h-2.8v5.2L20.3,0.3z M33.2,6.2H34l3.5,3.6h3.9l-4.8-5l4.6-4.6h-3.6L34,3.8h-0.8V0.3h-2.9v9.5h2.9V6.2L33.2,6.2z"/>
<path class="st0" d="M47.3,0C43.4,0,41,2.2,41,5s2.3,5,6.2,5c3.9,0,6.2-2.2,6.2-5S51.2,0,47.3,0z M47.3,7.8c-1.9,0-3.2-1.2-3.2-2.7
	s1.2-2.7,3.2-2.7c1.9,0,3.2,1.1,3.2,2.7S49.2,7.8,47.3,7.8z M64.4,2.7V0.3h-9.5v9.5h2.9V6.4h6.4v-2h-6.4V2.7H64.4L64.4,2.7z
	 M75.1,2.7V0.3h-9.5v9.5h2.9V6.4h6.4v-2h-6.4V2.7H75.1z"/>
</svg>
