<svg width="121" height="210" viewBox="0 0 121 210" fill="none" xmlns="http://www.w3.org/2000/svg">
<mask id="mask0" mask-type="alpha" maskUnits="userSpaceOnUse" x="0" y="0" width="121" height="210">
<path d="M33 0H116C118.761 0 121 2.23858 121 5V205C121 207.761 118.761 210 116 210H0L33 0Z" fill="url(#paint0_linear)"/>
</mask>
<g mask="url(#mask0)">
<path fill-rule="evenodd" clip-rule="evenodd" d="M55.6 34.2L57.5 34.4L58.3 32.7L60.7 27.6L65.1 29.9L66.8 30.8L72.9 24.7L77.7 29.4L79.1 30.8L80.8 29.9L85.2 27.6L87.6 32.7L88.4 34.4L90.3 34.2L92 34C91.3 35.7 90.6 37.4 90.1 39.1C85.3 36.4 79.2 34.9 72.9 34.9C66.6 34.9 60.4 36.4 55.7 39.1C55.2 37.4 54.6 35.7 53.8 34L55.6 34.2ZM72.9 37.6C81.3 37.6 88.1 40.4 91.8 43.4C91.8 43.4 92.9 36.7 96.7 30.8L89.9 31.6L86.4 24L79.6 27.5L72.9 21L66.3 27.6L59.5 24L56 31.6L49.2 30.8C53 36.7 54.1 43.4 54.1 43.4C57.8 40.4 64.5 37.6 72.9 37.6ZM179.8 150C179.8 150 176.9 155.1 170.1 155.1H170C161.9 155 158.6 150.1 158.6 150.1C158.6 150.1 159.1 156.5 156.2 165.2C152.7 175.7 156.2 183.1 156.2 183.1C156.2 183.1 154.3 183.6 152.1 183.6C151.3 183.6 150.4 183.5 149.6 183.3C142.8 181.7 141.2 175.5 141.2 175.5C141.2 175.5 141.8 196.3 117.6 196.3H117.4C117.4 196.3 119.5 193.4 120.2 185C121.3 169.6 131.8 167.4 131.8 167.4C131.8 167.4 126.2 166.7 123.8 164.5C120 161.1 120.3 157.1 120.3 157.1C128.8 157 134.4 154.1 138.7 149.1C141.4 145.9 143.3 142.1 144.1 138C144.1 138 139.5 142.2 130.7 142.2C129.9 142.2 129.1 142.2 128.2 142.1C124 141.8 121.1 139.1 121.1 139.1C130.3 133.2 136.8 122.8 131.1 107.3C126.5 94.8 115.5 85.5 104.3 78.5C100.6 76.2 98.5 73.6 98.5 71.4C98.5 66.2 105.9 66 108.9 62.5C112.4 58.4 110.2 51.8 107.2 47.8C107.2 47.8 108.2 47.6 109.8 47.6C113 47.6 118.5 48.4 123.1 53.1C129.1 59.4 126.6 66.2 126.6 66.2L128.2 66.5C129.2 66.7 130.1 66.7 131.1 66.8H131.8C140.6 66.8 144.5 57.6 144.5 57.6C144.5 57.6 153.8 69.1 140.1 78.1C137.7 79.6 136.7 81.1 137 82.6L137.2 83.6L138.2 83.8C148.2 86.5 153.2 93.4 159.4 101.2C168.8 113.1 182 113.5 183.6 113.5H183.8C183.8 113.5 180.8 123.1 171.9 123.1C171.8 123.1 171.6 123.1 171.5 123.1C167.4 123 165.3 121.4 165.3 121.4C165.3 121.4 163.7 143.3 179.8 150ZM171.9 126.2C182.8 126.2 186.5 115.1 186.6 114.6L187.8 110.7L183.7 110.8C182.3 110.8 170.2 110.5 161.7 99.6L160.9 98.6C155.3 91.5 150 84.7 140.6 81.7C141 81.4 141.4 81.1 141.8 80.8C146.8 77.5 149.7 73.5 150.5 68.8C151.6 61.8 147.1 56.2 146.9 56L143.9 52.2L142 56.7C141.9 57 138.7 64.1 132 64.1H131.5C131.1 64.1 130.6 64.1 130.2 64C130.4 60.8 129.9 55.9 125.4 51.3C120 45.7 113.4 44.9 110 44.9C108.2 44.9 106.9 45.1 106.8 45.1L102.2 46L105 49.7C107.2 52.6 109.2 57.9 106.9 60.7C106.1 61.6 104.6 62.3 103.1 63C100 64.4 95.8 66.4 95.8 71.5C95.8 74.8 98.3 78.2 102.9 81.1C116.5 89.7 124.9 98.6 128.5 108.4C134.1 123.6 126.8 132.2 119.7 136.8L116.5 138.8L119.3 141.4C119.7 141.7 123.1 144.7 128.1 145.2C129.1 145.3 130 145.3 130.8 145.3C134 145.3 136.8 144.8 139 144.1C138.3 145.3 137.6 146.4 136.7 147.4C132.6 152.1 127.7 154.3 120.5 154.4H117.8L117.6 157.1C117.6 157.6 117.4 162.6 122.1 166.8C122.8 167.5 123.7 168 124.6 168.4C121.4 171.3 118.2 176.3 117.6 184.8C117.1 191.9 115.4 194.6 115.3 194.6L112.4 199.1L117.7 199.2C126.5 199.2 133.2 196.8 137.9 192C140.3 189.5 142.1 186.4 143.2 183.1C145.8 185.3 149.1 186.5 152.5 186.5C155 186.5 157.1 186 157.3 185.9L160.7 185L159.2 181.8C159.1 181.5 156.3 175.2 159.3 166.1C160.4 162.8 161.2 159.4 161.6 155.9C163.7 157 166.6 157.9 170.3 158C178.7 158 182.4 151.7 182.6 151.4L184.3 148.5L181.2 147.2C171.2 143 168.9 131.8 168.5 125.8C169.4 126 170.4 126.1 171.6 126.2H171.9Z" fill="#1A1919"/>
<path fill-rule="evenodd" clip-rule="evenodd" d="M159.6 78.7C161.6 78.7 164 79.4 166.2 81.7C173.2 88.8 179.8 89.2 179.8 89.2C178.6 91.8 175.2 94.2 171.6 94.2C170.8 94.2 169.9 94.1 169.1 93.8C164.3 92.2 162.5 84.9 154 80.4C154.1 80.3 156.5 78.7 159.6 78.7ZM152.7 82.9C156.8 85.1 159.1 88 161.2 90.6C163.2 93.1 165.2 95.5 168.2 96.6C169.3 97 170.4 97.1 171.6 97.1C176.1 97.1 180.7 94.3 182.5 90.4L184.2 86.5L180 86.2C179.8 86.2 174.4 85.7 168.3 79.5C165.8 77 162.8 75.6 159.6 75.6C155.6 75.6 152.7 77.6 152.4 77.8L148.5 80.5L152.7 82.9ZM154.6 121.5V121.6C152.1 101.8 137.8 87.5 121.8 78.8C120.3 78 119 77.3 117.6 76.7C122.5 77.5 130.3 77.5 136.3 72.3C136.3 72.3 127 79.1 108.1 72.9C113.3 76.3 123.5 81.1 132.8 88.9C156 109.4 139.4 129.3 139.4 129.3C147.8 120.6 148.1 111.2 145.6 103.6C150 110.9 152.8 119.8 152.4 130.8C151.8 146.5 143.1 160.1 134 171.1C129.6 176.4 128.7 182.9 128.7 182.9C128.7 182.9 130.5 177.2 135.5 171.2C145.2 159.8 153.6 147.9 154.6 130.8C155.6 133.9 159.8 142.5 166.3 145.8C166.6 146 158.3 141 154.6 121.5ZM28.2 196.4C4 196.4 4.6 175.6 4.6 175.6C4.6 175.6 2.9 181.8 -3.8 183.4C-4.6 183.6 -5.5 183.7 -6.3 183.7C-8.5 183.7 -10.4 183.2 -10.4 183.2C-10.4 183.2 -6.9 175.7 -10.4 165.3C-13.3 156.6 -12.8 150.2 -12.8 150.2C-12.8 150.2 -16.1 155.1 -24.2 155.2H-24.3C-31 155.2 -34 150.1 -34 150.1C-17.9 143.4 -19.4 121.7 -19.4 121.7C-19.4 121.7 -21.5 123.3 -25.6 123.4H-26C-35 123.3 -38 113.8 -38 113.8H-37.8C-36.2 113.8 -22.9 113.4 -13.6 101.5C-7.4 93.7 -2.4 86.8 7.6 84.1L8.6 83.9L8.8 82.9C9.1 81.4 8 79.9 5.7 78.4C-8.1 69.4 1.3 57.9 1.3 57.9C1.3 57.9 5.2 67 14 67H14.6C15.6 66.9 16.6 66.9 17.5 66.7L19.1 66.4C19.1 66.4 16.6 59.6 22.6 53.3C27.2 48.6 32.7 47.8 35.9 47.8C37.5 47.8 38.5 48 38.5 48C35.5 52 33.3 58.6 36.8 62.7C39.8 66.2 47.2 66.4 47.2 71.6C47.2 73.8 45.1 76.4 41.4 78.7C30.3 85.7 19.2 95 14.6 107.5C8.9 123.1 15.3 133.4 24.6 139.3C24.6 139.3 21.7 142 17.5 142.3C16.7 142.4 15.9 142.4 15 142.4C6.1 142.4 1.6 138.2 1.6 138.2C1.6 138.2 2.4 143.9 6.9 149.3C11.2 154.2 16.8 157.1 25.3 157.3C25.3 157.3 25.6 161.3 21.8 164.7C19.4 166.9 13.8 167.6 13.8 167.6C13.8 167.6 24.2 169.7 25.4 185.2C26 193.6 28.1 196.5 28.1 196.5H28.2V196.4ZM30.7 194.8C30.7 194.8 29 192.1 28.5 185C27.9 176.4 24.6 171.4 21.4 168.6C22.3 168.2 23.2 167.6 23.9 167C28.6 162.8 28.4 157.8 28.4 157.3L28.2 154.6H25.5C18.3 154.5 13.3 152.3 9.3 147.6C8.4 146.6 7.6 145.5 7 144.3C9.2 145 12 145.5 15.2 145.5C16.1 145.5 17 145.4 17.9 145.4C21.2 145.1 24.2 143.8 26.7 141.6L29.5 139L26.3 137C19.2 132.4 11.9 123.8 17.5 108.6C21.1 98.7 29.5 89.8 43.1 81.3C47.7 78.4 50.2 75 50.2 71.7C50.2 66.7 46 64.7 42.9 63.2C41.4 62.5 39.8 61.8 39.1 60.9C36.7 58.1 38.7 52.8 40.9 49.9L43.7 46.2L39.1 45.3C39 45.3 37.8 45.1 35.9 45.1C32.5 45.1 25.9 45.9 20.5 51.5C16 56.1 15.4 61.1 15.7 64.2C15.3 64.2 14.8 64.3 14.4 64.3H14C7.3 64.3 4.1 57.2 4 56.9L2 52.2L-1 56C-1.2 56.2 -5.7 61.8 -4.6 68.8C-3.9 73.5 -1 77.5 4.1 80.8C4.6 81.2 5 81.5 5.3 81.7C-4.2 84.8 -9.4 91.5 -15 98.6L-15.8 99.6C-24.3 110.5 -36.4 110.8 -37.8 110.8L-42 110.7L-40.7 114.6C-40.6 115.1 -37 126.2 -26 126.2H-25.5C-24.3 126.2 -23.3 126 -22.4 125.8C-22.8 131.9 -25.1 143.1 -35.1 147.2L-38.2 148.5L-36.5 151.4C-35.2 153.4 -33.3 155.1 -31.2 156.3C-29 157.4 -26.6 158 -24.2 158C-21.2 158 -18.2 157.3 -15.5 156C-15.2 158.7 -14.5 162.3 -13.2 166.2C-10.1 175.3 -13 181.7 -13.1 181.9L-14.6 185.1L-11.2 186C-11 186.1 -8.9 186.6 -6.4 186.6C-3 186.6 0.300003 185.4 2.9 183.2C4 186.5 5.8 189.6 8.2 192.1C12.9 196.9 19.6 199.3 28.4 199.3L33.7 199.2L30.7 194.8Z" fill="#1A1919"/>
<path fill-rule="evenodd" clip-rule="evenodd" d="M-20.4 81.7C-18.2 79.4 -15.8 78.7 -13.7 78.7C-10.6 78.7 -8.20003 80.4 -8.20003 80.4C-16.7 84.9 -18.4 92.2 -23.3 93.8C-24.1 94.1 -24.9 94.2 -25.8 94.2C-29.4 94.2 -32.8 91.9 -34 89.3C-34 89.2 -27.5 88.8 -20.4 81.7ZM-25.8 97.1C-24.6 97.1 -23.5 96.9 -22.4 96.6C-19.4 95.6 -17.4 93.2 -15.4 90.6C-13.3 88 -11 85.1 -6.90003 82.9L-2.70002 80.6L-6.60002 77.9C-6.90002 77.7 -9.80002 75.7 -13.8 75.7C-17 75.7 -20.1 77 -22.5 79.6C-28.5 85.8 -34 86.3 -34.2 86.3L-38.4 86.5L-36.7 90.4C-34.9 94.3 -30.3 97.1 -25.8 97.1ZM-6.80002 130.9C-7.20002 119.9 -4.40002 111 -2.28882e-05 103.7C-2.50002 111.3 -2.10002 120.7 6.29998 129.4C6.29998 129.4 -10.3 109.4 12.9 89C22.2 81.2 32.4 76.4 37.6 73C18.7 79.2 9.39998 72.4 9.39998 72.4C15.4 77.7 23.3 77.6 28.1 76.8C26.8 77.4 25.4 78.1 23.9 78.9C7.89998 87.6 -6.40003 101.9 -8.90003 121.7V121.6C-12.6 141 -20.9 146 -20.9 146C-14.3 142.7 -10.2 134.1 -9.20003 131C-8.10003 148.1 0.199978 159.9 9.89998 171.4C15 177.3 16.7 183.1 16.7 183.1C16.7 183.1 15.7 176.6 11.3 171.3C2.49998 160.3 -6.10003 146.7 -6.80002 130.9ZM67.5 90.9V94.8C68.9 93.1 71.5 93.5 71.5 93.5V99.2C71.5 99.2 71.4 102 70.4 103.2H76.1C75.1 102 75 99.2 75 99.2V93.5C75 93.5 77.6 93.2 79 94.8V90.9H67.5ZM65 67.6C66.8 69 67.9 69.3 67.9 69.3L68.6 69.6V65.9L62 63.1C62 63.1 62 65.3 65 67.6ZM80.8 67.6C83.8 65.3 83.9 63.1 83.9 63.1L77.3 65.9V69.6L78 69.3C78 69.3 79 69 80.8 67.6Z" fill="#1A1919"/>
<path fill-rule="evenodd" clip-rule="evenodd" d="M72.9 57.8L56.9 51.5C58.3 48.3 64.5 45.5 72.9 45.5C81.3 45.5 87.5 48.3 88.9 51.5L72.9 57.8ZM84.8 77.6L74 83.3V60.3L88.6 55.3L84.8 77.6ZM91.5 83.7L96.4 86.6H96.5L97.7 87.3C94.9 88.1 92.8 89.5 91 91.3L90.8 91.5C90.4 91.9 90 92.4 89.6 92.9L89.4 93.2C89 93.7 88.7 94.2 88.3 94.7L88.1 95C87.7 95.6 87.3 96.3 86.9 96.9C83.4 102.9 77.8 106.6 72.8 106.6C67.8 106.6 62.2 103 58.7 96.9C58.3 96.3 57.9 95.6 57.5 95L57.3 94.7C57 94.2 56.6 93.7 56.3 93.2C56.2 93.1 56.1 93 56 92.9C55.6 92.4 55.2 92 54.8 91.5C54.7 91.4 54.7 91.4 54.6 91.3C52.8 89.4 50.5 88 47.9 87.3L49.2 86.6H49.3L54.2 83.7L59.2 80.8L72.7 88.2L86.2 80.8L91.5 83.7ZM110.9 104.1C109.8 107 108.9 110.2 108.9 113.3V133.5C104.7 132.8 104.2 128.2 104.2 128L104.1 127.1L103.2 127C101.7 126.9 100.2 126.2 99.1 125.1C97 123 97 119.7 97 119.6C97 119.8 94.7 122.9 97.3 126.4C98.4 127.9 100 128.8 102 129.1C102.5 131.6 104.4 135.2 108.8 135.7V145.6H96.4C90.7 142.4 93.1 136.8 93.2 136.5L93.7 135.4L92.6 135C86.4 132.7 88.1 126.5 88.2 126.2L88.5 125.3L87.6 124.9C82.5 122.5 83.2 116.1 83.2 115.8C81.6 117.1 81.1 119.7 82.1 122.3C81.5 123 80.7 123.8 79.9 124.7C78.4 124.4 77.1 123.6 76.1 122.4C75.1 121.2 74.5 119.8 74.5 118.2V117.4L73.8 117.1C71.7 116.3 70.3 115.2 69.6 113.6C69 112.2 68.9 110.7 69.3 109.2C70.5 109.4 71.7 109.6 72.9 109.6H73C73.6 109.6 74.2 109.6 74.8 109.5C78.1 109.2 81.8 107.7 85.7 103.9H110.9V104.1ZM95.3 192.3L93 192.7C92 192.8 91 192.9 89.9 193L87.1 193.1C86 193.1 85 193.1 84.1 193.2L81.8 193.3C77.5 193.7 75.4 194.6 72.9 197.1C69.2 193.5 66.6 193.1 56.8 193.1C45 193.1 37 186.2 37 175.1V148H109V175.1C108.9 184 103.6 190.2 95.3 192.3ZM51.8 126.3L52.1 113.4L55 110.3L56.8 114.1L53.2 126.5L51.8 126.3ZM53.9 130.3C54.3 131.1 55 131.8 55.8 132.3C55.8 133.5 55.7 134.7 55.4 135.9C55.3 136.2 55.3 136.4 55.2 136.7C55.2 136.9 55.1 137 55.1 137.1C54.2 137.1 52.5 137 51.1 136.5C49.5 135.9 47.2 133 47.7 129.9C48.4 129.5 49.9 128.6 51.4 128.6C52.6 128.6 53.4 129.1 53.9 130.3ZM87.3 133.7C85.1 135.3 79.4 139.5 77.3 141L57.3 137.4L57.4 136.9C57.7 135.9 57.9 134.4 57.9 132.8L74.7 133.1L75 132.8C75.3 132.5 80.6 127.4 83.3 124.4C83.9 125.2 84.7 126 85.8 126.7C85.5 128.6 85.7 131.4 87.3 133.7ZM60.2 104.1C62.6 106.5 64.9 108 67.2 108.8C66.9 109.9 66.5 112.3 67.6 114.7C68.5 116.6 70.1 118.1 72.4 119.1C72.7 121.5 74.1 125 78.3 126.6C76.5 128.4 74.7 130.1 74 130.8L57.3 130.5C56.7 130.2 56.3 129.8 56 129.3C56 129.2 55.9 129.2 55.9 129.1L58.6 129.5H58.8C59.1 129.5 59.3 129.4 59.5 129.2C59.7 129 59.8 128.8 59.9 128.5C59.9 128.2 59.9 127.9 59.7 127.7C59.5 127.5 59.3 127.3 59 127.3L55.6 126.8L59.3 113.9L55.8 106.5L50.1 112.5L49.8 125.9L46 125.3C45.4 125.2 44.9 125.6 44.7 126.2C44.7 126.5 44.7 126.8 44.9 127C45.1 127.2 45.3 127.4 45.6 127.4L47.2 127.6C46.9 127.8 46.5 128 46.2 128.2L45.9 128.4L45.8 128.8C44.9 132.6 47 136.1 49.2 137.7L49.1 138.2C49 138.8 49.1 139.3 49.5 139.8C49.7 140.1 50 140.3 50.3 140.5C50.6 140.7 50.9 140.7 51.3 140.7C51.8 140.7 52.3 140.5 52.6 140.2C53 139.9 53.2 139.5 53.3 139C54.1 139.1 54.9 139.1 55.4 139.1H55.9L77.9 143.1L78.3 142.9C80 141.7 86.7 136.8 88.9 135.2C89.5 135.7 90.2 136.2 91 136.6C90.3 139 90.2 142.6 93 145.5H37V113.3C37 110.2 36.1 107 35 104.1H60.2ZM57.1 55.3L71.7 60.3V83.3L61 77.6L57.1 55.3ZM92.8 52.5C92.8 46.9 83.4 41.8 73 41.8H72.9C62.5 41.8 53.1 46.8 53.1 52.5L53.3 53.9L57.5 77.8L53.3 80.2L42.5 86.5C42.5 86.5 40.1 87.8 38.9 88.5C34.8 91.4 33.9 95.5 36.3 97.3C36.9 93.9 39.6 90.3 44.6 90.3C48.2 90.3 51 92.2 53.2 95C53.8 95.7 54.3 96.5 54.8 97.3C55.4 98.3 56.1 99.2 56.7 100.1H28.9C30.9 104.2 32.9 108.6 32.9 113.3V175C32.9 189.9 44.4 197 56.7 197C66.3 197 67.6 196.6 72.9 201.8C78.2 196.5 79.5 197 89 197C101.4 197 112.8 189.9 112.8 175V113.3C112.8 108.6 114.7 104.2 116.8 100.1H89C89.6 99.2 90.2 98.3 90.9 97.3C91.4 96.5 92 95.7 92.5 95C94.7 92.2 97.5 90.3 101.1 90.3C106.1 90.3 108.8 93.9 109.4 97.3C111.8 95.6 110.9 91.4 106.8 88.5C105.7 87.8 104.5 87.1 103.3 86.5L92.5 80.2L88.4 77.8L92.5 53.9L92.8 52.5Z" fill="#1A1919"/>
</g>
<defs>
<linearGradient id="paint0_linear" x1="60.5" y1="0" x2="60.5" y2="210" gradientUnits="userSpaceOnUse">
<stop stop-color="#E4E5E5"/>
<stop offset="1" stop-color="#BEC1C2"/>
</linearGradient>
</defs>
</svg>
