<svg width="84" height="31" viewBox="0 0 84 31" fill="none" xmlns="http://www.w3.org/2000/svg">
<g clip-path="url(#clip0)">
<path d="M5.712 -0.00195312L4.28143 4.05373H24.1046L25.5351 -0.00195312H5.712ZM3.56657 6.08025L2.136 10.135H21.9591L23.3897 6.08025H3.56657ZM1.42457 12.1624L-0.0059967 16.2172H19.8171L21.2469 12.1624H1.42457Z" fill="#00AAFF"/>
<path d="M42.1371 17.763V17.8489C43.0431 18.1925 43.9089 18.7948 44.3623 19.181C45.7629 20.3847 46.3817 21.9745 46.3817 24.0374C46.3817 27.4341 44.6511 29.8831 41.808 30.6572C40.9423 30.9149 40.0363 31.0008 38.3469 31.0008H29.7369V6.15833H37.3594C38.9254 6.15833 39.996 6.24424 40.9431 6.5011C43.704 7.27521 45.5169 9.25212 45.5169 12.3893C45.5169 14.066 44.94 15.4849 43.9929 16.43C43.5806 16.8595 43.0037 17.3759 42.1389 17.7621L42.1371 17.763ZM34.5154 20.3847V26.9177H37.812C38.8003 26.9177 39.7071 26.8318 40.3663 26.187C41.0254 25.5422 41.3134 24.7256 41.3134 23.6512C41.3134 22.8354 41.1069 22.0613 40.6954 21.5024C39.9951 20.5999 39.1294 20.3847 37.6466 20.3847H34.5146H34.5154ZM34.4734 16.0863H37.152C37.9757 16.0863 38.388 16.0863 38.7994 15.9579C39.9129 15.6133 40.6131 14.5832 40.6131 13.1643C40.6131 11.4886 39.8717 10.757 38.7994 10.4142C38.346 10.2849 37.8934 10.2424 36.9866 10.2424H34.4734V16.0872V16.0863ZM53.55 31.0017V10.3274H46.6697V6.15921H65.7883L64.4289 10.3274H58.3303V31.0017H53.5509H53.55ZM67.2711 31.0017V6.15921H82.764L81.4046 10.3274H72.0103V15.8294H75.8426C78.9326 15.8294 80.5397 16.6036 81.6523 17.5911C82.518 18.3652 84.0009 20.0835 84.0009 23.4802C84.0009 26.8327 82.4769 28.6803 81.1989 29.6262C79.716 30.6997 78.15 31.0017 74.9769 31.0017H67.272H67.2711ZM72.0094 26.8318H75.594C76.9534 26.8318 77.7771 26.4881 78.354 25.714C78.642 25.3278 79.0543 24.6388 79.0543 23.35C79.0543 22.0613 78.642 21.1579 77.8183 20.5131C77.3246 20.1269 76.6646 19.9126 75.552 19.9126H72.0086V26.8318H72.0094Z" fill="#0A2973"/>
</g>
<defs>
<clipPath id="clip0">
<rect width="84" height="31" fill="white"/>
</clipPath>
</defs>
</svg>
