<svg width="157" height="35" viewBox="0 0 157 35" fill="none" xmlns="http://www.w3.org/2000/svg">
<path d="M49.9386 17.4812C49.9386 12.3276 52.9577 8.97681 58.3682 8.97681C60.7936 8.97681 62.2396 9.43912 63.2657 9.92435L62.5428 11.8192C61.2368 11.4033 60.2807 11.1027 58.415 11.1027C55.1031 11.0801 52.5041 12.8823 52.5041 17.2502C52.5041 21.7103 55.1965 23.6513 58.858 23.6513C60.4205 23.6513 61.6098 23.4202 62.706 23.0734L63.2892 25.0148C62.053 25.4772 60.747 25.8236 58.4616 25.8236C52.8411 25.8237 49.9386 22.496 49.9386 17.4812Z" fill="#299D30"/>
<path d="M64.9046 18.4978C64.9046 15.9099 65.3942 11.8426 66.8635 10.479C68.1462 9.27733 71.5745 8.46851 75.5626 7.72925L75.959 9.90109C72.4141 10.5021 69.2656 11.0568 68.4961 11.7962C67.8198 12.4431 67.5166 13.9222 67.3766 15.0316C68.4494 14.454 69.9187 13.8993 71.7144 13.8993C74.7695 13.8993 76.7054 15.4011 76.7054 19.2375C76.7054 23.7436 74.0701 25.7541 70.5484 25.7541C67.0501 25.7541 64.9046 23.5823 64.9046 18.4978ZM74.2565 19.3298C74.2565 17.3193 73.3937 15.7712 71.0849 15.7712C69.6155 15.7712 68.4494 16.2796 67.3066 16.8575C67.2834 17.2734 67.26 17.8741 67.26 18.2901C67.26 22.0569 68.4028 23.8133 70.735 23.8133C73.4868 23.8133 74.2565 21.5021 74.2565 19.3298Z" fill="#299D30"/>
<path d="M78.707 19.4685C78.707 14.4769 81.2724 12.6051 84.4672 12.6051C88.0355 12.6051 89.5282 14.8469 89.5282 18.9603V19.8154H81.1556C81.179 23.1431 83.0912 23.8133 85.3302 23.8133C86.5429 23.8133 87.5693 23.6282 88.8284 23.2586L89.2482 25.1303C88.1291 25.5464 86.6126 25.8238 84.9568 25.8238C81.1555 25.8238 78.707 24.3447 78.707 19.4685ZM87.0096 18.1282C87.0096 15.8867 86.1932 14.4309 84.3277 14.4309C82.6484 14.4309 81.3889 15.6558 81.2256 18.1282H87.0096Z" fill="#299D30"/>
<path d="M91.9834 12.9286H94.4088V13.9221C95.5048 13.1596 96.5074 12.6282 98.0702 12.6282C101.079 12.6282 103.131 14.7082 103.131 18.9138C103.131 24.0674 100.052 25.8005 96.6245 25.8005C95.8316 25.8005 94.9686 25.6849 94.4088 25.6154V30.6301H91.9834V12.9286ZM100.659 19.0293C100.659 16.7414 99.8426 14.685 97.394 14.685C96.0647 14.685 95.0617 15.2856 94.4088 15.6324V23.6282C94.712 23.6745 95.7146 23.8596 96.5776 23.8596C99.4926 23.8596 100.659 21.8486 100.659 19.0293Z" fill="#299D30"/>
<path d="M105.236 18.4978C105.236 15.9099 105.726 11.8426 107.195 10.479C108.478 9.27733 111.906 8.46851 115.894 7.72925L116.291 9.90109C112.746 10.5021 109.597 11.0568 108.828 11.7962C108.152 12.4431 107.848 13.9222 107.708 15.0316C108.781 14.454 110.25 13.8993 112.046 13.8993C115.101 13.8993 117.037 15.4011 117.037 19.2375C117.037 23.7436 114.402 25.7541 110.88 25.7541C107.382 25.7541 105.236 23.5823 105.236 18.4978ZM114.588 19.3298C114.588 17.3193 113.725 15.7712 111.417 15.7712C109.947 15.7712 108.781 16.2796 107.638 16.8575C107.615 17.2734 107.592 17.8741 107.592 18.2901C107.592 22.0569 108.734 23.8133 111.067 23.8133C113.819 23.8133 114.588 21.5021 114.588 19.3298Z" fill="#299D30"/>
<path d="M118.606 22.1491C118.606 18.9601 121.451 18.313 123.667 18.2899L126.442 18.2435V16.88C126.442 15.1468 125.556 14.6849 123.69 14.6849C122.338 14.6849 121.218 14.9158 120.122 15.2855L119.609 13.46C120.798 12.9744 122.221 12.6049 124.086 12.6049C127.142 12.6049 128.821 13.6678 128.821 16.233V22.8191C128.821 23.6048 129.497 23.7667 130.15 23.7898L129.957 25.6385C129.794 25.6615 129.637 25.6849 129.474 25.6849C128.167 25.6849 126.885 25.292 126.652 24.1594C125.859 24.7606 124.553 25.7541 122.524 25.7541C120.169 25.7542 118.606 24.4833 118.606 22.1491ZM126.442 22.7038V19.7921L123.737 19.9078C121.988 19.9541 120.985 20.6933 120.985 21.9873C120.985 23.2585 121.917 23.8364 123.154 23.8364C124.296 23.8364 125.533 23.2817 126.442 22.7038Z" fill="#299D30"/>
<path d="M132.233 12.9287H134.681V18.2668H140.675V12.9287H143.123V25.5464H140.675V20.1851H134.681V25.5464H132.233V12.9287Z" fill="#299D30"/>
<path d="M146.125 12.9287H148.574V25.5464H146.125V12.9287ZM152.289 23.3741L148.668 19.0757L153.735 12.9287H156.487L151.303 18.8907L153.828 21.664C154.947 22.9348 155.974 23.6746 157 23.9519L156.58 25.7541C155.391 25.6852 153.968 25.4077 152.289 23.3741Z" fill="#299D30"/>
<path d="M36.7599 16.79C36.7599 26.8452 28.5316 35 18.3801 35C8.22975 35 0 26.8452 0 16.79C0 16.3795 0.0170508 15.9749 0.042976 15.5738L11.1709 21.9167L34.7419 8.48145C36.0317 10.9725 36.7599 13.7959 36.7599 16.79ZM11.1709 17.3334L0.810561 11.4294C0.607348 12.0839 0.441426 12.7523 0.313296 13.4375L11.1709 19.6253L33.73 6.76856C33.3576 6.21268 32.9572 5.67538 32.5277 5.16119L11.1709 17.3334ZM31.1282 3.67032C30.6171 3.18291 30.0778 2.72436 29.5144 2.29851L11.1709 12.7523L2.41443 7.76096C2.08399 8.33462 1.78355 8.92795 1.51543 9.54123L11.1709 15.0413L31.1282 3.67032ZM11.1709 10.4617L27.6588 1.0666C26.9694 0.666837 26.2536 0.310051 25.5108 0L11.1709 8.1714L4.78569 4.5322C4.33011 5.02721 3.90344 5.55068 3.50449 6.09214L11.1709 10.4617Z" fill="#299D30"/>
</svg>
