<svg width="95" height="69" viewBox="0 0 95 69" fill="none" xmlns="http://www.w3.org/2000/svg">
<path d="M74.3267 22.8782L75.0419 20.6053L72.6804 20.6729C72.478 20.6729 71.0341 20.6324 69.6307 19.6176C69.7387 19.6312 69.8466 19.6447 69.9411 19.6447C71.385 19.6447 72.7884 18.7788 73.3551 17.5341L74.3537 15.2882C73.0852 15.3018 71.9112 15.1394 71.9112 15.1394C71.8977 15.1394 70.9801 15.0176 69.9276 13.9353C69.1719 13.1641 68.2273 12.7447 67.2017 12.7447C66.7564 12.7447 66.3516 12.8259 66.0142 12.9341C66.0682 12.7582 66.1222 12.5688 66.1492 12.3794C66.473 10.2824 65.1101 8.67235 65.1101 8.67235L63.3288 6.48059L62.2223 9.05118C62.2223 9.06471 61.9389 9.66 61.4396 9.95765C61.2912 9.2 60.9269 8.34765 60.1307 7.53588C58.6463 6.00706 56.8381 5.77706 55.8935 5.77706C55.4617 5.77706 55.1378 5.81765 55.0703 5.83118L52.9247 6.25059C53.0462 5.77706 53.3161 4.93823 53.7884 4.19412L54.9759 2.35412L51.9936 2.69235L51.049 0.69L49.2138 1.63706L47.554 0L45.8672 1.66412L44.032 0.717059L43.0874 2.71941L40.1186 2.38118L41.3061 4.22118C41.7919 4.96529 42.0483 5.79059 42.1698 6.27765L40.1186 5.87176L40.0511 5.85823C39.9432 5.84471 39.6328 5.79059 39.201 5.79059C38.2564 5.79059 36.4482 6.02059 34.9638 7.54941C34.1676 8.36118 33.8033 9.21353 33.6548 9.97118C33.1556 9.67353 32.8857 9.09176 32.8857 9.09176L31.7791 6.50765L29.9574 8.71294C29.7415 8.99706 28.6485 10.4988 28.9453 12.3929C28.9723 12.5824 29.0263 12.7718 29.0803 12.9476C28.7429 12.8394 28.3381 12.7582 27.8928 12.7582C26.8672 12.7582 25.9361 13.1641 25.1669 13.9488C24.1144 15.0312 23.1967 15.1394 23.2102 15.1394C23.2102 15.1394 22.2521 15.3153 20.7543 15.2882L21.7663 17.5341C22.3331 18.7788 23.7365 19.6447 25.1804 19.6447C25.2884 19.6447 25.3963 19.6312 25.5043 19.6176C24.1009 20.6324 22.657 20.6729 22.4815 20.6729L20.0796 20.5918L20.8083 22.8647C21.1726 24.0418 22.4006 25.9765 24.7486 26.1929C24.4922 27.2618 23.9254 28.4524 22.684 28.9665L20.8892 29.6971L21.8608 31.3882C22.4141 32.3082 23.7095 33.3771 25.5448 33.3771C25.9496 33.3771 26.3274 33.3365 26.7053 33.2553C26.7997 33.6747 26.9212 34.0941 27.0561 34.5C27.6094 36.1235 27.1371 37.26 27.1236 37.2735L26.233 39.1135L28.2031 39.6276C28.2301 39.6412 28.8239 39.8035 29.5661 39.8035C29.9034 39.8035 30.2273 39.7629 30.5377 39.6953C30.7671 39.6412 30.983 39.5735 31.1989 39.4788C31.4553 39.9388 31.7656 40.3582 32.13 40.7235C33.3985 42.0224 35.1797 42.6718 37.4602 42.6718H37.4737L39.0931 42.6447L35.7465 44.0247L38.2834 45.2423C39.201 45.6888 40.3075 46.2165 41.4141 46.6224L41.1037 47.4882L41.9808 47.8806C42.0618 47.9212 43.7486 48.6653 46.5419 48.8276C46.5419 48.8276 47.2166 48.8547 47.5945 48.8547C47.9723 48.8547 48.6335 48.8276 48.6335 48.8276C51.4134 48.6653 53.0867 47.9212 53.1676 47.8806L54.0448 47.4747L53.7074 46.6765C54.8544 46.2571 55.9879 45.7024 56.8786 45.2829L59.375 44.0788L56.0419 42.6853L57.6747 42.7124C59.9418 42.7124 61.7365 42.0629 63.005 40.7641C63.3693 40.3988 63.6797 39.9794 63.9361 39.5194C64.152 39.6006 64.3679 39.6818 64.5973 39.7359C64.8942 39.8035 65.2181 39.8441 65.5554 39.8441C66.2841 39.8441 66.8913 39.6818 66.9048 39.6818L68.8885 39.1541L68.0249 37.3412C67.9979 37.3006 67.5256 36.1641 68.0789 34.5271C68.2138 34.1076 68.3352 33.6882 68.4297 33.2824C68.8075 33.3635 69.1854 33.4041 69.5902 33.4041C71.9382 33.4041 73.0583 31.7535 73.2742 31.4018L74.2458 29.7241L72.451 28.9935C71.2095 28.4794 70.6428 27.2888 70.3864 26.22C72.6939 26.0035 73.9354 24.0688 74.3267 22.8782ZM42.3047 7.07588H42.2777L42.3047 7.04882V7.07588Z" fill="white"/>
<path d="M47.554 6.96765C45.6513 6.96765 44.2344 7.59 43.924 8.32059L47.554 9.74118L51.184 8.32059C50.8736 7.59 49.4432 6.96765 47.554 6.96765Z" fill="white"/>
<path d="M47.581 44.7282H47.5135C46.3665 44.7417 44.7877 44.4982 44.0185 44.2817L43.1009 46.7576C43.7081 46.9741 45.7592 47.38 47.554 47.38C49.3487 47.38 51.3999 46.9741 51.9936 46.7576L51.076 44.2817C50.3203 44.4982 48.7415 44.7282 47.581 44.7282Z" fill="white"/>
<path d="M54.5306 42.2659C53.8423 42.6447 52.3175 43.2265 51.4404 43.497L52.1826 45.54C53.559 45.1612 54.6925 44.7282 55.6236 44.2682L54.0852 43.7541L54.5306 42.2659Z" fill="white"/>
<path d="M40.5774 42.2659L41.0362 43.7541L39.4844 44.2682C40.4155 44.7418 41.549 45.1747 42.9254 45.54L43.6676 43.497C42.777 43.2265 41.2521 42.6447 40.5774 42.2659Z" fill="white"/>
<path d="M47.554 4.60003C48.9844 4.60003 50.3878 4.93827 51.4673 5.53356C51.5618 5.20885 51.7102 4.80297 51.8856 4.38356L51.4808 4.43768L51.049 4.47826L50.8736 4.08591L50.3338 2.93591L49.3352 3.45003L48.9439 3.65297L48.6335 3.35532L47.554 2.2865L46.4744 3.35532L46.1641 3.65297L45.7727 3.45003L44.7741 2.93591L44.2344 4.08591L44.0454 4.47826L43.6136 4.43768L43.2088 4.38356C43.3977 4.80297 43.5327 5.19532 43.6271 5.53356C44.7202 4.93827 46.1236 4.60003 47.554 4.60003Z" fill="white"/>
<path d="M69.3743 17.8723C69.5632 17.9399 69.7521 17.967 69.941 17.967C70.7507 17.967 71.5334 17.4529 71.8032 16.8441C71.8032 16.8441 70.3189 16.7494 68.7265 15.1394C68.2138 14.6117 67.6875 14.4629 67.2152 14.4629C66.5 14.4629 65.9602 14.8417 65.9602 14.8417C67.8899 15.8564 68.2812 17.4935 69.3743 17.8723Z" fill="white"/>
<path d="M25.1669 17.9535C25.3558 17.9535 25.5447 17.9264 25.7202 17.8588C26.8267 17.4935 27.218 15.8564 29.1342 14.8282C29.1342 14.8282 28.5945 14.4493 27.8793 14.4493C27.4205 14.4493 26.8807 14.6117 26.3679 15.1258C24.7756 16.7358 23.2912 16.8305 23.2912 16.8305C23.5746 17.4393 24.3572 17.9535 25.1669 17.9535Z" fill="white"/>
<path d="M69.9006 24.5288C69.9276 24.5288 69.968 24.5288 69.995 24.5288C72.0057 24.5288 72.6939 22.3776 72.6939 22.3776H72.6534C72.2891 22.3776 69.2798 22.2964 67.1612 19.6041C65.7713 17.8317 64.6243 16.2894 62.3572 15.6806L62.1413 15.64L62.0874 15.41C62.0199 15.0717 62.2628 14.747 62.8026 14.3953C65.9197 12.3658 63.8011 9.7682 63.8011 9.7682C63.8011 9.7682 62.9105 11.8382 60.9133 11.8382C60.8594 11.8382 60.8189 11.8382 60.7649 11.8382C60.5355 11.8247 60.3196 11.8111 60.1037 11.7706L59.7393 11.7029C59.7393 11.7029 60.3061 10.1606 58.9432 8.75349C57.9041 7.68467 56.6491 7.50879 55.9339 7.50879C55.5696 7.50879 55.3402 7.54938 55.3402 7.54938C56.0284 8.44232 56.5277 9.93055 55.7315 10.8506C55.0433 11.6353 53.37 11.6758 53.37 12.8529C53.37 13.3535 53.8423 13.9353 54.679 14.4494C57.2024 16.0323 59.7124 18.1294 60.7514 20.9435C62.0469 24.4611 60.5895 26.7882 58.4979 28.1276C58.4979 28.1276 59.1591 28.7364 60.1037 28.8041C60.2926 28.8176 60.4815 28.8311 60.657 28.8311C62.6676 28.8311 63.7067 27.8976 63.7067 27.8976C63.7067 27.8976 63.5312 29.1964 62.4922 30.4006C61.5341 31.51 60.2656 32.1729 58.3359 32.2C58.3359 32.2 58.2685 33.0929 59.1321 33.8641C59.6854 34.3511 60.9403 34.5135 60.9403 34.5135C60.9403 34.5135 58.5788 34.987 58.3089 38.4776C58.174 40.3582 57.6882 41.0211 57.6882 41.0211H57.7287C63.2209 41.0211 63.0859 36.3264 63.0859 36.3264C63.0859 36.3264 63.4638 37.72 65.0021 38.0717C65.1911 38.1258 65.38 38.1394 65.5689 38.1394C66.0682 38.1394 66.4865 38.0311 66.4865 38.0311C66.4865 38.0311 65.6903 36.34 66.4865 33.9858C67.1477 32.0241 67.0398 30.5764 67.0398 30.5764C67.0398 30.5764 67.782 31.6858 69.6172 31.6994H69.6307C71.1555 31.6994 71.8303 30.5494 71.8303 30.5494C68.1733 29.0341 68.5241 24.15 68.5241 24.15C68.5241 24.15 68.9695 24.4882 69.9006 24.5288ZM68.794 29.6294C67.3097 28.8988 66.3651 26.9506 66.1357 26.2606C65.8928 30.1164 64.0035 32.7817 61.7905 35.3658C60.6435 36.7053 60.2521 37.9906 60.2521 37.9906C60.2521 37.9906 60.468 36.5158 61.4666 35.3253C63.5312 32.8629 65.4879 29.7917 65.6229 26.247C65.7173 23.7711 65.0831 21.7688 64.0845 20.1047C64.6378 21.8229 64.5703 23.9335 62.6676 25.9088C62.6676 25.9088 66.4325 21.4035 61.1697 16.79C59.0646 15.0311 56.7571 13.9488 55.5696 13.1776C59.8608 14.5711 61.9659 13.0423 61.9659 13.0423C60.5895 14.2329 58.8217 14.2058 57.7152 14.03C58.0121 14.1788 58.3224 14.3276 58.6598 14.5035C62.2763 16.4653 65.5284 19.6853 66.0952 24.15V24.1094C66.9183 28.5064 68.794 29.6294 68.794 29.6294Z" fill="white"/>
<path d="M34.1946 34.5135C34.1946 34.5135 35.4631 34.3511 36.0028 33.8641C36.853 33.0929 36.799 32.2 36.799 32.2C34.8693 32.1729 33.6009 31.5235 32.6293 30.4006C31.5902 29.1964 31.4148 27.8976 31.4148 27.8976C31.4148 27.8976 32.4538 28.8311 34.4645 28.8311C34.6399 28.8311 34.8288 28.8176 35.0313 28.8041C35.9894 28.7229 36.6371 28.1276 36.6371 28.1276C34.5455 26.7882 33.0746 24.4611 34.37 20.9435C35.4091 18.1294 37.919 16.0323 40.4425 14.4494C41.2791 13.9217 41.7514 13.3535 41.7514 12.8529C41.7514 11.6758 40.0781 11.6353 39.3899 10.8506C38.5938 9.93055 39.093 8.44232 39.7813 7.54938C39.7813 7.54938 39.5519 7.50879 39.1875 7.50879C38.4588 7.50879 37.2038 7.68467 36.1783 8.75349C34.8019 10.1606 35.3686 11.7029 35.3686 11.7029L35.0043 11.7706C34.7884 11.8111 34.559 11.8247 34.343 11.8382C34.2891 11.8382 34.2486 11.8382 34.1946 11.8382C32.1974 11.8382 31.3068 9.7682 31.3068 9.7682C31.3068 9.7682 29.1882 12.3658 32.3054 14.3953C32.8452 14.747 33.0746 15.0717 33.0206 15.41L32.9666 15.64L32.7372 15.6806C30.4837 16.2894 29.3367 17.8453 27.9332 19.6176C25.8146 22.2964 22.8189 22.3911 22.4411 22.3911H22.4006C22.4006 22.3911 23.0888 24.5423 25.0994 24.5423C25.1264 24.5423 25.1669 24.5423 25.1939 24.5423C26.125 24.5153 26.5973 24.15 26.5973 24.15C26.5973 24.15 26.9617 29.0341 23.2912 30.5494C23.2912 30.5494 23.9524 31.6994 25.4908 31.6994H25.5043C27.3395 31.6858 28.0817 30.5764 28.0817 30.5764C28.0817 30.5764 27.9737 32.0241 28.6349 33.9858C29.4311 36.34 28.6349 38.0311 28.6349 38.0311C28.6349 38.0311 29.0668 38.1394 29.5526 38.1394C29.7415 38.1394 29.9439 38.1258 30.1193 38.0717C31.6442 37.7064 32.0355 36.3264 32.0355 36.3264C32.0355 36.3264 31.9006 41.0211 37.3928 41.0211H37.4332C37.4332 41.0211 36.9474 40.3717 36.8125 38.4776C36.5561 34.987 34.1946 34.5135 34.1946 34.5135ZM33.304 35.3658C31.0909 32.7953 29.2152 30.1164 28.9588 26.2606C28.7294 26.9641 27.7983 28.8988 26.3004 29.6294C26.3004 29.6294 28.1761 28.5064 29.0128 24.1229V24.1635C29.5661 19.6988 32.8182 16.4788 36.4482 14.517C36.7855 14.3411 37.0959 14.1788 37.3928 14.0435C36.2862 14.2194 34.5185 14.2329 33.1421 13.0558C33.1421 13.0558 35.2337 14.5982 39.5249 13.1911C38.3374 13.9623 36.0298 15.0447 33.9247 16.8035C28.6484 21.417 32.4269 25.9223 32.4269 25.9223C30.5242 23.947 30.4567 21.8364 31.0099 20.1182C30.0114 21.7688 29.3771 23.7847 29.4716 26.2606C29.62 29.8053 31.5767 32.8764 33.6278 35.3388C34.6264 36.5294 34.8423 38.0041 34.8423 38.0041C34.8423 38.0041 34.451 36.6917 33.304 35.3658Z" fill="white"/>
<path d="M43.4922 17.3448C43.5867 17.4395 43.6676 17.5477 43.7621 17.6559C43.7891 17.683 43.8026 17.6965 43.8161 17.7371C43.897 17.8453 43.978 17.9536 44.0455 18.0618C44.059 18.0889 44.0725 18.1159 44.0994 18.143C44.1939 18.2783 44.2749 18.4271 44.3693 18.5759C45.1655 19.9424 46.434 20.7542 47.554 20.7542C48.6875 20.7542 49.9425 19.9424 50.7387 18.5759C50.8331 18.4271 50.9141 18.2783 51.0085 18.143C51.022 18.1295 51.0355 18.1024 51.049 18.0889C51.13 17.9671 51.211 17.8589 51.2919 17.7506C51.3054 17.7236 51.3324 17.71 51.3459 17.683C51.4404 17.5748 51.5213 17.4665 51.6158 17.3718C51.6293 17.3583 51.6428 17.3448 51.6563 17.3312C52.0611 16.9253 52.5469 16.6006 53.1676 16.4383L52.8978 16.2353H52.8843L51.7642 15.5859L50.6172 14.9365L47.554 16.6006H47.5405L44.4773 14.9365L43.3303 15.5859L42.2102 16.2353H42.1967L41.9134 16.3977C42.5476 16.5736 43.0199 16.8848 43.4247 17.2906C43.4517 17.3177 43.4652 17.3312 43.4922 17.3448ZM46.3125 17.2095H48.9034V18.0889C48.5931 17.7236 48.0128 17.7912 48.0128 17.7912V19.063C48.0128 19.063 48.0398 19.6853 48.2557 19.9559H46.9602C47.1896 19.6853 47.2031 19.063 47.2031 19.063V17.7912C47.2031 17.7912 46.6094 17.71 46.299 18.0889V17.2095H46.3125Z" fill="white"/>
<path d="M47.2841 15.4911V10.3094L43.978 9.19995L44.8551 14.2194L47.2841 15.4911ZM46.5689 11.5811V12.4064L46.4069 12.3388C46.3935 12.3388 46.164 12.2847 45.7592 11.96C45.0845 11.4323 45.071 10.9588 45.071 10.9588L46.5689 11.5811Z" fill="white"/>
<path d="M50.2528 14.2194L51.1165 9.19995L47.8104 10.3229V15.5047L50.2528 14.2194ZM48.5256 11.5811L50.0369 10.9452C50.0369 10.9452 50.0234 11.4323 49.3487 11.96C48.9439 12.2847 48.701 12.3388 48.701 12.3388L48.5391 12.4064L48.5256 11.5811Z" fill="white"/>
<path d="M42.6016 27.5053C42.9254 27.6271 43.3168 27.6406 43.5192 27.6406C43.5327 27.6136 43.5327 27.5865 43.5462 27.5459C43.5597 27.4918 43.5866 27.4241 43.6001 27.3565C43.6541 27.0724 43.6811 26.7477 43.6811 26.5312C43.5462 26.45 43.3572 26.3012 43.2493 26.0712C43.1278 25.8141 42.9524 25.6924 42.696 25.6924C42.3587 25.6924 42.0078 25.8953 41.8459 25.99C41.7109 26.7341 42.2507 27.3836 42.6016 27.5053Z" fill="white"/>
<path d="M49.929 24.7588C49.3082 25.4217 48.1072 26.5853 48.0533 26.6394L47.9858 26.707L44.1804 26.6529C44.1804 27.0317 44.1129 27.3429 44.0589 27.5864C44.0454 27.627 44.032 27.6676 44.032 27.7082L48.5526 28.52C49.0249 28.1953 50.3203 27.2482 50.8196 26.8829C50.4553 26.3553 50.4148 25.7194 50.4958 25.2729C50.2529 25.1241 50.0774 24.9482 49.929 24.7588Z" fill="white"/>
<path d="M50.4418 20.1994C49.5646 21.0653 48.728 21.39 47.9723 21.4577C47.8374 21.4712 47.7024 21.4847 47.554 21.4847H47.5405C47.4056 21.4847 47.2571 21.4712 47.1222 21.4577C46.9872 21.4441 46.8523 21.4306 46.7173 21.39C46.6634 21.5794 46.6094 21.9988 46.7848 22.3777C46.9467 22.7294 47.2706 22.9865 47.7429 23.1624L47.9048 23.23V23.4059C47.9048 23.46 47.9453 24.5559 49.1463 24.8671C49.3487 24.6641 49.5242 24.4882 49.6591 24.3259C49.4162 23.7441 49.5377 23.1624 49.902 22.8647C49.8885 22.9324 49.7266 24.3665 50.8871 24.9077L51.076 25.0024L51.022 25.2053C51.0085 25.273 50.6172 26.6665 52.0206 27.1806L52.2635 27.2753L52.1555 27.5188C52.1286 27.573 51.5753 28.8447 52.8842 29.5618H55.7046V27.3294C54.706 27.2077 54.2742 26.4094 54.1662 25.8277C53.6939 25.7465 53.343 25.5435 53.0867 25.2188C52.4929 24.4477 53.0057 23.7306 53.0057 23.69C53.0057 23.69 53.0057 24.4612 53.478 24.9212C53.7074 25.1512 53.9908 25.3271 54.4091 25.3541L54.6115 25.3677L54.625 25.5706C54.625 25.6112 54.7465 26.6394 55.7046 26.8018V22.2424C55.7046 21.5388 55.907 20.8218 56.1634 20.1724L50.4418 20.1994Z" fill="white"/>
<path d="M42.8445 22.2965L42.7635 25.2053L43.1008 25.2594L43.9105 22.4723L43.5057 21.62L42.8445 22.2965Z" fill="white"/>
<path d="M51.7777 35.623C51.8047 35.623 51.8317 35.623 51.8587 35.6365C52.358 35.7853 52.4929 37.5847 53.37 37.7471C53.451 37.7606 53.532 37.7741 53.6129 37.7741C53.8693 37.7741 54.0178 37.6659 54.1797 37.4765C54.1797 37.4765 53.7344 36.7865 53.397 36.313C52.9517 35.7041 52.6144 34.96 51.7912 34.96C51.7777 34.96 51.7507 34.96 51.7237 34.96C51.4538 34.9736 51.2919 35.1089 51.2919 35.1089C50.9546 34.9059 50.6442 34.8247 50.3608 34.8247C49.848 34.8247 49.4432 35.0547 49.2408 35.0547H49.2273L47.3921 34.8789C47.1087 34.8518 46.8793 34.5677 46.7983 34.4459C46.7713 34.4189 46.7713 34.3918 46.7713 34.3918C46.7713 34.3377 46.7713 34.2971 46.7713 34.243C46.7038 32.7412 45.5433 32.1053 45.1385 32.0918C45.1385 32.0918 45.1925 31.8077 45.071 31.6994L44.6662 32.1865L43.3303 31.5236L44.2749 32.633L43.4652 33.5259C43.3707 33.6341 43.3707 33.7694 43.4112 33.8236L43.7621 34.1347L44.2074 33.8641C44.2344 33.8506 44.2749 33.8371 44.3153 33.8371C44.4368 33.8371 44.6257 33.8641 44.7876 33.8641C44.9631 33.8641 45.125 33.8236 45.1385 33.6612C45.0845 34.2159 44.5717 35.1765 44.9091 35.9341L45.1655 36.5024L43.5462 36.2724L42.7905 37.5577C42.5611 37.9906 42.5206 38.4506 42.75 38.6941L43.0334 39.0459C43.0334 39.0459 43.4382 38.6265 43.5192 38.3424L43.3842 38.2071C43.2763 38.0853 43.2763 37.9771 43.3438 37.8553L43.8161 37.0706L45.7323 37.5171L45.8267 37.3412C45.9617 37.1247 46.1371 37.0571 46.353 37.0571C46.434 37.0571 46.5284 37.0706 46.6094 37.0841C46.9602 37.1518 47.554 37.2465 48.1342 37.2465C48.782 37.2465 49.4162 37.1383 49.7536 36.7594C50.4553 37.7877 51.8587 37.95 51.7507 38.4641L51.3864 40.223C51.6293 40.2094 51.8722 40.1959 52.0881 40.1689L52.4389 38.3424C52.4794 38.1394 52.5199 37.8689 52.5199 37.8689C52.385 37.7336 52.0611 37.4359 51.8722 37.0841C51.6293 36.6106 51.7642 36.3671 51.5213 35.7447C51.5483 35.7583 51.6158 35.623 51.7777 35.623ZM44.5987 33.0524C44.5043 33.0524 44.4368 32.9712 44.4368 32.8765C44.4503 32.7818 44.5178 32.7141 44.6122 32.7277C44.7067 32.7277 44.7742 32.8089 44.7742 32.9036C44.7742 32.9847 44.6932 33.0524 44.5987 33.0524Z" fill="white"/>
<path d="M41.9808 37.2871C41.9808 37.2871 42.6151 37.03 42.669 36.8406L42.5881 36.6241C42.5341 36.4888 42.5341 36.34 42.6555 36.2588L43.3438 35.7853L44.4908 36.0018C44.4908 36.0018 44.2884 35.7447 44.3019 35.393L43.2088 35.163L42.1698 35.7853C41.7244 36.11 41.6974 36.6512 41.8459 36.9759L41.9808 37.2871Z" fill="white"/>
<path d="M50.0909 40.2635C50.2933 40.25 50.5227 40.25 50.7656 40.25C50.7656 40.25 51.3594 38.5317 51.3864 38.4776C51.049 38.3288 50.3743 37.9635 50.1044 37.8011C50.2798 38.0582 50.7116 38.3559 50.6172 38.5859L50.0909 40.2635Z" fill="white"/>
<path d="M55.7046 30.0624H39.3899V36.1777C39.3899 38.6806 41.2117 40.25 43.8835 40.25C46.1236 40.25 46.7173 40.3312 47.5405 41.1565C48.1207 40.5882 48.593 40.3718 49.5646 40.2906L49.5916 40.1959L50.1044 38.613C50.0774 38.5724 49.2408 37.6253 49.2408 37.6253C48.9034 37.7335 48.6335 37.7606 48.1612 37.7606C47.6754 37.7606 47.1357 37.7065 46.5419 37.5982C46.4879 37.5847 46.4205 37.5847 46.3665 37.5847C46.299 37.5847 46.2855 37.5847 46.272 37.6253L46.1641 37.7877L45.9752 38.0988L45.6243 38.0177L44.059 37.6524L43.843 38.0041L43.87 38.0447L44.059 38.2477L43.978 38.5183C43.8565 38.87 43.4922 39.2894 43.3707 39.4112L42.9794 39.8306L42.6421 39.3706L42.3722 39.0324C42.0888 38.7212 42.0213 38.2341 42.1832 37.7335H42.1698L41.7244 37.9094L41.522 37.4765L41.3871 37.1653C41.1442 36.6241 41.2386 35.8394 41.8864 35.3659L43.1413 34.6624L44.3423 34.8924C44.3693 34.7841 44.4098 34.3647 44.4503 34.2565C44.4233 34.2565 44.4098 34.243 44.3828 34.243L43.6946 34.5L43.0334 34.04C43.0334 34.04 42.777 33.7965 43.0064 33.5394L43.6541 32.5653L42.0213 30.5224L44.5313 31.5506L44.6932 31.3477L45.0306 30.9418L45.4084 31.3071C45.5163 31.4153 45.5838 31.5371 45.6108 31.6724C46.299 31.943 47.5405 32.7277 47.6484 34.0265L47.2571 34.1888V34.2024C47.3516 34.3106 47.419 34.3512 47.446 34.3512L49.2408 34.5271C49.2813 34.5135 49.3487 34.5 49.4027 34.473C49.6186 34.3918 49.956 34.2835 50.3608 34.2835C50.6847 34.2835 50.995 34.3512 51.2919 34.5C51.3999 34.4594 51.5348 34.4324 51.6967 34.4188H51.7777C52.7358 34.4188 53.2216 35.1359 53.5994 35.7041C53.6669 35.7988 53.7209 35.8935 53.7884 35.9883C54.1257 36.4618 54.5575 37.1518 54.5845 37.1788L54.7869 37.49L54.544 37.7741C54.3551 37.9906 54.0717 38.2477 53.5994 38.2477C53.505 38.2477 53.397 38.2341 53.2756 38.2206C53.1676 38.2071 53.0732 38.1665 52.9922 38.1394C52.9787 38.2341 52.9652 38.3424 52.9382 38.4371L52.6278 40.0741C54.5036 39.6141 55.7046 38.1935 55.7046 36.1777V30.0624Z" fill="#FFDD2D"/>
<path d="M39.3899 29.5753H52.0746C51.4403 28.9259 51.4538 28.1006 51.6158 27.5594C51.4268 27.4647 51.2784 27.37 51.1435 27.2482C50.6442 27.6135 49.1328 28.7094 48.7415 28.98L48.6605 29.0341L43.6811 28.1412H43.5866C43.4652 28.1412 43.2898 28.1412 43.1008 28.1141C43.0469 28.3441 42.8579 28.493 42.6285 28.493C42.6016 28.493 42.5746 28.493 42.5476 28.4794C42.4126 28.4524 42.3047 28.3847 42.2237 28.2765C42.1427 28.1682 42.1158 28.0465 42.1427 27.9112L42.1562 27.803C41.6435 27.4377 41.1712 26.6394 41.3736 25.7871L41.4006 25.6924L41.468 25.6382C41.4815 25.6247 41.5625 25.5706 41.6974 25.503L41.3331 25.4488C41.1981 25.4218 41.1037 25.3 41.1307 25.1647C41.1577 25.0294 41.2791 24.9347 41.4141 24.9618L42.2777 25.0971L42.3587 22.0665L43.6406 20.7135L44.4368 22.3912L43.5866 25.3L44.3423 25.4218C44.4773 25.4488 44.5717 25.5706 44.5447 25.7059C44.5177 25.8277 44.4233 25.9088 44.3018 25.9088C44.2883 25.9088 44.2748 25.9088 44.2614 25.9088L43.6406 25.8141C43.6541 25.8277 43.6676 25.8412 43.6676 25.8682C43.7351 26.0035 43.8835 26.0982 43.9645 26.1388L47.7564 26.193C47.9183 26.0441 48.3096 25.6518 48.728 25.2324C47.7969 24.8806 47.4595 24.0824 47.392 23.5412C46.8658 23.3247 46.5149 22.9865 46.3125 22.5535C46.0696 22.0124 46.1506 21.4847 46.218 21.2277C45.7052 21.0382 45.179 20.7135 44.6392 20.1724H38.9176C39.1605 20.8218 39.3764 21.5388 39.3764 22.2424V29.5753H39.3899Z" fill="#FFDD2D"/>
<path d="M44.6122 32.7141C44.5178 32.7006 44.4368 32.7818 44.4368 32.863C44.4368 32.9577 44.5043 33.0388 44.5987 33.0388C44.6932 33.0524 44.7742 32.9712 44.7742 32.89C44.7742 32.8088 44.7067 32.7277 44.6122 32.7141Z" fill="black"/>
<path d="M55.691 43.8083L54.7464 43.443L55.0028 42.4824L55.2862 41.4271C55.2862 41.4271 53.6264 42.3201 51.2784 42.9965C50.6172 43.1859 50.1044 43.2671 50.1044 43.2671V43.9842C50.1044 43.9842 48.8494 44.2007 47.581 44.2007H47.5135C46.245 44.2007 44.9901 43.9842 44.9901 43.9842V43.2671C44.9901 43.2671 44.4773 43.1859 43.8161 42.9965C41.468 42.3201 39.8082 41.4271 39.8082 41.4271L40.0916 42.4824L40.3615 43.443L39.4169 43.8083L38.3778 44.2007C39.5788 44.7824 41.2386 45.6212 42.75 46.0271L42.3991 47.0012C42.3991 47.0012 44.3288 47.8807 47.5405 47.8807H47.581C50.7926 47.8671 52.7223 47.0012 52.7223 47.0012L52.358 46.0271C53.8828 45.6077 55.5426 44.7689 56.7301 44.2007L55.691 43.8083ZM39.4844 44.2683L41.0362 43.7542L40.5774 42.2659C41.2521 42.6448 42.7905 43.2265 43.6676 43.4971L42.9254 45.5401C41.549 45.1612 40.4155 44.7283 39.4844 44.2683ZM47.554 47.3665C45.7592 47.3665 43.7081 46.9607 43.1008 46.7442L44.0185 44.2683C44.7741 44.4848 46.3665 44.7283 47.5135 44.7148H47.581C48.728 44.7283 50.3068 44.4848 51.076 44.2683L51.9936 46.7442C51.3999 46.9607 49.3487 47.3665 47.554 47.3665ZM52.1825 45.5401L51.4403 43.4971C52.331 43.2265 53.8558 42.6448 54.5305 42.2659L54.0717 43.7542L55.6101 44.2683C54.679 44.7283 53.5455 45.1612 52.1825 45.5401Z" fill="black"/>
<path d="M47.554 5.20883C49.4702 5.20883 50.995 5.84471 51.8452 6.50765C51.8452 6.50765 52.1016 5.00589 52.9517 3.66648L51.4134 3.84236L50.6037 2.13765L49.0518 2.93589L47.554 1.46118L46.0561 2.93589L44.5043 2.13765L43.6946 3.84236L42.1562 3.66648C43.0199 4.99236 43.2628 6.50765 43.2628 6.50765C44.1129 5.83118 45.6378 5.20883 47.554 5.20883ZM43.6271 4.45118L44.0589 4.49177L44.2479 4.09942L44.7876 2.94942L45.7862 3.46353L46.1776 3.66648L46.4879 3.36883L47.5675 2.30001L48.647 3.36883L48.9574 3.66648L49.3487 3.46353L50.3473 2.94942L50.8871 4.09942L51.0625 4.49177L51.4943 4.45118L51.8991 4.39706C51.7102 4.81648 51.5753 5.20883 51.4808 5.54706C50.4013 4.95177 48.9979 4.61353 47.5675 4.61353C46.1506 4.61353 44.7472 4.95177 43.6676 5.54706C43.5732 5.22236 43.4247 4.81648 43.2493 4.39706L43.6271 4.45118Z" fill="black"/>
<path d="M69.995 25.1917C72.4645 25.1917 73.3011 22.6888 73.3281 22.5806L73.598 21.7011L72.6669 21.7282C72.343 21.7282 69.6172 21.6606 67.674 19.2117L67.4851 18.9817C66.2166 17.3853 65.0156 15.8564 62.8835 15.1664C62.951 15.1123 63.032 15.0447 63.1534 14.9635C64.2869 14.2194 64.9482 13.3129 65.1236 12.2576C65.3665 10.6747 64.3544 9.41643 64.3139 9.36232L63.6257 8.50996L63.1939 9.51114C63.1669 9.57879 62.4382 11.1888 60.9134 11.1888H60.8054C60.6974 11.1888 60.603 11.1753 60.5085 11.1753C60.5625 10.4582 60.4276 9.34879 59.4155 8.30702C58.201 7.04879 56.7031 6.85938 55.9205 6.85938C55.5021 6.85938 55.2188 6.91349 55.1918 6.91349L54.1527 7.11643L54.8004 7.95526C55.2997 8.60467 55.7585 9.80879 55.2188 10.4311C55.0433 10.6341 54.6925 10.7964 54.3551 10.9588C53.6534 11.2835 52.6953 11.73 52.6953 12.8664C52.6953 13.597 53.2756 14.3682 54.3146 15.0311C57.3913 16.9658 59.294 18.9817 60.1172 21.2006C61.3857 24.6235 59.7259 26.5717 58.12 27.6L57.4048 28.06L58.0391 28.6417C58.12 28.7094 58.9027 29.3994 60.0362 29.4941C60.2521 29.5076 60.4545 29.5211 60.657 29.5211C61.3857 29.5211 62.0064 29.4129 62.5192 29.2505C62.3842 29.4941 62.2088 29.7376 61.9929 29.9947C61.0753 31.05 59.9418 31.537 58.3089 31.5641L57.7017 31.5776L57.6612 32.1864C57.6612 32.3082 57.6072 33.4311 58.6733 34.3782C58.8352 34.527 59.0376 34.6488 59.2401 34.7435C58.5249 35.3929 57.7827 36.5158 57.6477 38.4506C57.5263 40.0606 57.1349 40.6558 57.1349 40.6694L56.4602 41.6841L57.6612 41.6976C59.6584 41.6976 61.1832 41.1429 62.2493 40.0606C62.87 39.4111 63.2344 38.6941 63.4503 38.0447C63.8011 38.3423 64.2464 38.5994 64.8267 38.7347C65.0426 38.7888 65.2855 38.8158 65.5554 38.8158C66.1222 38.8158 66.5945 38.6941 66.6484 38.6805L67.4176 38.4776L67.0803 37.7606C67.0533 37.7064 66.4055 36.2588 67.1072 34.2158C67.4041 33.3229 67.5526 32.5382 67.6335 31.9158C68.1193 32.1729 68.767 32.3758 69.6037 32.3758C71.5064 32.3758 72.3565 30.9553 72.397 30.9011L72.7749 30.2517L72.0732 29.9676C69.7926 29.0205 69.2933 26.5041 69.1989 25.1376C69.4013 25.1782 69.6442 25.2188 69.9006 25.2188H69.995V25.1917ZM71.7898 30.5494C71.7898 30.5494 71.1286 31.6994 69.5902 31.6994H69.5767C67.7415 31.6858 66.9993 30.5764 66.9993 30.5764C66.9993 30.5764 67.1072 32.0241 66.446 33.9858C65.6499 36.34 66.446 38.0311 66.446 38.0311C66.446 38.0311 66.0142 38.1394 65.5284 38.1394C65.3395 38.1394 65.1371 38.1258 64.9616 38.0717C63.4233 37.7064 63.0455 36.3264 63.0455 36.3264C63.0455 36.3264 63.1939 41.0211 57.6882 41.0211H57.6477C57.6477 41.0211 58.1335 40.3717 58.2685 38.4776C58.5249 34.987 60.8999 34.5135 60.8999 34.5135C60.8999 34.5135 59.6314 34.3511 59.0916 33.8641C58.2415 33.0929 58.2955 32.2 58.2955 32.2C60.2251 32.1729 61.4936 31.5235 62.4517 30.4006C63.4908 29.1964 63.6662 27.8976 63.6662 27.8976C63.6662 27.8976 62.6271 28.8311 60.6165 28.8311C60.4411 28.8311 60.2521 28.8176 60.0632 28.8041C59.1186 28.7229 58.4574 28.1276 58.4574 28.1276C60.549 26.7882 62.0199 24.4611 60.7109 20.9435C59.6719 18.1294 57.1619 16.0323 54.6385 14.4494C53.8018 13.9217 53.3295 13.3535 53.3295 12.8529C53.3295 11.6758 55.0028 11.6353 55.6911 10.8506C56.4872 9.93055 55.9879 8.44232 55.2997 7.54937C55.2997 7.54937 55.5291 7.50879 55.8935 7.50879C56.6222 7.50879 57.8771 7.68467 58.9027 8.75349C60.2791 10.1741 59.6989 11.7029 59.6989 11.7029L60.0632 11.7706C60.2791 11.8111 60.495 11.8247 60.7244 11.8382C60.7784 11.8382 60.8189 11.8382 60.8729 11.8382C62.87 11.8382 63.7607 9.7682 63.7607 9.7682C63.7607 9.7682 65.8793 12.3658 62.7621 14.3953C62.2223 14.747 61.9929 15.0717 62.0469 15.41L62.1009 15.64L62.3168 15.6806C64.5838 16.2894 65.7173 17.8453 67.1207 19.6041C69.2393 22.2964 72.2486 22.3776 72.6129 22.3776H72.6534C72.6534 22.3776 71.9652 24.5288 69.9545 24.5288C69.9276 24.5288 69.8871 24.5288 69.8601 24.5288C68.929 24.5017 68.4567 24.1364 68.4567 24.1364C68.4567 24.1364 68.1328 29.0341 71.7898 30.5494Z" fill="black"/>
<path d="M65.6499 15.4236C66.5675 15.9106 67.1073 16.5736 67.5796 17.1553C68.0384 17.7236 68.4837 18.2648 69.1719 18.4948C69.4148 18.5759 69.6712 18.6165 69.9411 18.6165C70.9666 18.6165 72.0057 17.9942 72.397 17.1148L72.7884 16.2353L71.8303 16.1812C71.7898 16.1812 70.5483 16.073 69.1854 14.6795C68.6186 14.1112 67.9439 13.8 67.2017 13.8C66.3111 13.8 65.6364 14.2465 65.5689 14.2871L64.6918 14.9095L65.6499 15.4236ZM67.2152 14.463C67.674 14.463 68.2138 14.6118 68.7266 15.1395C70.3189 16.7495 71.8033 16.8442 71.8033 16.8442C71.5334 17.4395 70.7507 17.9671 69.9411 17.9671C69.7521 17.9671 69.5632 17.94 69.3743 17.8724C68.2813 17.5071 67.8899 15.87 65.9602 14.8418C65.9602 14.8418 66.5 14.463 67.2152 14.463Z" fill="black"/>
<path d="M66.0817 24.1229V24.15C65.5284 19.6853 62.2763 16.4653 58.6463 14.5035C58.3089 14.3277 57.9986 14.1788 57.7017 14.03C58.8082 14.2059 60.576 14.2194 61.9524 13.0424C61.9524 13.0424 59.8608 14.5847 55.5561 13.1777C56.7436 13.9488 59.0511 15.0312 61.1562 16.79C66.4325 21.4035 62.6541 25.9088 62.6541 25.9088C64.5433 23.9335 64.6243 21.8229 64.071 20.1047C65.0696 21.7553 65.7038 23.7712 65.6094 26.2471C65.4609 29.7918 63.5042 32.8629 61.4531 35.3253C60.468 36.5159 60.2386 37.9906 60.2386 37.9906C60.2386 37.9906 60.6434 36.6918 61.777 35.3659C63.99 32.7953 65.8657 30.1165 66.1221 26.2606C66.3515 26.9641 67.2961 28.8988 68.7805 29.6294C68.794 29.6294 66.9183 28.5065 66.0817 24.1229Z" fill="black"/>
<path d="M37.9865 40.6424C37.9865 40.6424 37.6087 40.0336 37.4737 38.4236C37.3253 36.4889 36.5966 35.3659 35.8679 34.7165C36.0838 34.6218 36.2727 34.5 36.4347 34.3512C37.5007 33.4042 37.4467 32.2812 37.4467 32.1595L37.4063 31.5506L36.799 31.5371C35.1797 31.51 34.0462 31.023 33.1286 29.9677C32.9126 29.7242 32.7372 29.4671 32.6023 29.2236C33.1151 29.3724 33.7223 29.4942 34.4645 29.4942C34.6669 29.4942 34.8693 29.4806 35.0852 29.4671C36.2322 29.3724 37.0014 28.6959 37.0824 28.6148L37.7166 28.033L37.0014 27.573C35.3821 26.5448 33.7358 24.5965 35.0043 21.1736C35.8274 18.9548 37.7166 16.9389 40.8068 15.0042C41.8459 14.3548 42.4126 13.5836 42.4126 12.8395C42.4126 11.703 41.4545 11.2565 40.7528 10.9318C40.4155 10.7695 40.0511 10.6071 39.8892 10.4042C39.3494 9.78181 39.8082 8.57769 40.3075 7.92828L40.9553 7.08946L39.9162 6.88652C39.8892 6.88652 39.6058 6.8324 39.1875 6.8324C38.4048 6.8324 36.9205 7.02181 35.706 8.28004C34.6939 9.32181 34.559 10.4312 34.6129 11.1483C34.5185 11.1618 34.4105 11.1618 34.3161 11.1618H34.2081C32.6832 11.1618 31.9546 9.55181 31.9276 9.48416L31.4957 8.48299L30.794 9.33534C30.7536 9.38946 29.7415 10.6477 29.9844 12.2306C30.1463 13.2859 30.8075 14.1924 31.9546 14.9365C32.076 15.0177 32.1705 15.0853 32.2244 15.1395C30.0788 15.8295 28.8913 17.3583 27.6229 18.9548L27.434 19.1848C25.5043 21.6336 22.7649 21.7012 22.4411 21.7012L21.5099 21.6742L21.7933 22.5536C21.8203 22.6618 22.657 25.1648 25.1264 25.1648H25.2479C25.5043 25.1512 25.7472 25.1242 25.9496 25.0836C25.8416 26.45 25.3423 28.98 23.0618 29.9136L22.3736 30.1977L22.7514 30.8471C22.7919 30.9012 23.6286 32.3218 25.5448 32.3218C26.3814 32.3218 27.0291 32.1053 27.5149 31.8618C27.5824 32.4842 27.7443 33.2689 28.0412 34.1618C28.7294 36.2183 28.0952 37.6524 28.0682 37.7065L27.7308 38.4236L28.5 38.6265C28.554 38.64 29.0263 38.7618 29.593 38.7618C29.8629 38.7618 30.1058 38.7348 30.3217 38.6806C30.902 38.5453 31.3608 38.2883 31.6982 37.9906C31.9141 38.64 32.2649 39.3571 32.8857 40.0065C33.9517 41.0889 35.4766 41.6436 37.4737 41.6436L38.6882 41.63L37.9865 40.6424ZM37.4063 41.0212C31.9141 41.0212 32.049 36.3265 32.049 36.3265C32.049 36.3265 31.6712 37.72 30.1328 38.0718C29.9439 38.1259 29.755 38.1395 29.5661 38.1395C29.0668 38.1395 28.6484 38.0312 28.6484 38.0312C28.6484 38.0312 29.4446 36.34 28.6484 33.9859C27.9872 32.0242 28.0952 30.5765 28.0952 30.5765C28.0952 30.5765 27.353 31.6859 25.5178 31.6995H25.5043C23.9794 31.6995 23.3047 30.5495 23.3047 30.5495C26.9617 29.0342 26.6108 24.15 26.6108 24.15C26.6108 24.15 26.1385 24.5018 25.2074 24.5424C25.1804 24.5424 25.1399 24.5424 25.1129 24.5424C23.0888 24.5424 22.4141 22.3912 22.4141 22.3912H22.4546C22.8324 22.3912 25.8281 22.31 27.9467 19.6177C29.3367 17.8453 30.4837 16.303 32.7507 15.6942L32.9801 15.6536L33.0341 15.4236C33.1016 15.0853 32.8587 14.7606 32.3189 14.4089C29.2017 12.3795 31.3203 9.78181 31.3203 9.78181C31.3203 9.78181 32.2109 11.8518 34.2081 11.8518C34.2621 11.8518 34.3026 11.8518 34.3565 11.8518C34.5859 11.8383 34.8019 11.8248 35.0178 11.7842L35.3821 11.7165C35.3821 11.7165 34.8153 10.1742 36.1918 8.7671C37.2308 7.69828 38.4858 7.5224 39.201 7.5224C39.5653 7.5224 39.7947 7.57652 39.7947 7.57652C39.1065 8.46946 38.6073 9.95769 39.4034 10.8777C40.0916 11.6624 41.7649 11.703 41.7649 12.88C41.7649 13.3806 41.2926 13.9624 40.456 14.4765C37.9325 16.0595 35.4226 18.1565 34.3835 20.9706C33.0881 24.4883 34.5455 26.8153 36.6506 28.1548C36.6506 28.1548 35.9894 28.7636 35.0448 28.8312C34.8558 28.8448 34.6669 28.8583 34.478 28.8583C32.4673 28.8583 31.4283 27.9248 31.4283 27.9248C31.4283 27.9248 31.6037 29.2236 32.6428 30.4277C33.6144 31.5371 34.8828 32.2 36.8125 32.2271C36.8125 32.2271 36.88 33.12 36.0163 33.8912C35.4631 34.3783 34.2081 34.5406 34.2081 34.5406C34.2081 34.5406 36.5831 35.0142 36.8395 38.5048C36.9879 40.3853 37.4602 41.0483 37.4602 41.0483H37.4063V41.0212Z" fill="black"/>
<path d="M25.1669 18.6165C25.4368 18.6165 25.6932 18.5759 25.9361 18.4948C26.6243 18.2648 27.0696 17.7236 27.5284 17.1553C28.0007 16.5736 28.5405 15.9242 29.4581 15.4236L30.4027 14.9095L29.5256 14.2871C29.4581 14.2465 28.7834 13.8 27.8928 13.8C27.1506 13.8 26.4759 14.0977 25.9091 14.6659C24.5462 16.0595 23.3182 16.1677 23.2642 16.1677L22.3061 16.2218L22.6975 17.1012C23.1023 17.9806 24.1279 18.6165 25.1669 18.6165ZM26.3814 15.1395C26.8942 14.6118 27.434 14.463 27.8928 14.463C28.608 14.463 29.1477 14.8418 29.1477 14.8418C27.2181 15.87 26.8267 17.5071 25.7337 17.8724C25.5583 17.94 25.3693 17.9671 25.1804 17.9671C24.3708 17.9671 23.5881 17.453 23.3182 16.8442C23.3047 16.8442 24.7891 16.7495 26.3814 15.1395Z" fill="black"/>
<path d="M29.4851 26.2471C29.3771 23.7712 30.0249 21.7688 31.0235 20.1047C30.4702 21.8229 30.5377 23.9335 32.4404 25.9088C32.4404 25.9088 28.6619 21.4035 33.9382 16.79C36.0433 15.0312 38.3509 13.9488 39.5384 13.1777C35.2472 14.5712 33.1556 13.0424 33.1556 13.0424C34.5185 14.2329 36.2997 14.2059 37.4063 14.03C37.1094 14.1788 36.799 14.3277 36.4617 14.5035C32.8317 16.4653 29.5796 19.6853 29.0263 24.15V24.1094C28.1762 28.5065 26.3139 29.6294 26.3139 29.6294C27.7983 28.8988 28.7429 26.9506 28.9723 26.2606C29.2152 30.1165 31.1044 32.7818 33.3175 35.3659C34.4645 36.7053 34.8693 37.9906 34.8693 37.9906C34.8693 37.9906 34.6399 36.5159 33.6548 35.3253C31.5767 32.8629 29.62 29.7918 29.4851 26.2471Z" fill="black"/>
<path d="M46.3125 17.2095V18.0889C46.6229 17.7236 47.2166 17.7912 47.2166 17.7912V19.063C47.2166 19.063 47.1896 19.6854 46.9737 19.9559H48.2557C48.0398 19.6854 48.0128 19.063 48.0128 19.063V17.7912C48.0128 17.7912 48.6065 17.7101 48.9034 18.0889V17.2095H46.3125Z" fill="black"/>
<path d="M45.7592 11.96C46.1641 12.2847 46.407 12.3389 46.407 12.3389L46.5689 12.4065V11.5677L45.071 10.9589C45.071 10.9589 45.0845 11.4459 45.7592 11.96Z" fill="black"/>
<path d="M49.3352 11.96C50.0099 11.4324 50.0234 10.9453 50.0234 10.9453L48.5121 11.5812V12.42L48.674 12.3524C48.701 12.3388 48.9304 12.2847 49.3352 11.96Z" fill="black"/>
<path d="M52.0476 8.56412C52.0476 7.30588 49.9155 6.15588 47.554 6.15588H47.5405C45.179 6.15588 43.0469 7.29235 43.0469 8.56412L43.1009 8.8753L44.0455 14.26L43.1009 14.8012L40.6449 16.2353H40.6584C40.6584 16.2353 40.1051 16.5194 39.8487 16.6953C38.9176 17.3447 38.7152 18.2782 39.255 18.6706C39.3899 17.8994 39.9972 17.1012 41.1442 17.1012C41.9673 17.1012 42.5881 17.5206 43.1009 18.1565C43.2358 18.3188 43.3573 18.4812 43.4652 18.6706C43.6136 18.9006 43.7486 19.1035 43.897 19.3065H37.5952C38.054 20.24 38.4993 21.2141 38.4993 22.2829V36.1776C38.4993 39.5465 41.1037 41.1429 43.9105 41.1429C46.0831 41.1429 46.38 41.0482 47.5675 42.2388C48.755 41.0482 49.0518 41.1429 51.2244 41.1429C54.0312 41.1429 56.6356 39.5329 56.6356 36.1776V22.2829C56.6356 21.2141 57.081 20.2265 57.5398 19.3065H51.2379C51.3729 19.1171 51.5213 18.9006 51.6562 18.6706C51.7777 18.4812 51.8991 18.3188 52.0206 18.1565C52.5334 17.5206 53.1541 17.1012 53.9773 17.1012C55.1108 17.1012 55.718 17.8994 55.853 18.6706C56.3927 18.2782 56.2038 17.3447 55.2592 16.6953C55.0028 16.5194 54.4631 16.2353 54.4631 16.2353H54.4766L52.0341 14.8147L51.0895 14.2735L52.0341 8.88882L52.0476 8.56412ZM43.978 9.2L47.2841 10.3229V15.5047L44.8416 14.2194L43.978 9.2ZM44.6527 20.1994C45.1925 20.7406 45.7322 21.0788 46.2315 21.2547C46.1641 21.5118 46.0831 22.0529 46.326 22.5806C46.5284 23.0135 46.8928 23.3382 47.4055 23.5682C47.4595 24.0959 47.7969 24.9076 48.7415 25.2594C48.3367 25.6653 47.9318 26.0576 47.7699 26.22L43.978 26.1659C43.897 26.1253 43.7486 26.0306 43.6811 25.8953C43.6676 25.8818 43.6541 25.8682 43.6541 25.8412L44.2749 25.9359C44.2884 25.9359 44.3019 25.9359 44.3153 25.9359C44.4368 25.9359 44.5448 25.8547 44.5582 25.7329C44.5852 25.5976 44.4908 25.4759 44.3558 25.4488L43.6001 25.3271L44.4503 22.4182L43.6541 20.7406L42.3722 22.0935L42.2912 25.1241L41.4276 24.9888C41.2926 24.9618 41.1712 25.0565 41.1442 25.1918C41.1172 25.3271 41.2117 25.4488 41.3466 25.4759L41.7109 25.53C41.576 25.5976 41.495 25.6653 41.4815 25.6653L41.4141 25.7194L41.3871 25.8141C41.1712 26.6665 41.657 27.4647 42.1698 27.83L42.1563 27.9382C42.1293 28.0735 42.1698 28.1953 42.2372 28.3035C42.3182 28.4118 42.4261 28.4794 42.5611 28.5065C42.5881 28.5065 42.6151 28.5065 42.6421 28.5065C42.858 28.5065 43.0604 28.3576 43.1144 28.1276C43.3033 28.1547 43.4787 28.1547 43.6001 28.1547H43.6946L48.674 29.0476L48.755 28.9935C49.1463 28.7229 50.6577 27.6135 51.157 27.2618C51.2919 27.3835 51.4403 27.4782 51.6293 27.5729C51.4673 28.1141 51.4538 28.9394 52.0881 29.5888H39.4034V22.2965C39.4034 21.5929 39.201 20.8759 38.9446 20.2265L44.6527 20.1994ZM50.8061 26.8829C50.3068 27.2482 49.0114 28.1953 48.5391 28.52L44.0185 27.7082C44.032 27.6676 44.0455 27.6271 44.0455 27.5865C44.0994 27.3565 44.1669 27.0318 44.1669 26.6529L47.9723 26.7206L48.0398 26.6529C48.0938 26.5988 49.3082 25.4353 49.9155 24.7724C50.0639 24.9482 50.2393 25.1241 50.4822 25.2865C50.4148 25.7194 50.4418 26.3418 50.8061 26.8829ZM43.2358 26.0982C43.3438 26.3147 43.5327 26.4771 43.6676 26.5582C43.6676 26.7612 43.6406 27.0994 43.5867 27.3835C43.5732 27.4512 43.5597 27.5053 43.5462 27.5729C43.5327 27.6135 43.5192 27.6406 43.5192 27.6676C43.3168 27.6676 42.9254 27.6406 42.6016 27.5324C42.2507 27.3971 41.7109 26.7476 41.8324 26.0306C41.9808 25.9359 42.3452 25.7329 42.669 25.7329C42.9389 25.7194 43.1144 25.8412 43.2358 26.0982ZM42.7635 25.2053L42.8445 22.2965L43.4922 21.6065L43.897 22.4588L43.0874 25.2459L42.7635 25.2053ZM50.7656 40.25C50.5227 40.25 50.2933 40.25 50.0909 40.2635L50.6307 38.5994C50.7116 38.3694 50.2933 38.0718 50.1179 37.8147C50.3878 37.9771 51.076 38.3424 51.3999 38.4912C51.3594 38.5318 50.7656 40.25 50.7656 40.25ZM52.4659 38.3559L52.1151 40.1824C51.8857 40.2094 51.6562 40.2365 51.4134 40.2365L51.7777 38.4776C51.8857 37.95 50.4822 37.7876 49.7805 36.7729C49.4432 37.1518 48.7955 37.26 48.1612 37.26C47.581 37.26 46.9872 37.1653 46.6364 37.0976C46.5419 37.0841 46.4609 37.0706 46.38 37.0706C46.1776 37.0706 45.9886 37.1382 45.8537 37.3547L45.7457 37.5306L43.8296 37.0841L43.3572 37.8688C43.2898 37.9906 43.2898 38.0988 43.3977 38.2206L43.5327 38.3559C43.4382 38.64 43.0469 39.0594 43.0469 39.0594L42.7635 38.7076C42.5341 38.4506 42.5746 37.9906 42.8175 37.5712L43.5732 36.2859L45.1925 36.5159L44.9361 35.9476C44.5987 35.19 45.1115 34.2294 45.1655 33.6747C45.152 33.8371 44.9901 33.8776 44.8146 33.8776C44.6527 33.8776 44.4638 33.8506 44.3423 33.8506C44.2884 33.8506 44.2479 33.8506 44.2344 33.8776L43.7891 34.1482L43.4382 33.8371C43.3977 33.7829 43.3842 33.6341 43.4922 33.5394L44.3019 32.6465L43.3572 31.5371L44.6932 32.2L45.098 31.7129C45.206 31.8212 45.1655 32.1053 45.1655 32.1053C45.5838 32.1188 46.7443 32.7547 46.8118 34.2565C46.8118 34.2971 46.8118 34.3512 46.8118 34.4053C46.8118 34.4053 46.8253 34.4188 46.8388 34.4594C46.9197 34.5676 47.1492 34.8653 47.4325 34.8924L49.2678 35.0682H49.2813C49.4837 35.0682 49.8885 34.8382 50.4013 34.8382C50.6847 34.8382 50.995 34.9059 51.3324 35.1224C51.3324 35.1224 51.4943 34.9871 51.7777 34.9735C51.8047 34.9735 51.8182 34.9735 51.8452 34.9735C52.6683 34.9735 53.0057 35.7176 53.451 36.3265C53.7883 36.8 54.2337 37.49 54.2337 37.49C54.0717 37.6794 53.9233 37.7876 53.6669 37.7876C53.5994 37.7876 53.5185 37.7876 53.424 37.7606C52.5334 37.5982 52.4119 35.7853 51.9126 35.65C51.8857 35.6365 51.8587 35.6365 51.8317 35.6365C51.6697 35.6365 51.6023 35.7853 51.6023 35.7853C51.8317 36.4076 51.6967 36.6512 51.9396 37.1247C52.1285 37.4765 52.4524 37.7741 52.5874 37.9094C52.5334 37.8824 52.5064 38.1529 52.4659 38.3559ZM42.5881 36.6241L42.669 36.8406C42.6151 37.03 41.9808 37.2871 41.9808 37.2871L41.8459 36.9894C41.6975 36.6647 41.7244 36.1371 42.1698 35.7988L43.2088 35.1765L44.3019 35.4065C44.2749 35.7582 44.4908 36.0153 44.4908 36.0153L43.3438 35.7988L42.6421 36.2588C42.5341 36.34 42.5206 36.4888 42.5881 36.6241ZM52.6278 40.0876L52.9382 38.4506C52.9517 38.3559 52.9787 38.2476 52.9922 38.1529C53.0866 38.1935 53.1811 38.2206 53.2756 38.2341C53.397 38.2612 53.505 38.2612 53.5994 38.2612C54.0852 38.2612 54.3551 38.0041 54.544 37.7876L54.7869 37.5035L54.5845 37.1924C54.571 37.1653 54.1257 36.4753 53.7883 36.0018C53.7209 35.9071 53.6534 35.8124 53.5994 35.7176C53.2216 35.1494 52.7358 34.4324 51.7777 34.4324H51.6967C51.5348 34.4459 51.3999 34.4729 51.2919 34.5135C50.995 34.3782 50.6847 34.2971 50.3608 34.2971C49.9695 34.2971 49.6321 34.4053 49.4027 34.4865C49.3352 34.5 49.2812 34.5271 49.2408 34.5271L47.446 34.3512C47.419 34.3512 47.3516 34.3106 47.2571 34.2024V34.1888L47.6484 34.0265C47.5405 32.7412 46.299 31.9429 45.6108 31.6724C45.5838 31.5371 45.5163 31.4153 45.4084 31.3071L45.0171 30.9418L44.6797 31.3476L44.5178 31.5506L42.0078 30.5224L43.6406 32.5653L42.9929 33.5394C42.75 33.7829 43.0199 34.04 43.0199 34.04L43.6811 34.5L44.3693 34.2429C44.3963 34.2429 44.4098 34.2429 44.4368 34.2565C44.4098 34.3647 44.3558 34.7706 44.3288 34.8924L43.1278 34.6624L41.8729 35.3659C41.2251 35.8394 41.1307 36.6241 41.3736 37.1653L41.5085 37.4765L41.7109 37.9094L42.1563 37.7335C42.1563 37.7335 42.1698 37.7335 42.1698 37.72C42.0078 38.2206 42.0753 38.7076 42.3587 39.0188L42.6286 39.3571L42.9794 39.8035L43.3707 39.3841C43.4922 39.2759 43.8565 38.8565 43.978 38.4912L44.059 38.2206L43.87 38.0176L43.843 37.9771L44.059 37.6253L45.6243 37.9906L45.9751 38.0718L46.1641 37.7606L46.272 37.5982C46.2855 37.5576 46.299 37.5576 46.3665 37.5576C46.4205 37.5576 46.4744 37.5576 46.5419 37.5712C47.1357 37.6794 47.6754 37.7335 48.1612 37.7335C48.6335 37.7335 48.9034 37.72 49.2408 37.5982C49.2408 37.5982 50.0774 38.5453 50.1044 38.5859L49.5916 40.1688L49.5646 40.2635C48.593 40.3447 48.1207 40.5476 47.5405 41.1294C46.7038 40.3041 46.1236 40.2229 43.8835 40.2229C41.1982 40.2229 39.3899 38.6535 39.3899 36.1506V30.0353H55.7045V36.1506C55.7045 38.2071 54.517 39.6276 52.6278 40.0876ZM56.1633 20.1994C55.9205 20.8488 55.7045 21.5659 55.7045 22.2694V26.8288C54.7464 26.6665 54.6385 25.6382 54.625 25.5976L54.6115 25.3947L54.4091 25.3812C53.9908 25.3406 53.7209 25.1647 53.4915 24.9347C53.0192 24.4612 53.0192 23.7035 53.0192 23.7035C53.0192 23.7441 52.5064 24.4476 53.1001 25.2324C53.343 25.5571 53.7074 25.76 54.1797 25.8412C54.2876 26.4094 54.7195 27.2076 55.718 27.3429V29.5753H52.8977C51.6023 28.8582 52.142 27.5865 52.169 27.5324L52.277 27.2888L52.0341 27.1941C50.6307 26.68 51.0085 25.2729 51.0355 25.2188L51.0895 25.0159L50.9006 24.9212C49.7401 24.38 49.8885 22.9324 49.9155 22.8782C49.5511 23.1624 49.4297 23.7576 49.6726 24.3394C49.5376 24.4882 49.3622 24.6776 49.1598 24.8806C47.9588 24.5694 47.9183 23.4735 47.9183 23.4194V23.2435L47.7564 23.1759C47.2841 23 46.9602 22.7429 46.7983 22.3912C46.6229 21.9988 46.6768 21.5929 46.7308 21.4035C46.8658 21.4306 47.0007 21.4576 47.1357 21.4712C47.2706 21.4847 47.4055 21.4982 47.554 21.4982H47.5675C47.7024 21.4982 47.8509 21.4847 47.9858 21.4712C48.7415 21.4035 49.5781 21.0788 50.4553 20.2129L56.1633 20.1994ZM51.7642 15.5994L52.8842 16.2488H52.8977L53.1811 16.4112C52.5469 16.5871 52.0746 16.8982 51.6697 17.3041C51.6562 17.3176 51.6428 17.3312 51.6293 17.3447C51.5348 17.4394 51.4403 17.5476 51.3594 17.6559C51.3459 17.6694 51.3324 17.6965 51.3054 17.7235C51.2244 17.8318 51.1435 17.94 51.0625 18.0618C51.049 18.0888 51.0355 18.1024 51.022 18.1159C50.9276 18.2512 50.8466 18.4 50.7521 18.5488C49.956 19.9153 48.6875 20.7271 47.5675 20.7271C46.4474 20.7271 45.179 19.9153 44.3828 18.5488C44.3019 18.4 44.2074 18.2647 44.1129 18.1159C44.0994 18.0888 44.0724 18.0618 44.059 18.0347C43.978 17.9265 43.897 17.8047 43.8296 17.71C43.8026 17.6829 43.7891 17.6559 43.7756 17.6288C43.6946 17.5206 43.6001 17.4259 43.5057 17.3176C43.4922 17.3041 43.4787 17.2906 43.4517 17.2635C43.0469 16.8576 42.5611 16.5465 41.9403 16.3706L42.2237 16.2082H42.2372L43.3572 15.5588L44.5043 14.9094L47.5675 16.5735H47.581L50.6442 14.9094L51.7642 15.5994ZM50.2528 14.2194L47.8104 15.5047V10.3094L51.1165 9.18647L50.2528 14.2194ZM47.554 9.74118L43.924 8.30706C44.2344 7.57647 45.6513 6.96765 47.554 6.95412C49.4567 6.95412 50.8736 7.57647 51.1839 8.30706L47.554 9.74118Z" fill="black"/>
<path d="M6.53125 68.6077V62.1947H10.3097V59.8677H0V62.1947H3.77841V68.6077H6.53125ZM14.0611 64.9547V59.8677H11.4027V68.6212H13.7507L18.3388 63.5341V68.6212H20.9972V59.8677H18.6491L14.0611 64.9547ZM29.9304 65.3606V68.6077H32.5888V59.8541H29.9304V63.0471H25.6527V59.8541H22.9943V68.6077H25.6527V65.3606H29.9304ZM39.9972 68.6077C40.6044 68.6077 41.1577 68.5535 41.6704 68.4047C43.0469 68.0124 43.9375 66.903 43.9375 65.3741C43.9375 63.9265 43.1683 62.9118 41.9403 62.4518C41.3601 62.2353 40.6584 62.2082 39.9972 62.2082H37.2713V59.8541H34.6129V68.6077H39.9972ZM39.5383 64.2782C39.9027 64.2782 40.2535 64.2782 40.5639 64.3865C41.0092 64.5353 41.2656 64.9006 41.2656 65.3471C41.2656 65.8071 41.0092 66.1859 40.5909 66.3753C40.294 66.4971 40.0107 66.4971 39.5518 66.4971H37.2848V64.2782H39.5383ZM48.701 65.3065L51.8722 68.6212H55.4077L50.995 64.0618L55.2457 59.8677H51.9126L48.701 63.1553H47.9723V59.8677H45.3139V68.6212H47.9723V65.3065H48.701ZM60.8864 59.6241C57.3104 59.6241 55.1648 61.64 55.1648 64.2512C55.1648 66.8624 57.3104 68.8782 60.8864 68.8782C64.4489 68.8782 66.5945 66.8624 66.5945 64.2512C66.581 61.6535 64.4354 59.6241 60.8864 59.6241ZM60.8864 66.7541C59.1051 66.7541 57.9716 65.6853 57.9716 64.2512C57.9716 62.8171 59.1051 61.7753 60.8864 61.7753C62.6406 61.7753 63.8011 62.8171 63.8011 64.2512C63.8011 65.6853 62.6406 66.7541 60.8864 66.7541ZM75.4332 59.3671H72.7748V60.2465C69.4418 60.3141 67.4446 61.7347 67.4446 64.2377C67.4446 66.7406 69.4418 68.0394 72.7748 68.1206V69H75.4332V68.1206C78.7933 68.0529 80.7905 66.7406 80.7905 64.2377C80.7905 61.7347 78.7933 60.3277 75.4332 60.2465V59.3671ZM72.7748 66.24C70.9396 66.1724 70.13 65.4147 70.13 64.2377C70.13 63.0606 70.9396 62.2218 72.7748 62.1406V66.24ZM75.4332 62.1406C77.282 62.2082 78.0781 63.0606 78.0781 64.2377C78.0781 65.4147 77.2954 66.1724 75.4332 66.24V62.1406ZM89.6293 59.3671H86.9709V60.2465C83.6378 60.3141 81.6406 61.7347 81.6406 64.2377C81.6406 66.7406 83.6378 68.0394 86.9709 68.1206V69H89.6293V68.1206C92.9893 68.0529 94.9865 66.7406 94.9865 64.2377C94.9865 61.7347 92.9893 60.3277 89.6293 60.2465V59.3671ZM86.9709 66.24C85.1357 66.1724 84.326 65.4147 84.326 64.2377C84.326 63.0606 85.1357 62.2218 86.9709 62.1406V66.24ZM89.6293 62.1406C91.478 62.2082 92.2741 63.0606 92.2741 64.2377C92.2741 65.4147 91.4915 66.1724 89.6293 66.24V62.1406Z" fill="black"/>
</svg>
