<svg width="89" height="73" viewBox="0 0 89 73" fill="none" xmlns="http://www.w3.org/2000/svg">
<path d="M22.0073 63.8447V60.2069C22.068 58.9942 21.2192 57.9635 20.0066 57.9029C19.8854 57.9029 19.8248 57.9029 19.7035 57.9029C18.9154 57.8422 18.1272 58.2667 17.6422 58.9336C17.2178 58.2667 16.4903 57.8422 15.7022 57.9029C15.0353 57.8422 14.3684 58.206 14.0046 58.7517V58.0241H12.7314V63.8447H14.0046V60.6313C13.8834 59.9037 14.429 59.1761 15.1565 59.1155C15.2171 59.1155 15.3384 59.1155 15.399 59.1155C16.2478 59.1155 16.6722 59.6612 16.6722 60.6313V63.8447H17.9453V60.6313C17.8241 59.9037 18.3697 59.1761 19.0972 59.1155C19.1579 59.1155 19.2791 59.1155 19.3398 59.1155C20.1885 59.1155 20.6129 59.6612 20.6129 60.6313V63.8447H22.0073ZM40.8622 58.0241H38.8009V56.2658H37.5278V58.0241H36.3759V59.1761H37.5278V61.8439C37.5278 63.1778 38.0734 63.966 39.5284 63.966C40.0741 63.966 40.6197 63.7841 41.1047 63.5416L40.741 62.4502C40.3772 62.6321 40.0135 62.7534 39.6497 62.7534C39.0434 62.7534 38.8009 62.3896 38.8009 61.7833V59.1761H40.8622V58.0241ZM51.6538 57.9029C51.0475 57.9029 50.4413 58.206 50.1381 58.7517V58.0241H48.865V63.8447H50.1381V60.5707C50.1381 59.6006 50.5625 59.0549 51.3507 59.0549C51.5932 59.0549 51.8963 59.1155 52.1388 59.1761L52.5026 57.9635C52.2601 57.9029 51.9569 57.9029 51.6538 57.9029ZM35.3452 58.5092C34.6177 58.0848 33.8295 57.9029 32.9808 57.9029C31.5257 57.9029 30.5557 58.6304 30.5557 59.7824C30.5557 60.7525 31.2832 61.2982 32.5564 61.4801L33.1626 61.5407C33.8295 61.662 34.1933 61.8439 34.1933 62.1471C34.1933 62.5715 33.7083 62.8746 32.8595 62.8746C32.1926 62.8746 31.4651 62.6927 30.9195 62.2683L30.3132 63.2384C31.0407 63.7235 31.9501 64.0266 32.7989 63.966C34.4964 63.966 35.4665 63.1778 35.4665 62.0864C35.4665 61.0557 34.6783 60.51 33.4658 60.3281L32.8595 60.2675C32.3139 60.2069 31.8895 60.0856 31.8895 59.7218C31.8895 59.2974 32.3139 59.0549 32.9808 59.0549C33.587 59.0549 34.2539 59.2368 34.7996 59.5399L35.3452 58.5092ZM69.1749 57.9029C68.5686 57.9029 67.9624 58.206 67.6592 58.7517V58.0241H66.3861V63.8447H67.6592V60.5707C67.6592 59.6006 68.0836 59.0549 68.8718 59.0549C69.1143 59.0549 69.4174 59.1155 69.6599 59.1761L70.0237 57.9635C69.7812 57.9029 69.478 57.9029 69.1749 57.9029ZM52.927 60.9344C52.8663 62.5715 54.1395 63.9054 55.7158 63.966C55.837 63.966 55.8977 63.966 56.0189 63.966C56.7464 64.0266 57.5346 63.7841 58.0802 63.2991L57.474 62.2683C57.0496 62.5715 56.5039 62.7534 55.9583 62.814C54.9276 62.7534 54.1395 61.8439 54.2001 60.8738C54.2607 59.9643 54.9883 59.1761 55.9583 59.1155C56.5039 59.1155 57.0496 59.2974 57.474 59.6612L58.0802 58.6304C57.474 58.1454 56.7464 57.9029 56.0189 57.9635C54.382 57.8422 53.0482 59.1155 52.927 60.6919C52.927 60.7525 52.927 60.8132 52.927 60.9344ZM64.6885 60.9344V58.0241H63.4154V58.7517C62.991 58.206 62.3241 57.9029 61.5966 57.9029C59.899 57.9635 58.6259 59.4187 58.6865 61.1163C58.7471 62.6927 60.0203 63.9054 61.5966 64.0266C62.3241 64.0873 62.991 63.7235 63.4154 63.1778V63.9054H64.6885V60.9344ZM60.0203 60.9344C60.0809 59.9643 60.9297 59.2368 61.8997 59.2974C62.8697 59.358 63.5973 60.2069 63.5366 61.177C63.476 62.0864 62.7485 62.814 61.7785 62.814C60.8084 62.814 60.0203 62.0864 60.0203 61.1163C60.0203 60.9951 60.0203 60.9951 60.0203 60.9344ZM44.803 57.9029C43.1054 57.9635 41.8323 59.4187 41.8929 61.1163C41.9535 62.6927 43.2873 63.966 44.8636 64.0266C45.7124 64.0873 46.5611 63.7841 47.228 63.2384L46.6218 62.329C46.1368 62.6927 45.5305 62.9353 44.9242 62.9353C44.0755 62.9959 43.2873 62.3896 43.166 61.5407H47.4705C47.4705 61.3589 47.4705 61.2376 47.4705 61.0557C47.5312 59.1155 46.4399 57.9029 44.803 57.9029ZM44.803 58.9942C45.5911 58.9942 46.258 59.6005 46.258 60.3888H43.2267C43.2873 59.6005 43.9542 58.9942 44.803 58.9942ZM76.3895 60.9344V55.7202H75.1769V58.7517C74.7526 58.206 74.0857 57.9029 73.3582 57.9029C71.6606 57.9635 70.3874 59.4187 70.4481 61.1163C70.5087 62.6927 71.7819 63.9054 73.3582 64.0266C74.0857 64.0873 74.7526 63.7235 75.1769 63.1778V63.9054H76.4501V60.9344H76.3895ZM78.5114 62.9959C78.572 62.9959 78.6933 62.9959 78.7539 63.0565C78.8145 63.0565 78.8752 63.1172 78.9358 63.1778C78.9964 63.2384 79.0571 63.2991 79.0571 63.3597C79.1177 63.4809 79.1177 63.6628 79.0571 63.7841C79.0571 63.8447 78.9964 63.9054 78.9358 63.966C78.8752 64.0266 78.8145 64.0873 78.7539 64.0873C78.6933 64.1479 78.6327 64.1479 78.5114 64.1479C78.2689 64.1479 78.087 64.0266 77.9658 63.7841C77.9052 63.6628 77.9052 63.4809 77.9658 63.3597C77.9658 63.2991 78.0264 63.2384 78.087 63.1778C78.1477 63.1172 78.2083 63.0565 78.2689 63.0565C78.3295 62.9959 78.4508 62.9959 78.5114 62.9959ZM78.5114 64.0266C78.572 64.0266 78.6327 64.0266 78.6933 63.966C78.7539 63.966 78.8146 63.9054 78.8146 63.8447C78.9964 63.6628 78.9964 63.3597 78.8146 63.2384C78.7539 63.1778 78.7539 63.1778 78.6933 63.1172C78.6327 63.1172 78.572 63.0565 78.5114 63.0565C78.4508 63.0565 78.3902 63.0565 78.3295 63.1172C78.2689 63.1172 78.2083 63.1778 78.2083 63.2384C78.0264 63.4203 78.0264 63.7235 78.2083 63.8447C78.2689 63.9054 78.2689 63.9054 78.3295 63.966C78.3902 63.966 78.4508 64.0266 78.5114 64.0266ZM78.5721 63.2991C78.6327 63.2991 78.6933 63.2991 78.7539 63.3597C78.8145 63.4203 78.8146 63.4203 78.8146 63.4809C78.8146 63.5416 78.8145 63.5416 78.7539 63.6022C78.6933 63.6628 78.6933 63.6628 78.6327 63.6628L78.8146 63.8447H78.6933L78.5114 63.6628H78.4508V63.8447H78.3295V63.2991H78.5721ZM78.3902 63.3597V63.4809H78.5114H78.5721V63.4203V63.3597H78.5114H78.3902ZM71.7212 60.9344C71.7819 59.9643 72.6306 59.2368 73.6007 59.2974C74.5707 59.358 75.2982 60.2069 75.2376 61.177C75.1769 62.0864 74.4494 62.814 73.4794 62.814C72.5094 62.814 71.7212 62.0864 71.7212 61.1163C71.7212 60.9951 71.7212 60.9951 71.7212 60.9344ZM29.1613 60.9344V58.0241H27.8881V58.7517C27.4637 58.206 26.7968 57.9029 26.0693 57.9029C24.3718 57.9635 23.0986 59.4187 23.1592 61.1163C23.2199 62.6927 24.493 63.9054 26.0693 64.0266C26.7968 64.0873 27.4637 63.7235 27.8881 63.1778V63.9054H29.1613V60.9344ZM24.4324 60.9344C24.493 59.9643 25.3418 59.2368 26.3118 59.2974C27.2819 59.358 28.0094 60.2069 27.9487 61.177C27.8881 62.0864 27.1606 62.814 26.1906 62.814C25.2205 62.814 24.4324 62.0864 24.4324 61.1163C24.4324 60.9951 24.4324 60.9951 24.4324 60.9344Z" fill="white"/>
<path d="M14.2154 17.8927L14.2163 17.8914C21.3732 8.7555 34.4735 7.05038 43.6932 13.8968C38.661 18.1191 35.6946 24.4337 35.694 31.041C35.6345 37.6596 38.6072 43.9205 43.6965 48.2468C35.9749 53.9692 25.4273 53.8434 17.83 47.8695L17.8293 47.8689C8.52862 40.5818 6.92972 27.1337 14.2154 17.8927Z" fill="#636466" stroke="url(#paint0_radial)" stroke-linecap="round" stroke-linejoin="round"/>
<path d="M48.5246 17.2059C47.5556 16.0215 46.4843 14.8742 45.3101 13.8943C54.5302 7.05027 67.6258 8.75766 74.7217 17.8899L74.7216 17.8899L74.7248 17.8939C77.6852 21.6243 79.2847 26.2437 79.2847 31.0432C79.2847 42.8327 69.7477 52.3705 57.9591 52.3705C53.3703 52.3705 48.946 50.908 45.3062 48.1915C54.5397 40.4804 56.0252 26.7804 48.5312 17.2141L48.5313 17.2141L48.5246 17.2059Z" fill="#C1C2C4" stroke="url(#paint1_radial)"/>
<defs>
<radialGradient id="paint0_radial" cx="0" cy="0" r="1" gradientUnits="userSpaceOnUse" gradientTransform="translate(26.8246 31.0786) rotate(90) scale(21.8677 17.6752)">
<stop stop-color="#C4C4C4"/>
<stop offset="0.130208" stop-color="#C4C4C4"/>
<stop offset="0.401042" stop-color="#929292"/>
<stop offset="0.604167" stop-color="#E1E1E1"/>
<stop offset="0.8125" stop-color="#B4B4B4"/>
<stop offset="1" stop-color="#9E9E9E"/>
</radialGradient>
<radialGradient id="paint1_radial" cx="0" cy="0" r="1" gradientUnits="userSpaceOnUse" gradientTransform="translate(62.1424 31.0407) rotate(90) scale(21.8298 17.6424)">
<stop stop-color="#C4C4C4"/>
<stop offset="0.130208" stop-color="#C4C4C4"/>
<stop offset="0.401042" stop-color="#929292"/>
<stop offset="0.604167" stop-color="#E1E1E1"/>
<stop offset="0.8125" stop-color="#B4B4B4"/>
<stop offset="1" stop-color="#9E9E9E"/>
</radialGradient>
</defs>
</svg>
