<svg width="128" height="20" viewBox="0 0 128 20" fill="none" xmlns="http://www.w3.org/2000/svg">
<g clip-path="url(#clip0)">
<path fill-rule="evenodd" clip-rule="evenodd" d="M0 12.1552C0 16.1207 2.28258 20.0862 7.28669 20.0862C12.2908 20.0862 14.5734 16.1207 14.5734 12.1552C14.5734 9.48276 13.6077 6.37931 12.1152 3.87931C10.6228 1.46552 8.77915 0 7.28669 0C5.79424 0 3.95062 1.46552 2.45816 3.87931C0.965706 6.37931 0 9.39655 0 12.1552ZM51.6214 5.86207H46.5295V1.03448H62.1564V5.86207H57.0645V18.9655H51.6214V5.86207ZM73.8326 5.86207H81.8217V1.03448H73.8326C66.4582 1.03448 62.5953 4.65517 62.5953 10C62.5953 15.3448 66.546 18.9655 73.8326 18.9655H81.8217V14.1379H73.8326C70.4088 14.1379 68.214 12.931 68.214 10C68.214 7.06896 70.4088 5.86207 73.8326 5.86207ZM32.5706 11.7241L35.4678 1.03448H45.1248V18.9655H39.6818V4.39655L35.6433 18.9655H29.4101L25.4595 4.39655V18.9655H20.0165V1.03448H29.6735L32.5706 11.7241ZM95.4293 6.2069H93.4979V7.93103H95.4293C95.9561 7.93103 96.2195 7.67241 96.2195 7.24138V6.98276C96.2195 6.46552 95.9561 6.2069 95.4293 6.2069ZM95.9561 10H90.952V1.03448H98.2387V3.18965H93.4979V4.39655H95.8683C97.8875 4.39655 98.8532 5.34483 98.8532 7.15517C98.941 8.87931 97.9753 10 95.9561 10ZM104.823 6.37931H102.804L103.857 3.10345L104.823 6.37931ZM108.774 10L105.964 1.03448H102.102L99.2922 10H101.663L102.189 8.27586H105.438L105.964 10H108.774ZM115.27 10V6.55172H112.373V10H109.739V1.03448H112.373V4.31034H115.27V1.03448H117.904V10H115.27ZM122.557 4.31034H122.118V1.03448H119.484V10H122.118V6.55172H122.469L124.927 10H128L124.664 5.34483L127.737 1.12069H124.927L122.557 4.31034Z" fill="#DB251D"/>
</g>
<defs>
<clipPath id="clip0">
<rect width="128" height="20" fill="white"/>
</clipPath>
</defs>
</svg>
