<svg width="85" height="73" viewBox="0 0 85 73" fill="none" xmlns="http://www.w3.org/2000/svg">
<path fill-rule="evenodd" clip-rule="evenodd" d="M45.2929 63.145H42.7429L41.1643 73H43.7143L44.4429 68.7417H47.9643L47.3572 73H49.9072L51.4857 63.145H48.9357L48.3286 66.795H44.6857L45.2929 63.145Z" fill="black"/>
<path fill-rule="evenodd" clip-rule="evenodd" d="M55.7357 63.145H52.9428L51.3643 73H54.0357L54.7643 68.7417L57.5571 73H60.9571L57.3143 67.7683L62.2928 63.145H58.8928L55.0071 67.16L55.7357 63.145Z" fill="black"/>
<path fill-rule="evenodd" clip-rule="evenodd" d="M37.0357 69.35H34.85L36.4285 66.1867L37.0357 69.35ZM37.4 71.2967L37.7643 73H40.6785L38.3714 63.145H35.4571L29.8714 73H32.6643L33.6357 71.2967H37.4Z" fill="black"/>
<path fill-rule="evenodd" clip-rule="evenodd" d="M29.6286 67.89C28.9 67.16 27.6857 67.0383 26.8357 67.0383H25.6214L25.9857 65.0917H29.9929L30.3571 63.145H23.6786L21.9786 73H25.8643C26.8357 73 28.4143 72.8783 29.5071 71.905C29.9929 71.4183 30.2357 70.81 30.3571 70.08C30.6 69.1067 30.2357 68.3767 29.6286 67.89ZM27.6857 69.9583C27.5643 70.5667 27.3214 70.9317 25.7429 70.9317H25.0143L25.3786 68.8633H26.1071C27.6857 68.8633 27.8071 69.35 27.6857 69.9583Z" fill="black"/>
<path fill-rule="evenodd" clip-rule="evenodd" d="M71.8857 5.71829C72.0072 4.98829 72.6143 4.62329 73.2214 4.62329C73.8286 4.62329 74.4357 4.98829 74.5572 5.71829H71.8857ZM76.7429 6.81329C76.7429 4.50163 75.4072 3.04163 73.1 3.04163C70.9143 3.04163 69.4572 4.37996 69.4572 6.56996C69.4572 8.88163 71.0357 10.0983 73.2214 10.0983C74.6786 10.0983 76.2572 9.36829 76.6214 7.78663H74.3143C74.1929 8.39496 73.8286 8.51663 73.3429 8.51663C72.3714 8.51663 71.8857 8.02996 71.8857 7.05663H76.8643V6.81329H76.7429Z" fill="black"/>
<path fill-rule="evenodd" clip-rule="evenodd" d="M11.6571 4.98838C12.6286 4.98838 13.1143 5.71838 13.1143 6.44838C13.1143 7.30004 12.5071 7.90838 11.6571 7.90838C10.6857 7.90838 10.2 7.30004 10.2 6.44838C10.0786 5.71838 10.6857 4.98838 11.6571 4.98838ZM15.4214 3.16338H13.1143V3.77171C12.6286 3.16338 11.7786 2.92004 11.05 2.92004C9.10714 2.92004 7.77142 4.62338 7.77142 6.44838C7.77142 8.39504 9.10714 9.97671 11.05 9.97671C11.7786 9.97671 12.6286 9.73338 12.9929 9.00338V9.73338H15.3V3.16338H15.4214Z" fill="black"/>
<path fill-rule="evenodd" clip-rule="evenodd" d="M49.6643 4.98838C50.6357 4.98838 51.1214 5.71838 51.1214 6.44838C51.1214 7.30004 50.5143 7.90838 49.6643 7.90838C48.6928 7.90838 48.2071 7.30004 48.2071 6.44838C48.2071 5.71838 48.6928 4.98838 49.6643 4.98838ZM53.4286 3.16338H51.1214V3.77171C50.6357 3.16338 49.7857 2.92004 49.0571 2.92004C47.1143 2.92004 45.7786 4.62338 45.7786 6.44838C45.7786 8.39504 47.1143 9.97671 49.0571 9.97671C49.7857 9.97671 50.6357 9.73338 51 9.00338V9.73338H53.3071V3.16338H53.4286Z" fill="black"/>
<path fill-rule="evenodd" clip-rule="evenodd" d="M0 9.855H2.55V6.44833H4.00714C6.67857 6.44833 7.40714 4.50167 7.40714 3.16333C7.40714 1.94667 6.67857 0 3.88571 0H0V9.855ZM2.67143 2.19H3.4C4.49286 2.19 4.73571 2.79833 4.73571 3.285C4.73571 3.65 4.61429 4.38 3.4 4.38H2.55L2.67143 2.19Z" fill="black"/>
<path fill-rule="evenodd" clip-rule="evenodd" d="M16.8786 3.16333V9.855H19.1857L21.4929 6.205V9.855H23.8V3.16333H21.6143L19.1857 6.81333V3.16333H16.8786Z" fill="black"/>
<path fill-rule="evenodd" clip-rule="evenodd" d="M20.5214 2.3117C21.6143 2.3117 22.7071 1.9467 23.1928 0.730037L21.6143 0.121704C21.3714 0.851704 20.7643 0.973371 20.5214 0.973371C20.2785 0.973371 19.55 0.973371 19.4285 0.121704L17.85 0.730037C18.3357 1.82504 19.4285 2.3117 20.5214 2.3117Z" fill="black"/>
<path fill-rule="evenodd" clip-rule="evenodd" d="M28.6572 12.775H30.9643V9.9767C32.4215 9.9767 34.7286 9.36837 34.7286 6.57004C34.7286 3.65004 32.4215 3.16337 30.9643 3.16337V0.121704H28.6572V3.0417C27.2 3.0417 24.8929 3.65004 24.8929 6.44837C24.8929 9.36837 27.2 9.9767 28.6572 9.85504V12.775ZM30.8429 4.74504C31.6929 4.74504 32.4215 5.35337 32.4215 6.57004C32.4215 7.90837 31.5715 8.39504 30.8429 8.39504V4.74504ZM28.7786 8.39504C28.05 8.39504 27.2 7.7867 27.2 6.57004C27.2 5.35337 28.05 4.74504 28.7786 4.74504V8.39504Z" fill="black"/>
<path fill-rule="evenodd" clip-rule="evenodd" d="M39.2214 12.775H41.5286V9.9767C42.9857 9.9767 45.2929 9.36837 45.2929 6.57004C45.2929 3.65004 42.9857 3.16337 41.5286 3.16337V0.121704H39.2214V3.0417C37.7643 3.0417 35.4572 3.65004 35.4572 6.44837C35.4572 9.36837 37.7643 9.9767 39.2214 9.85504V12.775ZM41.4072 4.74504C42.2572 4.74504 42.9857 5.35337 42.9857 6.57004C42.9857 7.90837 42.1357 8.39504 41.4072 8.39504V4.74504ZM39.3429 8.39504C38.4929 8.39504 37.7643 7.7867 37.7643 6.57004C37.7643 5.35337 38.6143 4.74504 39.3429 4.74504V8.39504Z" fill="black"/>
<path fill-rule="evenodd" clip-rule="evenodd" d="M54.8857 3.16333V9.855H57.1929L59.5 6.205V9.855H61.9286V3.16333H59.6215L57.3143 6.81333V3.16333H54.8857Z" fill="black"/>
<path fill-rule="evenodd" clip-rule="evenodd" d="M58.65 2.3117C59.7429 2.3117 60.8357 1.9467 61.3214 0.730037L59.7429 0.121704C59.5 0.851704 58.8929 0.973371 58.65 0.973371C58.4071 0.973371 57.6786 0.973371 57.5571 0.121704L55.9786 0.730037C56.4643 1.82504 57.5571 2.3117 58.65 2.3117Z" fill="black"/>
<path fill-rule="evenodd" clip-rule="evenodd" d="M63.6286 5.11004C64.1143 4.74504 64.8429 4.50171 65.3286 4.50171C65.5714 4.50171 66.3 4.50171 66.3 5.11004C66.3 5.71838 65.6929 5.71838 65.45 5.71838H64.2357V7.17838H65.45C65.8143 7.17838 66.4214 7.17838 66.4214 7.78671C66.4214 8.03004 66.3 8.39504 65.45 8.39504C64.6 8.39504 64.1143 8.15171 63.3857 7.78671L62.7786 9.36838C64.1143 10.0984 65.2071 10.22 65.8143 10.22C68.4857 10.22 68.85 8.63838 68.85 8.15171C68.85 7.42171 68.4857 6.69171 67.5143 6.44838C68.1214 6.20504 68.4857 5.59671 68.4857 4.86671C68.4857 3.28504 66.7857 2.92004 65.8143 2.92004C64.8428 2.92004 63.75 3.16338 63.0214 3.52838L63.6286 5.11004Z" fill="black"/>
<path fill-rule="evenodd" clip-rule="evenodd" d="M77.9572 9.855H80.2643V7.17833H82.45V9.855H84.7571V3.16333H82.45V5.475H80.2643V3.16333H77.9572V9.855Z" fill="black"/>
<path d="M60.9572 17.52H23.4357V55.115H60.9572V17.52Z" fill="#FAEB00"/>
<path d="M62.2929 56.4533H21.9786V16.1816H62.1714V56.4533H62.2929ZM60.9571 17.52H23.4357V55.115H60.9571V17.52Z" fill="black"/>
<path fill-rule="evenodd" clip-rule="evenodd" d="M42.1357 40.8801L30.6 52.4384L25.9857 47.8151L37.5215 36.2567L35.0929 33.8234V29.0784L33.3929 27.3751V31.6334L31.9357 33.0934L26.1072 27.2534L24.65 28.7134C24.65 27.6184 24.8929 24.4551 27.5643 21.7784C30.4786 18.9801 33.6357 20.1967 34.6072 21.2917L40.4357 27.1317L38.9786 28.5917L42.0143 31.6334L45.05 28.5917L43.5929 27.1317L49.4214 21.2917C50.5143 20.1967 53.6714 18.9801 56.4643 21.7784C59.1357 24.4551 59.3786 27.6184 59.3786 28.7134L58.1643 27.2534L52.3357 33.0934L50.7572 31.6334V27.4967L49.0572 29.2001V33.9451L46.6286 36.3784L58.1643 47.9367L53.55 52.5601L42.1357 40.8801Z" fill="black"/>
</svg>
