<svg width="127" height="20" viewBox="0 0 127 20" fill="none" xmlns="http://www.w3.org/2000/svg">
<path d="M17.4829 3.85144C17.9465 4.4602 18.339 5.12157 18.6524 5.82227L9.7623 12.4781L6.04688 10.1127V7.26692L9.7623 9.63237L17.4829 3.85144Z" fill="white"/>
<path d="M2.25472 9.91192C2.25472 9.78422 2.25778 9.65737 2.26391 9.53125L0.0122629 9.41919C0.004599 9.58264 2.72101e-06 9.74767 2.72101e-06 9.91422C-0.000955294 11.2156 0.251069 12.5042 0.741626 13.7063C1.23218 14.9085 1.9516 16.0005 2.85863 16.9196L4.45578 15.2982C3.75759 14.592 3.2037 13.7525 2.82597 12.8282C2.44823 11.9038 2.2541 10.9127 2.25472 9.91192Z" fill="white"/>
<path d="M9.75975 2.28939C9.88542 2.28939 10.0103 2.29406 10.1345 2.30029L10.2471 0.012659C10.0857 0.00487529 9.92322 0.000983914 9.75975 0.000983914C8.47784 -0.000603771 7.20832 0.254992 6.02399 0.753094C4.83966 1.2512 3.76387 1.982 2.8584 2.90353L4.45555 4.52565C5.15096 3.81631 5.97757 3.25356 6.88786 2.86978C7.79815 2.48601 8.77411 2.28876 9.75975 2.28939Z" fill="white"/>
<path d="M9.76014 17.5344C9.63447 17.5344 9.50952 17.5344 9.38464 17.5243L9.27197 19.8111C9.43393 19.8194 9.59667 19.8236 9.76014 19.8236C11.0415 19.825 12.3104 19.5692 13.4941 19.071C14.6778 18.5727 15.7529 17.8418 16.6577 16.9203L15.0636 15.299C14.3681 16.0079 13.5415 16.5703 12.6314 16.954C11.7213 17.3376 10.7455 17.5349 9.76014 17.5344Z" fill="white"/>
<path d="M13.9904 3.61944L15.888 2.19891C14.1536 0.772515 11.9886 -0.00395952 9.75684 1.5184e-05V2.2892C11.2681 2.2873 12.7442 2.75114 13.9904 3.61944Z" fill="white"/>
<path d="M19.5193 9.91174C19.5205 9.31622 19.4692 8.72174 19.366 8.1355L17.2654 9.7078C17.2654 9.77556 17.2654 9.84326 17.2654 9.91174C17.2659 10.9768 17.0461 12.03 16.6202 13.0033C16.1943 13.9765 15.5717 14.8479 14.793 15.5611L16.3081 17.2619C17.3206 16.3336 18.1296 15.1996 18.6828 13.9334C19.236 12.6672 19.521 11.297 19.5193 9.91174Z" fill="white"/>
<path d="M9.75996 17.5345C8.71125 17.5348 7.67414 17.3115 6.71578 16.879C5.75746 16.4464 4.89925 15.8142 4.19674 15.0234L2.52295 16.5615C3.43684 17.5899 4.55335 18.4117 5.80009 18.9737C7.04682 19.5357 8.39592 19.8253 9.75996 19.8236V17.5345Z" fill="white"/>
<path d="M4.72709 4.26239L3.21271 2.56165C2.19998 3.48975 1.39064 4.62369 0.837172 5.88992C0.283713 7.15614 -0.00150892 8.52639 6.00324e-06 9.91178H2.25472C2.25426 8.84681 2.47411 7.79354 2.90001 6.82032C3.32592 5.84714 3.94839 4.97566 4.72709 4.26239Z" fill="white"/>
<path d="M56.3214 5.66849L59.1139 3.60266H49.7681V16.0165H59.1139V13.9507H52.4348V10.7708H58.1324V8.70502H52.4348V5.66849H56.3214Z" fill="white"/>
<path d="M43.4797 8.43855H40.235V5.66756H45.4134L48.2042 3.59546H37.5698V16.0093H43.1365C46.2574 16.0093 48.0485 14.5889 48.0485 12.1118C48.0485 9.74207 46.4262 8.43855 43.4797 8.43855ZM43.0164 13.9428H40.235V10.5031H43.0164C44.7044 10.5031 45.4959 11.0795 45.4959 12.223C45.4959 13.3664 44.6538 13.9428 43.0164 13.9428Z" fill="white"/>
<path d="M65.9837 3.60083H60.8965V16.0146H63.5629V12.498H65.9837C69.2295 12.498 71.2373 10.783 71.2373 8.04278C71.2373 5.30262 69.2295 3.60083 65.9837 3.60083ZM65.9275 10.4306H63.5629V5.66823H65.9275C67.6347 5.66823 68.577 6.51442 68.577 8.05036C68.577 9.5863 67.6347 10.4306 65.9275 10.4306Z" fill="white"/>
<path d="M33.5683 13.085C32.8794 13.4596 32.1077 13.6535 31.3245 13.6489C28.9802 13.6489 27.2795 11.9684 27.2795 9.65423C27.2795 7.34005 28.9802 5.65586 31.3245 5.65586C32.1699 5.64144 32.9977 5.89886 33.6871 6.39053L35.5523 5.0112L35.4262 4.92121C34.3381 3.96065 32.8843 3.4519 31.2203 3.4519C29.4154 3.4519 27.7788 4.06166 26.6102 5.17099C26.0194 5.74217 25.5522 6.4295 25.2375 7.19011C24.9229 7.95072 24.7677 8.76823 24.7816 9.59175C24.7691 10.4236 24.9236 11.2495 25.2359 12.0201C25.5482 12.7907 26.0119 13.4902 26.5993 14.0768C27.7733 15.2302 29.4062 15.8657 31.1983 15.8657C33.0709 15.8657 34.7075 15.21 35.8157 14.0162L34.1461 12.7673L33.5683 13.085Z" fill="white"/>
</svg>
