<svg width="82" height="30" viewBox="0 0 82 30" fill="none" xmlns="http://www.w3.org/2000/svg">
<path fill-rule="evenodd" clip-rule="evenodd" d="M5.58186 0L4.18552 3.82484H23.5356L24.932 0H5.58186ZM3.48692 5.73639L2.09058 9.56035H21.4407L22.837 5.73639H3.48692ZM1.39634 11.4728L0 15.2967H19.3501L20.7456 11.4728H1.39634Z" fill="white"/>
<mask id="mask0" mask-type="alpha" maskUnits="userSpaceOnUse" x="29" y="5" width="53" height="25">
<path d="M29.0312 29.2395H81.9999V5.80995H29.0312V29.2395Z" fill="white"/>
</mask>
<g mask="url(#mask0)">
<path fill-rule="evenodd" clip-rule="evenodd" d="M41.137 16.7543V16.835C42.0213 17.1596 42.866 17.7272 43.3086 18.0917C44.6759 19.2268 45.2796 20.7264 45.2796 22.6721C45.2796 25.8754 43.5901 28.1856 40.8149 28.9154C39.9702 29.1584 39.0859 29.24 37.4361 29.24H29.0312V5.80995H36.4717C38.0001 5.80995 39.0454 5.89065 39.9702 6.13364C42.6654 6.86351 44.4349 8.72851 44.4349 11.687C44.4349 13.2682 43.8717 14.6064 42.9469 15.4977C42.5448 15.903 41.9817 16.3898 41.137 16.7543ZM33.6965 19.2268V25.3885H36.9143C37.8787 25.3885 38.7638 25.3078 39.4079 24.6994C40.0512 24.0911 40.3327 23.3213 40.3327 22.3077C40.3327 21.5379 40.1312 20.808 39.7291 20.2812C39.0454 19.4299 38.2007 19.2268 36.7533 19.2268H33.6965ZM33.656 15.1731H36.2702C37.0744 15.1731 37.4765 15.1731 37.8787 15.0516C38.9653 14.727 39.649 13.7551 39.649 12.4168C39.649 10.8365 38.9249 10.1466 37.8787 9.82286C37.4361 9.70136 36.9944 9.66057 36.1092 9.66057H33.656V15.1731ZM52.2775 29.24V9.74127H45.5611V5.80995H64.2231L62.8962 9.74127H56.9427V29.24H52.2775ZM65.6705 29.24V5.80995H80.7935L79.4666 9.74127H70.2962V14.9301H74.0367C77.053 14.9301 78.6219 15.66 79.7077 16.592C80.5524 17.3219 81.9999 18.943 81.9999 22.1463C81.9999 25.3078 80.512 27.0504 79.2651 27.9426C77.8177 28.9553 76.2893 29.24 73.192 29.24H65.6705ZM70.2962 25.3078H73.7956C75.1225 25.3078 75.9268 24.9832 76.4899 24.2534C76.7715 23.8889 77.1736 23.2397 77.1736 22.0239C77.1736 20.808 76.7715 19.9567 75.9672 19.3483C75.485 18.9838 74.8409 18.7816 73.7551 18.7816H70.2962V25.3078Z" fill="white"/>
</g>
</svg>
