<svg width="223" height="210" viewBox="0 0 223 210" fill="none" xmlns="http://www.w3.org/2000/svg">
<path d="M0 0.000473022H222.143L203.571 52.8576H0V0.000473022Z" fill="#1C232A"/>
<path d="M0 78.5717H193.929L175.357 131.429H0V78.5717Z" fill="#1C232A"/>
<path d="M0 157.143H164.286L145.714 210H0V157.143Z" fill="#1C232A"/>
<mask id="mask0" mask-type="alpha" maskUnits="userSpaceOnUse" x="0" y="0" width="223" height="211">
<path d="M0 0.000473022H222.143L203.571 52.8576H0V0.000473022Z" fill="#1C232A"/>
<path d="M0 78.5715H193.929L175.357 131.429H0V78.5715Z" fill="#1C232A"/>
<path d="M0 157.143H164.286L145.714 210H0V157.143Z" fill="#1C232A"/>
</mask>
<g mask="url(#mask0)">
<path fill-rule="evenodd" clip-rule="evenodd" d="M216.311 0.412302C216.734 0.0516077 217.388 0.290149 217.479 0.838134L218.431 6.5477C218.452 6.67346 218.439 6.80255 218.393 6.92155L211.368 25.1855L212.99 26.8071L212.485 27.3121L210.863 25.6905C210.664 25.4909 210.6 25.1925 210.702 24.9291L217.726 6.66513L216.775 0.955562L214.064 3.26919L214.857 7.61638C214.88 7.73881 214.87 7.86494 214.828 7.9823L208.502 25.9058L211.93 29.6765L211.402 30.157L207.974 26.3863C207.797 26.1918 207.741 25.916 207.829 25.6681L214.155 7.74457L213.436 3.80549L210.729 6.11627L211.629 9.72345C211.664 9.86273 211.655 10.0092 211.606 10.1439L205.646 26.269L210.862 32.1805L210.327 32.653L205.111 26.7416C204.937 26.5445 204.885 26.2679 204.976 26.0214L210.936 9.89627L210.122 6.63441L207.796 8.6207L208.75 11.4693C208.802 11.6242 208.799 11.7922 208.742 11.9453L203.148 26.9803L210.145 34.6765L209.616 35.157L202.62 27.4608C202.44 27.2631 202.385 26.9816 202.479 26.7312L208.073 11.6962L207.21 9.12073L205.287 10.7622L205.904 12.9151C205.948 13.0674 205.94 13.23 205.881 13.3772L200.294 27.3439L209.075 37.1789L208.542 37.6546L199.761 27.8197C199.581 27.6174 199.53 27.3304 199.631 27.0787L205.218 13.1119L204.69 11.2718L202.712 12.96C202.583 13.0704 202.419 13.131 202.249 13.131H185.595V12.4167H202.249L216.311 0.412302Z" fill="#424C51"/>
<path fill-rule="evenodd" clip-rule="evenodd" d="M188.745 15.7398C188.849 15.4599 189.116 15.2742 189.414 15.2742H201.509C202.007 15.2742 202.352 15.7706 202.179 16.2372L197.802 28.0229C197.698 28.3028 197.431 28.4885 197.132 28.4885H185.037C184.539 28.4885 184.194 27.9921 184.367 27.5255L188.745 15.7398ZM201.509 15.9885L189.414 15.9885L185.037 27.7742H197.132L201.509 15.9885Z" fill="#424C51"/>
<path fill-rule="evenodd" clip-rule="evenodd" d="M190.159 18.2244C190.267 17.9526 190.53 17.7742 190.823 17.7742H197.926C198.43 17.7742 198.776 18.2836 198.589 18.7526L196.031 25.1812C195.923 25.453 195.66 25.6313 195.367 25.6313H188.264C187.76 25.6313 187.414 25.122 187.601 24.6529L190.159 18.2244ZM197.926 18.4885L190.823 18.4885L188.264 24.917H195.367L197.926 18.4885Z" fill="#424C51"/>
<path fill-rule="evenodd" clip-rule="evenodd" d="M191.498 20.3806C191.602 20.1016 191.869 19.9167 192.167 19.9167H195.078C195.576 19.9167 195.921 20.4144 195.747 20.8813L194.945 23.0242C194.84 23.3032 194.574 23.4881 194.276 23.4881H191.365C190.866 23.4881 190.521 22.9903 190.696 22.5234L191.498 20.3806ZM195.078 20.6309L192.167 20.6309L191.365 22.7738L194.276 22.7738L195.078 20.6309Z" fill="#424C51"/>
<path fill-rule="evenodd" clip-rule="evenodd" d="M200.461 4.5596L205.718 0.0039978L206.186 0.543776L200.929 5.09938C200.799 5.21193 200.633 5.27389 200.461 5.27389H188.452V4.5596H200.461ZM209.758 0.542664L201.288 7.9543C201.158 8.06823 200.991 8.13103 200.818 8.13103H187.38V7.41674H200.818L209.288 0.00510937L209.758 0.542664ZM201.532 9.91674L212.86 0.00510937L213.33 0.542664L202.002 10.4543C201.872 10.5682 201.705 10.631 201.532 10.631H186.666V9.91674H201.532ZM202.655 0.502524L200.976 2.51688C200.84 2.67973 200.639 2.77389 200.427 2.77389H189.523V2.0596H192.837L193.47 0.160948L194.148 0.386825L193.59 2.0596H195.694L196.327 0.160948L197.005 0.386825L196.447 2.0596H200.427L202.106 0.0452495L202.655 0.502524Z" fill="#424C51"/>
<path fill-rule="evenodd" clip-rule="evenodd" d="M185.901 17.1209L184.601 15.4969L185.159 15.0507L186.458 16.6747C186.618 16.8747 186.659 17.145 186.565 17.3832L181.328 30.6493L181.933 32.7667L184.188 30.8062C184.318 30.6932 184.484 30.6309 184.657 30.6309H200.447L201.414 29.6641L201.919 30.1692L200.952 31.136C200.818 31.2699 200.636 31.3452 200.447 31.3452H184.657L176.543 38.4004L176.075 37.8614L181.441 33.1953L181.323 33.229L180.642 30.8455C180.598 30.6944 180.606 30.5333 180.664 30.3871L185.901 17.1209ZM202.232 33.1309L203.556 31.8069L204.061 32.312L202.737 33.636C202.604 33.7699 202.422 33.8452 202.232 33.8452H185.017L175.118 42.683L174.642 42.1502L184.541 33.3124C184.672 33.1955 184.841 33.1309 185.017 33.1309H202.232Z" fill="#424C51"/>
<path fill-rule="evenodd" clip-rule="evenodd" d="M206.181 34.8339L204.137 36.5368C204.009 36.6438 203.847 36.7024 203.68 36.7024L185.372 36.7024L173.688 46.9706L173.216 46.4341L184.901 36.1658C185.031 36.0513 185.199 35.9881 185.372 35.9881H203.68L205.723 34.2851L206.181 34.8339ZM205.104 38.8452L207.86 36.4336L208.33 36.9711L205.574 39.3828C205.444 39.4967 205.277 39.5595 205.104 39.5595H186.083L171.898 51.6173L171.435 51.0731L185.621 39.0153C185.75 38.9055 185.914 38.8452 186.083 38.8452H205.104ZM186.337 41.512C186.466 41.4043 186.628 41.3452 186.796 41.3452H207.023V42.0595H206.666L206.998 42.1921L202.712 52.9064L202.049 52.6412L206.282 42.0595H203.452L203.784 42.1921L199.498 52.9064L198.835 52.6412L203.067 42.0595H200.238L200.569 42.1921L196.284 52.9064L195.62 52.6412L199.853 42.0595H197.023L197.355 42.1921L193.069 52.9064L192.406 52.6412L196.639 42.0595H193.809L194.141 42.1921L189.855 52.9064L189.192 52.6412L193.425 42.0595H190.595L190.926 42.1921L186.641 52.9064L185.978 52.6412L190.21 42.0595H186.796L183.063 45.187L183.083 45.1818L184.484 50.4355C184.52 50.5704 184.515 50.7129 184.471 50.8454L183.791 52.8867L183.113 52.6609L183.794 50.6195L182.476 45.679L179.917 47.823L180.944 52.7002L180.245 52.8474L179.297 48.3429L176.907 50.3453L177.718 52.6555L177.044 52.8921L176.322 50.8354L173.681 53.0476L173.223 52.5L186.337 41.512Z" fill="#424C51"/>
<path fill-rule="evenodd" clip-rule="evenodd" d="M116.311 79.6978C116.734 79.3371 117.388 79.5756 117.479 80.1236L118.431 85.8332C118.452 85.9589 118.439 86.088 118.393 86.207L111.368 104.471L112.99 106.093L112.485 106.598L110.863 104.976C110.664 104.776 110.6 104.478 110.702 104.215L117.726 85.9506L116.775 80.241L114.064 82.5547L114.857 86.9019C114.88 87.0243 114.87 87.1504 114.828 87.2678L108.502 105.191L111.93 108.962L111.402 109.442L107.974 105.672C107.797 105.477 107.741 105.201 107.829 104.954L114.155 87.03L113.436 83.091L110.729 85.4017L111.629 89.0089C111.664 89.1482 111.655 89.2947 111.606 89.4294L105.646 105.554L110.862 111.466L110.327 111.939L105.111 106.027C104.937 105.83 104.885 105.553 104.976 105.307L110.936 89.1817L110.122 85.9199L107.796 87.9062L108.75 90.7547C108.802 90.9097 108.799 91.0777 108.742 91.2308L103.148 106.266L110.145 113.962L109.616 114.442L102.62 106.746C102.44 106.549 102.385 106.267 102.479 106.017L108.073 90.9817L107.21 88.4062L105.287 90.0477L105.904 92.2005C105.948 92.3529 105.94 92.5155 105.881 92.6627L100.294 106.629L109.075 116.464L108.542 116.94L99.7613 107.105C99.5807 106.903 99.5302 106.616 99.6309 106.364L105.218 92.3974L104.69 90.5573L102.712 92.2455C102.583 92.3559 102.419 92.4165 102.249 92.4165H85.5946V91.7022H102.249L116.311 79.6978Z" fill="#424C51"/>
<path fill-rule="evenodd" clip-rule="evenodd" d="M88.7447 95.0253C88.8487 94.7454 89.1157 94.5597 89.4143 94.5597H101.509C102.007 94.5597 102.352 95.056 102.179 95.5227L97.8015 107.308C97.6976 107.588 97.4305 107.774 97.1319 107.774H85.0368C84.539 107.774 84.1939 107.278 84.3672 106.811L88.7447 95.0253ZM101.509 95.274L89.4143 95.274L85.0368 107.06H97.1319L101.509 95.274Z" fill="#424C51"/>
<path fill-rule="evenodd" clip-rule="evenodd" d="M90.159 97.5098C90.2672 97.238 90.5301 97.0597 90.8227 97.0597H97.9256C98.4304 97.0597 98.7759 97.569 98.5893 98.0381L96.031 104.467C95.9228 104.738 95.6598 104.917 95.3673 104.917H88.2644C87.7596 104.917 87.414 104.407 87.6007 103.938L90.159 97.5098ZM97.9256 97.774L90.8227 97.774L88.2644 104.203H95.3673L97.9256 97.774Z" fill="#424C51"/>
<path fill-rule="evenodd" clip-rule="evenodd" d="M91.4979 99.6666C91.6024 99.3876 91.869 99.2027 92.1669 99.2027H95.0777C95.5762 99.2027 95.9214 99.7005 95.7467 100.167L94.9447 102.31C94.8402 102.589 94.5736 102.774 94.2757 102.774H91.3649C90.8664 102.774 90.5212 102.276 90.6959 101.809L91.4979 99.6666ZM95.0777 99.917L92.1669 99.917L91.3649 102.06L94.2757 102.06L95.0777 99.917Z" fill="#424C51"/>
<path fill-rule="evenodd" clip-rule="evenodd" d="M100.461 83.8451L105.718 79.2895L106.186 79.8293L100.929 84.3849C100.799 84.4974 100.633 84.5594 100.461 84.5594H88.4518V83.8451H100.461ZM109.758 79.8281L101.288 87.2398C101.158 87.3537 100.991 87.4165 100.818 87.4165H87.3804V86.7022H100.818L109.288 79.2906L109.758 79.8281ZM101.532 89.2022L112.86 79.2906L113.33 79.8281L102.002 89.7398C101.872 89.8537 101.705 89.9165 101.532 89.9165H86.6661V89.2022H101.532ZM102.655 79.788L100.976 81.8024C100.84 81.9652 100.639 82.0594 100.427 82.0594H89.5233V81.3451H92.8373L93.4702 79.4464L94.1478 79.6723L93.5902 81.3451H95.6944L96.3273 79.4464L97.0049 79.6723L96.4473 81.3451H100.427L102.106 79.3307L102.655 79.788Z" fill="#424C51"/>
<path fill-rule="evenodd" clip-rule="evenodd" d="M85.9007 96.4069L84.6014 94.7829L85.1592 94.3367L86.4584 95.9607C86.6184 96.1607 86.6591 96.431 86.5651 96.6692L81.3284 109.935L81.9334 112.053L84.188 110.092C84.318 109.979 84.4845 109.917 84.6567 109.917H100.447L101.413 108.95L101.919 109.455L100.952 110.422C100.818 110.556 100.636 110.631 100.447 110.631H84.6567L76.5432 117.686L76.0745 117.147L81.4405 112.481L81.3226 112.515L80.6416 110.132C80.5985 109.98 80.6063 109.819 80.664 109.673L85.9007 96.4069ZM102.232 112.417L103.556 111.093L104.061 111.598L102.737 112.922C102.604 113.056 102.422 113.131 102.232 113.131H85.0166L75.1182 121.969L74.6425 121.436L84.5408 112.598C84.6717 112.482 84.8411 112.417 85.0166 112.417H102.232Z" fill="#424C51"/>
<path fill-rule="evenodd" clip-rule="evenodd" d="M106.181 114.12L104.137 115.823C104.009 115.93 103.847 115.988 103.68 115.988L85.3724 115.988L73.6878 126.257L73.2163 125.72L84.9008 115.452C85.0312 115.337 85.1988 115.274 85.3724 115.274H103.68L105.723 113.571L106.181 114.12ZM105.104 118.131L107.86 115.72L108.33 116.257L105.574 118.669C105.444 118.783 105.277 118.846 105.104 118.846H86.0833L71.8976 130.903L71.435 130.359L85.6207 118.301C85.7498 118.192 85.9138 118.131 86.0833 118.131H105.104ZM86.3374 120.798C86.466 120.69 86.6284 120.631 86.7961 120.631H107.023V121.346H106.666L106.998 121.478L102.712 132.192L102.049 131.927L106.282 121.346H103.452L103.784 121.478L99.4979 132.192L98.8347 131.927L103.067 121.346H100.238L100.569 121.478L96.2836 132.192L95.6204 131.927L99.8531 121.346H97.0234L97.355 121.478L93.0693 132.192L92.4061 131.927L96.6388 121.346H93.8092L94.1408 121.478L89.855 132.192L89.1918 131.927L93.4245 121.346H90.5949L90.9265 121.478L86.6408 132.192L85.9776 131.927L90.2102 121.346H86.7961L83.0634 124.473L83.0828 124.468L84.4838 129.722C84.5198 129.856 84.5154 129.999 84.4713 130.131L83.7908 132.173L83.1132 131.947L83.7936 129.906L82.4762 124.965L79.9171 127.109L80.9443 131.986L80.2454 132.133L79.2966 127.629L76.9066 129.631L77.7176 131.942L77.0436 132.178L76.3216 130.121L73.6814 132.334L73.2227 131.786L86.3374 120.798Z" fill="#424C51"/>
<path fill-rule="evenodd" clip-rule="evenodd" d="M187.739 61.8408C188.162 61.4801 188.816 61.7186 188.908 62.2666L189.859 67.9762C189.88 68.102 189.867 68.231 189.822 68.35L182.797 86.614L184.419 88.2356L183.913 88.7406L182.292 87.119C182.092 86.9194 182.029 86.621 182.13 86.3575L189.155 68.0936L188.203 62.3841L185.493 64.6977L186.286 69.0449C186.308 69.1673 186.298 69.2934 186.257 69.4108L179.931 87.3343L183.359 91.105L182.83 91.5855L179.402 87.8148C179.226 87.6203 179.17 87.3444 179.257 87.0966L185.583 69.1731L184.865 65.234L182.158 67.5448L183.057 71.1519C183.092 71.2912 183.084 71.4377 183.034 71.5724L177.075 87.6975L182.291 93.6089L181.755 94.0815L176.539 88.1701C176.365 87.973 176.314 87.6964 176.405 87.4499L182.364 71.3248L181.551 68.0629L179.224 70.0492L180.179 72.8977C180.231 73.0527 180.228 73.2207 180.171 73.3738L174.577 88.4088L181.573 96.105L181.045 96.5855L174.048 88.8893C173.868 88.6916 173.814 88.4101 173.907 88.1597L179.502 73.1247L178.638 70.5492L176.715 72.1907L177.333 74.3435C177.376 74.4959 177.368 74.6585 177.309 74.8057L171.723 88.7724L180.504 98.6074L179.971 99.0831L171.19 89.2482C171.009 89.0459 170.959 88.7589 171.059 88.5072L176.646 74.5404L176.119 72.7003L174.141 74.3885C174.012 74.4989 173.847 74.5595 173.677 74.5595H157.023V73.8452H173.677L187.739 61.8408Z" fill="#424C51"/>
<path fill-rule="evenodd" clip-rule="evenodd" d="M160.173 77.1683C160.277 76.8884 160.544 76.7027 160.843 76.7027H172.938C173.436 76.7027 173.781 77.1991 173.608 77.6657L169.23 89.4514C169.126 89.7313 168.859 89.917 168.56 89.917H156.465C155.967 89.917 155.622 89.4206 155.796 88.954L160.173 77.1683ZM172.938 77.417L160.843 77.417L156.465 89.2027H168.56L172.938 77.417Z" fill="#424C51"/>
<path fill-rule="evenodd" clip-rule="evenodd" d="M161.587 79.6529C161.696 79.3811 161.959 79.2027 162.251 79.2027H169.354C169.859 79.2027 170.204 79.7121 170.018 80.1811L167.459 86.6097C167.351 86.8815 167.088 87.0598 166.796 87.0598H159.693C159.188 87.0598 158.843 86.5504 159.029 86.0814L161.587 79.6529ZM169.354 79.917L162.251 79.917L159.693 86.3455H166.796L169.354 79.917Z" fill="#424C51"/>
<path fill-rule="evenodd" clip-rule="evenodd" d="M162.926 81.8096C163.031 81.5306 163.297 81.3457 163.595 81.3457H166.506C167.005 81.3457 167.35 81.8435 167.175 82.3104L166.373 84.4532C166.269 84.7322 166.002 84.9171 165.704 84.9171H162.793C162.295 84.9171 161.95 84.4194 162.124 83.9525L162.926 81.8096ZM166.506 82.06L163.595 82.06L162.793 84.2028L165.704 84.2028L166.506 82.06Z" fill="#424C51"/>
<path fill-rule="evenodd" clip-rule="evenodd" d="M171.89 65.9881L177.146 61.4325L177.614 61.9723L172.358 66.5279C172.228 66.6404 172.062 66.7024 171.89 66.7024H159.88V65.9881H171.89ZM181.187 61.9712L172.717 69.3828C172.586 69.4967 172.419 69.5595 172.246 69.5595H158.809V68.8452H172.246L180.717 61.4336L181.187 61.9712ZM172.96 71.3452L184.288 61.4336L184.758 61.9712L173.431 71.8828C173.301 71.9967 173.133 72.0595 172.96 72.0595H158.095V71.3452H172.96ZM174.083 61.931L172.405 63.9454C172.269 64.1082 172.068 64.2024 171.856 64.2024H160.952V63.4881H164.266L164.899 61.5894L165.576 61.8153L165.019 63.4881H167.123L167.756 61.5894L168.433 61.8153L167.876 63.4881H171.856L173.535 61.4737L174.083 61.931Z" fill="#424C51"/>
<path fill-rule="evenodd" clip-rule="evenodd" d="M157.329 78.5494L156.03 76.9254L156.588 76.4792L157.887 78.1032C158.047 78.3032 158.088 78.5735 157.994 78.8117L152.757 92.0778L153.362 94.1952L155.617 92.2347C155.747 92.1217 155.913 92.0594 156.085 92.0594H171.875L172.842 91.0926L173.347 91.5977L172.38 92.5645C172.246 92.6984 172.065 92.7737 171.875 92.7737H156.085L147.972 99.8289L147.503 99.2899L152.869 94.6238L152.751 94.6575L152.07 92.274C152.027 92.1229 152.035 91.9618 152.093 91.8156L157.329 78.5494ZM173.661 94.5594L174.985 93.2354L175.49 93.7405L174.166 95.0645C174.032 95.1984 173.85 95.2737 173.661 95.2737H156.445L146.547 104.112L146.071 103.579L155.969 94.7409C156.1 94.624 156.27 94.5594 156.445 94.5594H173.661Z" fill="#424C51"/>
<path fill-rule="evenodd" clip-rule="evenodd" d="M177.609 96.2624L175.566 97.9653C175.437 98.0723 175.275 98.1309 175.108 98.1309L156.801 98.1309L145.116 108.399L144.645 107.863L156.329 97.5943C156.46 97.4798 156.627 97.4166 156.801 97.4166H175.108L177.152 95.7136L177.609 96.2624ZM176.532 100.274L179.288 97.8621L179.759 98.3996L177.002 100.811C176.872 100.925 176.705 100.988 176.532 100.988H157.512L143.326 113.046L142.863 112.502L157.049 100.444C157.178 100.334 157.342 100.274 157.512 100.274H176.532ZM157.766 102.94C157.894 102.833 158.057 102.774 158.225 102.774H178.452V103.488H178.095L178.426 103.621L174.141 114.335L173.477 114.07L177.71 103.488H174.881L175.212 103.621L170.926 114.335L170.263 114.07L174.496 103.488H171.666L171.998 103.621L167.712 114.335L167.049 114.07L171.282 103.488H168.452L168.784 103.621L164.498 114.335L163.835 114.07L168.067 103.488H165.238L165.569 103.621L161.284 114.335L160.62 114.07L164.853 103.488H162.023L162.355 103.621L158.069 114.335L157.406 114.07L161.639 103.488H158.225L154.492 106.615L154.511 106.61L155.912 111.864C155.948 111.999 155.944 112.141 155.9 112.274L155.219 114.315L154.542 114.089L155.222 112.048L153.905 107.107L151.346 109.252L152.373 114.129L151.674 114.276L150.725 109.771L148.335 111.774L149.146 114.084L148.472 114.321L147.75 112.264L145.11 114.476L144.651 113.929L157.766 102.94Z" fill="#424C51"/>
<path fill-rule="evenodd" clip-rule="evenodd" d="M145.238 113.846H175.238V114.56H145.238V113.846Z" fill="#424C51"/>
<path fill-rule="evenodd" clip-rule="evenodd" d="M62.0213 41.207C61.5988 41.5677 60.9443 41.3292 60.853 40.7812L59.9014 35.0716C59.8804 34.9459 59.8935 34.8168 59.9393 34.6978L66.9638 16.4339L65.3422 14.8123L65.8473 14.3072L67.4689 15.9288C67.6685 16.1284 67.7319 16.4268 67.6305 16.6903L60.6059 34.9542L61.5575 40.6638L64.2678 38.3502L63.4748 34.003C63.4524 33.8805 63.4625 33.7544 63.5039 33.637L69.8298 15.7135L66.4019 11.9428L66.9305 11.4623L70.3584 15.233C70.5352 15.4275 70.5909 15.7034 70.5034 15.9512L64.1775 33.8748L64.896 37.8138L67.6029 35.5031L66.7035 31.8959C66.6687 31.7566 66.6768 31.6101 66.7265 31.4755L72.6858 15.3503L67.4698 9.43888L68.0054 8.96629L73.2214 14.8777C73.3953 15.0748 73.4469 15.3514 73.3558 15.5979L67.3965 31.7231L68.2099 34.9849L70.5367 32.9986L69.582 30.1501C69.5301 29.9952 69.5328 29.8271 69.5898 29.674L75.1842 14.639L68.1877 6.94283L68.7162 6.46235L75.7128 14.1586C75.8925 14.3563 75.9468 14.6377 75.8537 14.8881L70.2592 29.9231L71.1224 32.4986L73.0453 30.8571L72.428 28.7043C72.3844 28.5519 72.3926 28.3893 72.4515 28.2421L78.0382 14.2754L69.257 4.44045L69.7898 3.96473L78.571 13.7997C78.7515 14.0019 78.8021 14.2889 78.7014 14.5407L73.1147 28.5074L73.6423 30.3476L75.6199 28.6593C75.7492 28.5489 75.9136 28.4883 76.0836 28.4883L95.2376 28.4883L95.2376 29.2026L76.0836 29.2026L62.0213 41.207Z" fill="#424C51"/>
<path fill-rule="evenodd" clip-rule="evenodd" d="M89.5875 25.8801C89.4836 26.16 89.2165 26.3457 88.9179 26.3457L76.8228 26.3457C76.325 26.3457 75.9799 25.8493 76.1532 25.3827L80.5307 13.597C80.6347 13.3171 80.9018 13.1314 81.2003 13.1314L93.2955 13.1314C93.7933 13.1314 94.1384 13.6278 93.9651 14.0944L89.5875 25.8801ZM76.8228 25.6314L88.9179 25.6314L93.2955 13.8457L81.2003 13.8457L76.8228 25.6314Z" fill="#424C51"/>
<path fill-rule="evenodd" clip-rule="evenodd" d="M88.1733 23.3955C88.0651 23.6673 87.8021 23.8457 87.5096 23.8457L80.4066 23.8457C79.9018 23.8457 79.5563 23.3363 79.743 22.8673L82.3013 16.4387C82.4094 16.1669 82.6724 15.9885 82.9649 15.9885L90.0679 15.9885C90.5727 15.9885 90.9182 16.4979 90.7316 16.9669L88.1733 23.3955ZM80.4066 23.1314L87.5096 23.1314L90.0679 16.7028L82.9649 16.7028L80.4066 23.1314Z" fill="#424C51"/>
<path fill-rule="evenodd" clip-rule="evenodd" d="M86.8343 21.2388C86.7299 21.5178 86.4633 21.7027 86.1653 21.7027L83.2546 21.7027C82.756 21.7027 82.4108 21.2049 82.5856 20.738L83.3876 18.5952C83.492 18.3162 83.7587 18.1313 84.0566 18.1313L86.9674 18.1313C87.4659 18.1313 87.8111 18.629 87.6363 19.0959L86.8343 21.2388ZM83.2546 20.9884L86.1653 20.9884L86.9674 18.8455L84.0566 18.8455L83.2546 20.9884Z" fill="#424C51"/>
<path fill-rule="evenodd" clip-rule="evenodd" d="M77.8748 37.0596L60.1196 53.0395L59.6417 52.5086L77.397 36.5287C77.5282 36.4106 77.6984 36.3453 77.8748 36.3453L97.3806 36.3453L97.3806 37.0596L77.8748 37.0596ZM63.2125 52.5092L78.1104 39.0299C78.2418 38.9111 78.4126 38.8453 78.5897 38.8453L97.3806 38.8453L97.3806 39.5596L95.4995 39.5596L91.2926 52.8816L90.6115 52.6665L94.7505 39.5596L92.2853 39.5596L88.0784 52.8816L87.3972 52.6665L91.5362 39.5596L89.071 39.5596L84.8641 52.8816L84.1829 52.6665L88.3219 39.5596L85.4995 39.5596L81.2926 52.8816L80.6115 52.6665L84.7505 39.5596L82.6359 39.5596L78.0757 52.8896L77.3999 52.6584L81.881 39.5596L78.5897 39.5596L74.2209 43.5123L75.9008 48.6322C75.9445 48.7651 75.9481 48.9079 75.9113 49.0428L74.8681 52.868L74.1789 52.68L75.2222 48.8549L73.6412 44.0368L71.7119 45.7824L72.6962 49.3603C72.7337 49.4968 72.7299 49.6414 72.6851 49.7757L71.648 52.887L70.9704 52.6611L72.0075 49.5498L71.1187 46.3191L68.2462 48.918L69.0731 50.3726C69.1342 50.4802 69.1664 50.6018 69.1664 50.7256L69.1664 52.774L68.4521 52.774L68.4521 50.7256L67.7037 49.4089L63.6917 53.0389L63.2125 52.5092ZM57.0235 50.274L59.0269 50.274L77.0361 33.6772C77.168 33.5556 77.3408 33.4882 77.5201 33.4882L95.9521 33.4882L95.9521 34.2024L77.5201 34.2024L59.511 50.7993C59.3791 50.9208 59.2063 50.9883 59.0269 50.9883L57.0235 50.9883L57.0235 50.274ZM76.8024 31.7024L57.2611 49.1121L56.7859 48.5788L76.3272 31.1691C76.4581 31.0526 76.6272 30.9882 76.8024 30.9882L97.3806 30.9882L97.3806 31.7025L76.8024 31.7024Z" fill="#424C51"/>
<path fill-rule="evenodd" clip-rule="evenodd" d="M97.8257 37.6521L95.4836 34.9754C95.2926 34.7571 95.2525 34.445 95.3823 34.1856L96.9563 31.0376L91.8843 24.9512C91.7171 24.7505 91.6727 24.4746 91.7686 24.2316L97.0035 10.9699L96.4182 8.92155L94.1367 10.8228C94.0084 10.9298 93.8466 10.9884 93.6795 10.9884L77.8853 10.9884L76.9185 11.9552L76.4134 11.4501L77.3802 10.4833C77.5142 10.3493 77.6958 10.2741 77.8853 10.2741L93.6795 10.2741L106.437 -0.35743L106.895 0.191299L97.0183 8.42154L97.6903 10.7737C97.7335 10.9249 97.7256 11.086 97.6679 11.2322L92.433 24.4939L99.4403 32.9026L98.8915 33.3599L97.4554 31.6365L96.0211 34.5051L98.3632 37.1818L97.8257 37.6521ZM76.0996 8.48836L74.7756 9.81232L74.2705 9.30725L75.5945 7.98328C75.7284 7.84933 75.9101 7.77407 76.0996 7.77407L93.3154 7.77407L103.214 -1.06376L103.689 -0.530941L93.7911 8.30689C93.6602 8.42376 93.4909 8.48836 93.3154 8.48836L76.0996 8.48836Z" fill="#424C51"/>
<path fill-rule="evenodd" clip-rule="evenodd" d="M99.8618 9.5621L98.8272 6.45818L99.5048 6.2323L100.539 9.33622C100.587 9.47967 100.588 9.63458 100.543 9.77867L95.6367 25.1968L100.513 31.1182L99.9618 31.5723L95.0853 25.6509C94.9312 25.4638 94.8826 25.2113 94.9561 24.9803L99.8618 9.5621Z" fill="#424C51"/>
<path fill-rule="evenodd" clip-rule="evenodd" d="M102.719 7.0621L101.685 3.95818L102.362 3.7323L103.397 6.83622C103.445 6.97967 103.446 7.13458 103.4 7.27867L98.4942 22.6968L103.371 28.6182L102.819 29.0723L97.9429 23.1509C97.7888 22.9638 97.7401 22.7113 97.8136 22.4803L102.719 7.0621Z" fill="#424C51"/>
<path fill-rule="evenodd" clip-rule="evenodd" d="M106.29 4.20512L105.256 1.1012L105.933 0.87532L106.968 3.97924C107.016 4.12269 107.017 4.2776 106.971 4.42169L102.065 19.8399L106.942 25.7612L106.39 26.2153L101.514 20.2939C101.36 20.1068 101.311 19.8543 101.385 19.6233L106.29 4.20512Z" fill="#424C51"/>
<path fill-rule="evenodd" clip-rule="evenodd" d="M72.1516 6.78547L74.1951 5.08253C74.3235 4.97556 74.4853 4.91697 74.6524 4.91697L92.9599 4.91697L104.644 -5.3513L105.116 -4.81475L93.4314 5.45352C93.301 5.56808 93.1334 5.63126 92.9599 5.63126L74.6524 5.63126L72.6089 7.3342L72.1516 6.78547ZM73.2287 2.77412L70.4726 5.18575L70.0022 4.6482L72.7583 2.23656C72.8886 2.12263 73.0557 2.05983 73.2287 2.05983L92.249 2.05983L106.435 -9.998L106.897 -9.45376L92.7116 2.60407C92.5824 2.71385 92.4184 2.77412 92.249 2.77412L73.2287 2.77412ZM91.9948 0.107347C91.8663 0.215078 91.7039 0.274118 91.5361 0.274118L71.3088 0.274116L71.3088 -0.44017L71.6659 -0.44017L71.3343 -0.572809L75.6201 -11.2871L76.2833 -11.0218L72.0506 -0.44017L74.8802 -0.44017L74.5486 -0.572809L78.8343 -11.2871L79.4975 -11.0218L75.2649 -0.44017L78.0945 -0.440169L77.7629 -0.572809L82.0486 -11.2871L82.7118 -11.0218L78.4792 -0.440169L81.3088 -0.440169L80.9772 -0.572809L85.2629 -11.2871L85.9261 -11.0218L81.6935 -0.440169L84.5231 -0.440169L84.1915 -0.572808L88.4772 -11.2871L89.1404 -11.0218L84.9077 -0.440169L87.7374 -0.440169L87.4058 -0.572808L91.6915 -11.2871L92.3547 -11.0218L88.122 -0.440169L91.5361 -0.440168L95.2689 -3.56761L95.2494 -3.56243L93.8484 -8.81616C93.8125 -8.95108 93.8168 -9.0936 93.861 -9.22608L94.5414 -11.2674L95.219 -11.0415L94.5386 -9.0002L95.8561 -4.05962L98.4152 -6.2037L97.3879 -11.0808L98.0868 -11.2281L99.0356 -6.72354L101.426 -8.726L100.615 -11.0362L101.289 -11.2727L102.011 -9.21611L104.651 -11.4282L105.11 -10.8807L91.9948 0.107347Z" fill="#424C51"/>
<path fill-rule="evenodd" clip-rule="evenodd" d="M99.5213 64.778C99.0987 65.1387 98.4443 64.9002 98.3529 64.3522L97.4013 58.6426C97.3804 58.5168 97.3935 58.3878 97.4392 58.2688L104.464 40.0048L102.842 38.3832L103.347 37.8782L104.969 39.4998C105.169 39.6994 105.232 39.9978 105.131 40.2612L98.1059 58.5252L99.0575 64.2347L101.768 61.9211L100.975 57.5739C100.952 57.4515 100.962 57.3254 101.004 57.208L107.33 39.2845L103.902 35.5138L104.43 35.0333L107.858 38.804C108.035 38.9985 108.091 39.2744 108.003 39.5222L101.677 57.4457L102.396 61.3848L105.103 59.074L104.203 55.4669C104.169 55.3276 104.177 55.1811 104.227 55.0464L110.186 38.9213L104.97 33.0099L105.505 32.5373L110.721 38.4487C110.895 38.6458 110.947 38.9224 110.856 39.1689L104.897 55.294L105.71 58.5559L108.037 56.5696L107.082 53.721C107.03 53.5661 107.033 53.3981 107.09 53.245L112.684 38.21L105.688 30.5138L106.216 30.0333L113.213 37.7295C113.392 37.9272 113.447 38.2087 113.354 38.4591L107.759 53.4941L108.622 56.0696L110.545 54.4281L109.928 52.2752C109.884 52.1229 109.893 51.9603 109.951 51.8131L115.538 37.8464L106.757 28.0114L107.29 27.5357L116.071 37.3706C116.252 37.5729 116.302 37.8599 116.201 38.1116L110.615 52.0784L111.142 53.9185L113.12 52.2303C113.249 52.1199 113.414 52.0593 113.584 52.0593L132.738 52.0593L132.738 52.7736L113.584 52.7736L99.5213 64.778Z" fill="#424C51"/>
<path fill-rule="evenodd" clip-rule="evenodd" d="M127.088 49.4511C126.984 49.731 126.717 49.9167 126.418 49.9167L114.323 49.9167C113.825 49.9167 113.48 49.4203 113.653 48.9537L118.031 37.168C118.135 36.8881 118.402 36.7024 118.7 36.7024L130.795 36.7024C131.293 36.7024 131.638 37.1987 131.465 37.6654L127.088 49.4511ZM114.323 49.2024L126.418 49.2024L130.795 37.4167L118.7 37.4167L114.323 49.2024Z" fill="#424C51"/>
<path fill-rule="evenodd" clip-rule="evenodd" d="M125.674 46.9665C125.566 47.2383 125.303 47.4167 125.01 47.4167L117.907 47.4167C117.402 47.4167 117.057 46.9073 117.244 46.4383L119.802 40.0097C119.91 39.7379 120.173 39.5595 120.465 39.5595L127.568 39.5595C128.073 39.5595 128.419 40.0689 128.232 40.5379L125.674 46.9665ZM117.907 46.7024L125.01 46.7024L127.568 40.2738L120.465 40.2738L117.907 46.7024Z" fill="#424C51"/>
<path fill-rule="evenodd" clip-rule="evenodd" d="M124.335 44.8103C124.23 45.0893 123.964 45.2742 123.666 45.2742L120.755 45.2742C120.257 45.2742 119.911 44.7764 120.086 44.3095L120.888 42.1667C120.993 41.8877 121.259 41.7028 121.557 41.7028L124.468 41.7028C124.966 41.7028 125.312 42.2005 125.137 42.6674L124.335 44.8103ZM120.755 44.5599L123.666 44.5599L124.468 42.417L121.557 42.417L120.755 44.5599Z" fill="#424C51"/>
<path fill-rule="evenodd" clip-rule="evenodd" d="M115.375 60.6311L97.6196 76.611L97.1417 76.0801L114.897 60.1002C115.028 59.9821 115.198 59.9168 115.375 59.9168L134.881 59.9168L134.881 60.6311L115.375 60.6311ZM100.712 76.0807L115.61 62.6014C115.742 62.4826 115.913 62.4168 116.09 62.4168L134.881 62.4168L134.881 63.1311L133 63.1311L128.793 76.4531L128.112 76.238L132.25 63.1311L129.785 63.1311L125.578 76.4531L124.897 76.238L129.036 63.1311L126.571 63.1311L122.364 76.4531L121.683 76.238L125.822 63.1311L123 63.1311L118.793 76.4531L118.112 76.238L122.25 63.1311L120.136 63.1311L115.576 76.4611L114.9 76.2299L119.381 63.1311L116.09 63.1311L111.721 67.0838L113.401 72.2037C113.444 72.3366 113.448 72.4794 113.411 72.6143L112.368 76.4395L111.679 76.2516L112.722 72.4264L111.141 67.6083L109.212 69.3539L110.196 72.9318C110.234 73.0683 110.23 73.2129 110.185 73.3472L109.148 76.4585L108.47 76.2326L109.508 73.1213L108.619 69.8906L105.746 72.4895L106.573 73.9441C106.634 74.0517 106.666 74.1733 106.666 74.2971L106.666 76.3455L105.952 76.3455L105.952 74.2971L105.204 72.9804L101.192 76.6104L100.712 76.0807ZM94.5235 73.8455L96.5269 73.8455L114.536 57.2487C114.668 57.1271 114.841 57.0597 115.02 57.0597L133.452 57.0597L133.452 57.774L115.02 57.774L97.011 74.3708C96.8791 74.4923 96.7063 74.5598 96.5269 74.5598L94.5235 74.5598L94.5235 73.8455ZM114.302 55.274L94.7611 72.6836L94.2859 72.1503L113.827 54.7406C113.958 54.6241 114.127 54.5597 114.302 54.5597L134.881 54.5597L134.881 55.274L114.302 55.274Z" fill="#424C51"/>
<path fill-rule="evenodd" clip-rule="evenodd" d="M135.326 61.2231L132.984 58.5464C132.793 58.3281 132.753 58.016 132.883 57.7566L134.457 54.6085L129.385 48.5221C129.218 48.3215 129.173 48.0455 129.269 47.8026L134.504 34.5409L133.919 32.4925L131.637 34.3938C131.509 34.5007 131.347 34.5593 131.18 34.5593L115.386 34.5593L114.419 35.5261L113.914 35.0211L114.881 34.0542C115.015 33.9203 115.196 33.845 115.386 33.845L131.18 33.845L143.938 23.2135L144.395 23.7623L134.519 31.9925L135.191 34.3447C135.234 34.4958 135.226 34.657 135.168 34.8032L129.934 48.0648L136.941 56.4735L136.392 56.9308L134.956 55.2075L133.522 58.076L135.864 60.7527L135.326 61.2231ZM113.6 32.0593L112.276 33.3833L111.771 32.8782L113.095 31.5542C113.229 31.4203 113.411 31.345 113.6 31.345L130.816 31.345L140.714 22.5072L141.19 23.04L131.292 31.8778C131.161 31.9947 130.991 32.0593 130.816 32.0593L113.6 32.0593Z" fill="#424C51"/>
<path fill-rule="evenodd" clip-rule="evenodd" d="M137.362 33.1336L136.327 30.0297L137.005 29.8038L138.039 32.9077C138.087 33.0512 138.088 33.2061 138.043 33.3502L133.137 48.7683L138.013 54.6897L137.462 55.1438L132.585 49.2224C132.431 49.0353 132.383 48.7828 132.456 48.5518L137.362 33.1336Z" fill="#424C51"/>
<path fill-rule="evenodd" clip-rule="evenodd" d="M140.219 30.6336L139.185 27.5297L139.862 27.3038L140.897 30.4077C140.945 30.5512 140.946 30.7061 140.9 30.8502L135.994 46.2683L140.871 52.1897L140.319 52.6438L135.443 46.7224C135.289 46.5353 135.24 46.2828 135.314 46.0518L140.219 30.6336Z" fill="#424C51"/>
<path fill-rule="evenodd" clip-rule="evenodd" d="M143.79 27.7766L142.756 24.6727L143.433 24.4468L144.468 27.5507C144.516 27.6942 144.517 27.8491 144.471 27.9932L139.565 43.4114L144.442 49.3327L143.89 49.7868L139.014 43.8654C138.86 43.6783 138.811 43.4258 138.885 43.1948L143.79 27.7766Z" fill="#424C51"/>
<path fill-rule="evenodd" clip-rule="evenodd" d="M109.652 30.357L111.695 28.654C111.824 28.5471 111.986 28.4885 112.153 28.4885L130.46 28.4885L142.145 18.2202L142.616 18.7568L130.932 29.025C130.801 29.1396 130.634 29.2028 130.46 29.2028L112.153 29.2028L110.109 30.9057L109.652 30.357ZM110.729 26.3456L107.973 28.7573L107.503 28.2197L110.259 25.8081C110.389 25.6941 110.556 25.6313 110.729 25.6313L129.749 25.6313L143.935 13.5735L144.398 14.1177L130.212 26.1756C130.083 26.2853 129.919 26.3456 129.749 26.3456L110.729 26.3456ZM129.495 23.6788C129.367 23.7866 129.204 23.8456 129.036 23.8456L108.809 23.8456L108.809 23.1313L109.166 23.1313L108.832 23.0059L117.403 0.14879L118.072 0.399591L109.548 23.1313L112.381 23.1313L112.046 23.0059L120.618 0.14879L121.286 0.399591L112.762 23.1313L115.595 23.1313L115.26 23.0059L123.832 0.14879L124.501 0.399592L115.976 23.1313L118.809 23.1313L118.475 23.0059L127.046 0.148791L127.715 0.399592L119.191 23.1313L122.023 23.1313L121.689 23.0059L130.26 0.148791L130.929 0.399592L122.405 23.1313L125.238 23.1313L124.903 23.0059L133.475 0.148791L134.144 0.399592L125.619 23.1313L129.036 23.1313L132.769 20.0039L132.75 20.0091L131.351 14.7623C131.312 14.6187 131.32 14.4667 131.372 14.3275L136.689 0.14879L137.358 0.399589L132.041 14.5783L133.356 19.5119L135.899 17.3815L134.573 12.9901C134.529 12.8438 134.532 12.6872 134.584 12.5433L139.009 0.154071L139.681 0.39431L135.256 12.7835L136.495 16.8826L138.927 14.8447L137.798 11.5806C137.745 11.4275 137.746 11.2609 137.8 11.1083L141.687 0.154758L142.36 0.393623L138.473 11.3471L139.513 14.3537L141.98 12.2868L141.346 9.74959C141.312 9.61509 141.318 9.47371 141.364 9.34269L144.543 0.157366L145.218 0.391016L142.039 9.57635L142.673 12.1136C142.739 12.3789 142.648 12.6587 142.439 12.8343L129.495 23.6788Z" fill="#424C51"/>
<path fill-rule="evenodd" clip-rule="evenodd" d="M-9.76476 63.3495C-10.1873 63.7102 -10.8418 63.4717 -10.9331 62.9237L-11.8847 57.2141C-11.9056 57.0883 -11.8926 56.9593 -11.8468 56.8403L-4.8222 38.5763L-6.4438 36.9547L-5.93872 36.4497L-4.31712 38.0713C-4.11752 38.2709 -4.05419 38.5693 -4.15552 38.8327L-11.1801 57.0967L-10.2285 62.8062L-7.51827 60.4926L-8.31128 56.1454C-8.33361 56.023 -8.32357 55.8969 -8.28215 55.7795L-1.9562 37.856L-5.38409 34.0853L-4.85556 33.6048L-1.42767 37.3755C-1.25086 37.57 -1.19515 37.8459 -1.28263 38.0937L-7.60859 56.0172L-6.89003 59.9563L-4.18311 57.6455L-5.08257 54.0384C-5.1173 53.8991 -5.10926 53.7526 -5.0595 53.6179L0.899804 37.4928L-4.3162 31.5814L-3.7806 31.1088L1.4354 37.0202C1.60928 37.2173 1.6609 37.4939 1.5698 37.7404L-4.3895 53.8655L-3.57615 57.1274L-1.24935 55.1411L-2.20405 52.2926C-2.25597 52.1376 -2.25321 51.9696 -2.19624 51.8165L3.39819 36.7815L-3.59838 29.0853L-3.06985 28.6048L3.92671 36.301C4.10644 36.4987 4.16081 36.7802 4.06763 37.0306L-1.52679 52.0656L-0.663604 54.6411L1.25926 52.9996L0.642003 50.8467C0.598313 50.6944 0.606555 50.5318 0.665427 50.3846L6.25212 36.4179L-2.52909 26.5829L-1.99628 26.1072L6.78494 35.9421C6.96551 36.1444 7.01601 36.4314 6.91532 36.6831L1.32862 50.6499L1.85622 52.49L3.83385 50.8018C3.96315 50.6914 4.12759 50.6308 4.29761 50.6308L23.4516 50.6308L23.4516 51.3451L4.29761 51.3451L-9.76476 63.3495Z" fill="#424C51"/>
<path fill-rule="evenodd" clip-rule="evenodd" d="M17.8015 48.0226C17.6976 48.3025 17.4305 48.4882 17.1319 48.4882L5.03675 48.4882C4.53898 48.4882 4.19384 47.9918 4.36716 47.5252L8.74471 35.7395C8.84866 35.4596 9.11573 35.2739 9.4143 35.2739L21.5095 35.2739C22.0072 35.2739 22.3524 35.7702 22.1791 36.2369L17.8015 48.0226ZM5.03675 47.7739L17.1319 47.7739L21.5095 35.9882L9.4143 35.9882L5.03675 47.7739Z" fill="#424C51"/>
<path fill-rule="evenodd" clip-rule="evenodd" d="M16.3878 45.538C16.2796 45.8098 16.0166 45.9882 15.7241 45.9882L8.62116 45.9882C8.11636 45.9882 7.77085 45.4788 7.9575 45.0098L10.5158 38.5812C10.624 38.3094 10.8869 38.131 11.1795 38.131L18.2824 38.131C18.7872 38.131 19.1327 38.6404 18.9461 39.1094L16.3878 45.538ZM8.62116 45.2739L15.7241 45.2739L18.2824 38.8453L11.1795 38.8453L8.62116 45.2739Z" fill="#424C51"/>
<path fill-rule="evenodd" clip-rule="evenodd" d="M15.0488 43.3818C14.9444 43.6608 14.6778 43.8457 14.3799 43.8457L11.4691 43.8457C10.9705 43.8457 10.6254 43.3479 10.8001 42.881L11.6021 40.7382C11.7066 40.4592 11.9732 40.2743 12.2711 40.2743L15.1819 40.2743C15.6804 40.2743 16.0256 40.772 15.8509 41.2389L15.0488 43.3818ZM11.4691 43.1314L14.3799 43.1314L15.1819 40.9885L12.2711 40.9885L11.4691 43.1314Z" fill="#424C51"/>
<path fill-rule="evenodd" clip-rule="evenodd" d="M6.08883 59.2026L-11.6664 75.1825L-12.1443 74.6516L5.611 58.6717C5.74216 58.5536 5.91237 58.4883 6.08883 58.4883L25.5946 58.4883L25.5946 59.2026L6.08883 59.2026ZM-8.57355 74.6522L6.32443 61.1729C6.45576 61.0541 6.62655 60.9883 6.80365 60.9883L25.5946 60.9883L25.5946 61.7026L23.7135 61.7026L19.5066 75.0246L18.8255 74.8095L22.9645 61.7026L20.4992 61.7026L16.2923 75.0246L15.6112 74.8095L19.7502 61.7026L17.285 61.7026L13.0781 75.0246L12.3969 74.8095L16.5359 61.7026L13.7135 61.7026L9.50663 75.0246L8.8255 74.8095L12.9645 61.7026L10.8499 61.7026L6.2897 75.0326L5.61386 74.8014L10.095 61.7026L6.80365 61.7026L2.4349 65.6553L4.11484 70.7752C4.15844 70.9081 4.16207 71.0509 4.12527 71.1858L3.08205 75.011L2.39293 74.8231L3.43615 70.9979L1.85523 66.1798L-0.0741113 67.9254L0.910193 71.5034C0.947739 71.6398 0.943886 71.7844 0.899121 71.9187L-0.137976 75.03L-0.815607 74.8041L0.221491 71.6928L-0.667289 68.4621L-3.53976 71.061L-2.71296 72.5156C-2.6518 72.6232 -2.61965 72.7448 -2.61965 72.8686L-2.61965 74.917L-3.33393 74.917L-3.33393 72.8686L-4.08234 71.5519L-8.09432 75.1819L-8.57355 74.6522ZM-14.7625 72.417L-12.7591 72.417L5.25005 55.8202C5.38194 55.6987 5.55474 55.6312 5.73411 55.6312L24.1661 55.6312L24.1661 56.3455L5.73411 56.3455L-12.2751 72.9423C-12.407 73.0638 -12.5798 73.1313 -12.7591 73.1313L-14.7625 73.1313L-14.7625 72.417ZM5.01637 53.8455L-14.5249 71.2551L-15.0001 70.7218L4.54122 53.3121C4.67205 53.1956 4.84115 53.1312 5.01637 53.1312L25.5946 53.1312L25.5946 53.8455L5.01637 53.8455Z" fill="#424C51"/>
<path fill-rule="evenodd" clip-rule="evenodd" d="M26.0402 59.7946L23.6981 57.1179C23.5071 56.8996 23.4671 56.5875 23.5968 56.3281L25.1708 53.18L20.0988 47.0936C19.9316 46.893 19.8873 46.617 19.9832 46.3741L25.218 33.1124L24.6328 31.064L22.3513 32.9653C22.2229 33.0722 22.0611 33.1308 21.894 33.1308L6.09982 33.1308L5.13299 34.0977L4.62792 33.5926L5.59474 32.6258C5.7287 32.4918 5.91038 32.4165 6.09982 32.4165L21.894 32.4165L34.6518 21.785L35.1091 22.3338L25.2328 30.564L25.9048 32.9162C25.948 33.0673 25.9401 33.2285 25.8824 33.3747L20.6476 46.6364L27.6548 55.0451L27.1061 55.5023L25.67 53.779L24.2357 56.6475L26.5778 59.3242L26.0402 59.7946ZM4.3141 30.6308L2.99014 31.9548L2.48506 31.4497L3.80903 30.1258C3.94298 29.9918 4.12467 29.9165 4.3141 29.9165L21.5299 29.9165L31.4283 21.0787L31.904 21.6115L22.0057 30.4494C21.8748 30.5662 21.7054 30.6308 21.5299 30.6308L4.3141 30.6308Z" fill="#424C51"/>
<path fill-rule="evenodd" clip-rule="evenodd" d="M28.0763 31.7051L27.0417 28.6012L27.7193 28.3753L28.754 31.4792C28.8018 31.6227 28.8029 31.7776 28.757 31.9217L23.8512 47.3398L28.7276 53.2612L28.1763 53.7153L23.2998 47.7939C23.1457 47.6068 23.0971 47.3543 23.1706 47.1233L28.0763 31.7051Z" fill="#424C51"/>
<path fill-rule="evenodd" clip-rule="evenodd" d="M30.9333 29.2051L29.8987 26.1012L30.5763 25.8753L31.611 28.9792C31.6588 29.1227 31.6598 29.2776 31.614 29.4217L26.7082 44.8398L31.5846 50.7612L31.0333 51.2153L26.1568 45.2939C26.0027 45.1068 25.9541 44.8543 26.0276 44.6233L30.9333 29.2051Z" fill="#424C51"/>
<path fill-rule="evenodd" clip-rule="evenodd" d="M34.5048 26.3481L33.4702 23.2442L34.1478 23.0183L35.1825 26.1222C35.2303 26.2657 35.2314 26.4206 35.1855 26.5647L30.2797 41.9829L35.1561 47.9042L34.6048 48.3583L29.7283 42.4369C29.5742 42.2498 29.5256 41.9973 29.5991 41.7663L34.5048 26.3481Z" fill="#424C51"/>
<path fill-rule="evenodd" clip-rule="evenodd" d="M0.36594 28.9285L2.40946 27.2255C2.53783 27.1186 2.69964 27.06 2.86673 27.06L21.1742 27.06L32.8588 16.7917L33.3303 17.3283L21.6457 27.5965C21.5154 27.7111 21.3478 27.7743 21.1742 27.7743L2.86674 27.7743L0.823212 29.4772L0.36594 28.9285ZM1.44305 24.9171L-1.3131 27.3288L-1.78346 26.7912L0.972691 24.3796C1.1029 24.2656 1.27004 24.2028 1.44305 24.2028L20.4633 24.2028L34.649 12.145L35.1116 12.6892L20.9259 24.7471C20.7968 24.8569 20.6328 24.9171 20.4633 24.9171L1.44305 24.9171ZM20.2092 22.2504C20.0806 22.3581 19.9182 22.4171 19.7505 22.4171L-0.476852 22.4171L-0.476852 21.7028L-0.119708 21.7028L-0.454116 21.5774L8.11731 -1.27971L8.78612 -1.02891L0.261719 21.7028L3.09457 21.7028L2.76017 21.5774L11.3316 -1.27971L12.0004 -1.02891L3.47601 21.7028L6.30886 21.7028L5.97446 21.5774L14.5459 -1.27971L15.2147 -1.02891L6.69029 21.7028L9.52315 21.7028L9.18874 21.5774L17.7602 -1.27971L18.429 -1.02891L9.90458 21.7028L12.7374 21.7028L12.403 21.5774L20.9745 -1.27971L21.6433 -1.02891L13.1189 21.7028L15.9517 21.7028L15.6173 21.5774L24.1887 -1.27971L24.8575 -1.0289L16.3331 21.7028L19.7505 21.7028L23.4832 18.5754L23.4638 18.5806L22.0647 13.3339C22.0263 13.1902 22.0338 13.0382 22.086 12.899L27.403 -1.27971L28.0718 -1.02891L22.7548 13.1498L24.0704 18.0834L26.6131 15.953L25.2867 11.5616C25.2425 11.4153 25.2464 11.2587 25.2978 11.1148L29.7225 -1.27443L30.3952 -1.03419L25.9705 11.355L27.2086 15.4541L29.6409 13.4162L28.5122 10.1521C28.4593 9.99899 28.4599 9.83244 28.5141 9.67978L32.4008 -1.27374L33.074 -1.03487L29.1873 9.91865L30.2269 12.9252L32.6939 10.8583L32.0596 8.32109C32.0259 8.18659 32.0322 8.04521 32.0775 7.9142L35.2571 -1.27113L35.9321 -1.03748L32.7525 8.14785L33.3868 10.6851C33.4532 10.9504 33.3622 11.2302 33.1526 11.4059L20.2092 22.2504ZM5.57183 -1.02891L-2.99959 21.8282L-3.6684 21.5774L4.90303 -1.27971L5.57183 -1.02891Z" fill="#424C51"/>
<path fill-rule="evenodd" clip-rule="evenodd" d="M-5.47872 130.493C-5.90125 130.853 -6.55571 130.615 -6.64704 130.067L-7.59864 124.357C-7.61959 124.231 -7.60651 124.102 -7.56074 123.983L-0.536155 105.719L-2.15775 104.098L-1.65268 103.593L-0.0310818 105.214C0.16852 105.414 0.231852 105.712 0.13052 105.976L-6.89407 124.24L-5.94247 129.949L-3.23223 127.636L-4.02524 123.288C-4.04757 123.166 -4.03753 123.04 -3.99611 122.923L2.32985 104.999L-1.09805 101.228L-0.569522 100.748L2.85837 104.519C3.03518 104.713 3.09089 104.989 3.00341 105.237L-3.32255 123.16L-2.60399 127.099L0.102927 124.789L-0.796527 121.181C-0.831254 121.042 -0.823217 120.896 -0.773456 120.761L5.18584 104.636L-0.0301581 98.7244L0.505443 98.2518L5.72144 104.163C5.89532 104.36 5.94694 104.637 5.85584 104.883L-0.103461 121.009L0.709887 124.27L3.03669 122.284L2.08199 119.436C2.03007 119.281 2.03283 119.113 2.0898 118.959L7.68423 103.925L0.687665 96.2283L1.21619 95.7478L8.21276 103.444C8.39248 103.642 8.44685 103.923 8.35367 104.174L2.75925 119.209L3.62244 121.784L5.5453 120.143L4.92805 117.99C4.88436 117.837 4.8926 117.675 4.95147 117.528L10.5375 103.563L0.330144 92.2993L0.859422 91.8197L11.0668 103.083C11.2501 103.285 11.3021 103.574 11.2007 103.828L5.61467 117.793L6.14226 119.633L8.11989 117.945C8.2492 117.834 8.41364 117.774 8.58365 117.774L27.7376 117.774L27.7376 118.488L8.58365 118.488L-5.47872 130.493Z" fill="#424C51"/>
<path fill-rule="evenodd" clip-rule="evenodd" d="M22.0876 115.166C21.9836 115.445 21.7165 115.631 21.418 115.631L9.32279 115.631C8.82502 115.631 8.47988 115.135 8.6532 114.668L13.0307 102.882C13.1347 102.603 13.4018 102.417 13.7003 102.417L25.7955 102.417C26.2933 102.417 26.6384 102.913 26.4651 103.38L22.0876 115.166ZM9.32279 114.917L21.418 114.917L25.7955 103.131L13.7003 103.131L9.32279 114.917Z" fill="#424C51"/>
<path fill-rule="evenodd" clip-rule="evenodd" d="M20.6738 112.681C20.5656 112.953 20.3027 113.131 20.0101 113.131L12.9072 113.131C12.4024 113.131 12.0569 112.622 12.2435 112.153L14.8018 105.724C14.91 105.452 15.1729 105.274 15.4655 105.274L22.5684 105.274C23.0732 105.274 23.4187 105.783 23.2321 106.252L20.6738 112.681ZM12.9072 112.417L20.0101 112.417L22.5684 105.988L15.4655 105.988L12.9072 112.417Z" fill="#424C51"/>
<path fill-rule="evenodd" clip-rule="evenodd" d="M19.3348 110.524C19.2304 110.803 18.9638 110.988 18.6659 110.988L15.7551 110.988C15.2566 110.988 14.9114 110.49 15.0861 110.023L15.8881 107.881C15.9926 107.602 16.2592 107.417 16.5571 107.417L19.4679 107.417C19.9664 107.417 20.3116 107.914 20.1369 108.381L19.3348 110.524ZM15.7551 110.274L18.6659 110.274L19.4679 108.131L16.5571 108.131L15.7551 110.274Z" fill="#424C51"/>
<path fill-rule="evenodd" clip-rule="evenodd" d="M10.4767 126.253L-7.38044 142.325L-7.85827 141.794L9.99887 125.722L10.4767 126.253ZM-4.28754 141.795L10.6104 128.315C10.7418 128.197 10.9126 128.131 11.0897 128.131L20.8219 128.131C21.3047 128.131 21.6484 128.6 21.503 129.06L17.3641 142.167L16.6829 141.952L20.8219 128.845L17.9995 128.845L13.7926 142.167L13.1115 141.952L17.2505 128.845L15.1359 128.845L10.5757 142.175L9.89988 141.944L14.381 128.845L11.0897 128.845L6.72091 132.798L8.40085 137.918C8.44445 138.051 8.44808 138.193 8.41128 138.328L7.36806 142.153L6.67895 141.966L7.72216 138.14L6.14124 133.322L4.2119 135.068L5.1962 138.646C5.23375 138.782 5.2299 138.927 5.18513 139.061L4.14804 142.172L3.4704 141.947L4.5075 138.835L3.61872 135.605L0.746247 138.204L1.57305 139.658C1.63421 139.766 1.66636 139.887 1.66636 140.011L1.66636 142.06L0.952076 142.06L0.952076 140.011L0.203671 138.694L-3.80831 142.324L-4.28754 141.795ZM24.8641 128.595L20.5784 142.167L19.8972 141.952L24.1829 128.38L24.8641 128.595ZM-10.4765 139.559L-8.47311 139.559L9.53606 122.963C9.66796 122.841 9.84076 122.774 10.0201 122.774L28.4521 122.774L28.4521 123.488L10.0201 123.488L-7.98905 140.085C-8.12094 140.206 -8.29374 140.274 -8.47311 140.274L-10.4765 140.274L-10.4765 139.559ZM9.30238 120.988L-10.2389 138.398L-10.7141 137.864L8.82723 120.455C8.95806 120.338 9.12716 120.274 9.30238 120.274L29.8806 120.274L29.8806 120.988L9.30238 120.988Z" fill="#424C51"/>
<path fill-rule="evenodd" clip-rule="evenodd" d="M27.7756 123.686L29.4568 120.323L24.3848 114.237C24.2176 114.036 24.1733 113.76 24.2692 113.517L29.5041 100.256L28.9188 98.2072L26.6373 100.108C26.5089 100.215 26.3471 100.274 26.18 100.274L10.3858 100.274L9.419 101.241L8.91393 100.736L9.88075 99.769C10.0147 99.635 10.1964 99.5597 10.3858 99.5597L26.18 99.5597L38.9378 88.9282L39.3951 89.477L29.5188 97.7072L30.1909 100.059C30.234 100.211 30.2262 100.372 30.1684 100.518L24.9336 113.78L30.0056 119.866C30.1873 120.084 30.2226 120.389 30.0957 120.643L28.4145 124.005L27.7756 123.686ZM8.60012 97.774L7.27615 99.098L6.77107 98.5929L8.09504 97.269C8.22899 97.135 8.41068 97.0597 8.60012 97.0597L25.8159 97.0597L35.7143 88.2219L36.19 88.7547L26.2917 97.5926C26.1608 97.7094 25.9914 97.774 25.8159 97.774L8.60012 97.774Z" fill="#424C51"/>
<path fill-rule="evenodd" clip-rule="evenodd" d="M4.65198 96.0709L6.6955 94.368C6.82387 94.261 6.98568 94.2024 7.15278 94.2024L25.4603 94.2025L37.1449 83.9342L37.6164 84.4707L25.9318 94.739C25.8014 94.8536 25.6338 94.9167 25.4603 94.9167L7.15278 94.9167L5.10925 96.6197L4.65198 96.0709ZM5.72909 92.0596L2.97294 94.4712L2.50258 93.9337L5.25873 91.522C5.38894 91.4081 5.55608 91.3453 5.72909 91.3453L24.7493 91.3453L38.935 79.2875L39.3976 79.8317L25.2119 91.8896C25.0828 91.9993 24.9188 92.0596 24.7493 92.0596L5.72909 92.0596ZM0.443329 92.2652L0.216645 92.8949L-0.455417 92.6529L9.18744 65.8672L9.8595 66.1091L0.556923 91.9496L3.45205 89.0545C3.586 88.9206 3.76768 88.8453 3.95712 88.8453L4.16633 88.8453L3.83193 88.7199L12.4034 65.8628L13.0722 66.1136L4.54776 88.8453L7.38062 88.8453L7.04621 88.7199L15.6176 65.8628L16.2865 66.1136L7.76205 88.8453L10.5949 88.8453L10.2605 88.7199L18.8319 65.8628L19.5007 66.1136L10.9763 88.8453L13.8092 88.8453L13.4748 88.7199L22.0462 65.8628L22.715 66.1136L14.1906 88.8453L17.0235 88.8453L16.6891 88.7199L25.2605 65.8628L25.9293 66.1136L17.4049 88.8453L20.2378 88.8453L19.9034 88.7199L28.4748 65.8628L29.1436 66.1136L20.6192 88.8453L24.0365 88.8453L27.7692 85.7179L27.7498 85.723L26.3507 80.4763C26.3124 80.3327 26.3199 80.1807 26.3721 80.0415L31.6891 65.8628L32.3579 66.1136L27.0409 80.2923L28.3565 85.2259L30.8991 83.0955L29.5727 78.704C29.5286 78.5578 29.5324 78.4012 29.5838 78.2573L34.0086 65.868L34.6812 66.1083L30.2565 78.4975L31.4946 82.5966L33.927 80.5587L32.7983 77.2946C32.7453 77.1415 32.746 76.9749 32.8002 76.8223L36.6869 65.8687L37.3601 66.1076L33.4733 77.0611L34.513 80.0677L36.9799 78.0008L36.3456 75.4636C36.312 75.3291 36.3182 75.1877 36.3636 75.0567L39.5431 65.8713L40.2181 66.105L37.0386 75.2903L37.6729 77.8276C37.7392 78.0928 37.6483 78.3727 37.4387 78.5483L24.4952 89.3928C24.3666 89.5006 24.2042 89.5596 24.0365 89.5596L3.95712 89.5596L0.847439 92.6693L0.443329 92.2652Z" fill="#424C51"/>
<path fill-rule="evenodd" clip-rule="evenodd" d="M-2.62172 198.35C-3.04425 198.71 -3.69872 198.472 -3.79005 197.924L-4.74164 192.214C-4.7626 192.088 -4.74952 191.959 -4.70375 191.84L2.32084 173.576L-3.22933 168.026L-2.72426 167.521L2.82591 173.071C3.02551 173.271 3.08885 173.569 2.98751 173.833L-4.03707 192.097L-3.08548 197.806L-0.375236 195.493L-1.16824 191.145C-1.19057 191.023 -1.18053 190.897 -1.13912 190.78L5.18486 172.862L-2.16371 165.163L-1.64702 164.67L5.70155 172.368C5.88734 172.563 5.94798 172.846 5.85843 173.099L-0.465551 191.017L0.253006 194.956L2.95992 192.646L2.06047 189.038C2.02574 188.899 2.03378 188.753 2.08354 188.618L8.04069 172.499L-1.09565 162.66L-0.572224 162.173L8.56411 172.013C8.74738 172.21 8.80405 172.494 8.71069 172.746L2.75353 188.866L3.56688 192.127L5.89368 190.141L4.93898 187.293C4.88706 187.138 4.88982 186.97 4.9468 186.816L10.5398 171.785L-0.379952 160.161L0.140651 159.672L11.0604 171.296C11.2462 171.494 11.3039 171.78 11.2093 172.034L5.61624 187.066L6.47943 189.641L8.4023 188L7.78504 185.847C7.74135 185.694 7.74959 185.532 7.80846 185.385L13.3936 171.422L0.689348 157.659L1.21421 157.174L13.9185 170.937C14.1053 171.14 14.1591 171.431 14.0568 171.687L8.47166 185.65L8.99925 187.49L10.9769 185.802C11.1062 185.691 11.2706 185.631 11.4406 185.631L30.5946 185.631L30.5946 186.345L11.4406 186.345L-2.62172 198.35Z" fill="#424C51"/>
<path fill-rule="evenodd" clip-rule="evenodd" d="M4.16588 159.681L6.03996 157.539L6.57752 158.009L4.70344 160.151C4.26912 160.647 3.4516 160.34 3.4516 159.681V157.774H4.16588L4.16588 159.681Z" fill="#424C51"/>
<path fill-rule="evenodd" clip-rule="evenodd" d="M24.9445 183.023C24.8406 183.302 24.5735 183.488 24.2749 183.488L12.1798 183.488C11.682 183.488 11.3368 182.992 11.5102 182.525L15.8877 170.739C15.9917 170.46 16.2587 170.274 16.5573 170.274L28.6525 170.274C29.1502 170.274 29.4954 170.77 29.3221 171.237L24.9445 183.023ZM12.1798 182.774L24.2749 182.774L28.6525 170.988L16.5573 170.988L12.1798 182.774Z" fill="#424C51"/>
<path fill-rule="evenodd" clip-rule="evenodd" d="M23.5308 180.538C23.4226 180.81 23.1597 180.988 22.8671 180.988L15.7642 180.988C15.2594 180.988 14.9139 180.479 15.1005 180.01L17.6588 173.581C17.767 173.309 18.0299 173.131 18.3225 173.131L25.4254 173.131C25.9302 173.131 26.2757 173.64 26.0891 174.109L23.5308 180.538ZM15.7642 180.274L22.8671 180.274L25.4254 173.845L18.3225 173.845L15.7642 180.274Z" fill="#424C51"/>
<path fill-rule="evenodd" clip-rule="evenodd" d="M22.1918 178.382C22.0874 178.661 21.8208 178.846 21.5229 178.846L18.6121 178.846C18.1136 178.846 17.7684 178.348 17.9431 177.881L18.7451 175.738C18.8496 175.459 19.1162 175.274 19.4141 175.274L22.3249 175.274C22.8234 175.274 23.1686 175.772 22.9939 176.239L22.1918 178.382ZM18.6121 178.131L21.5229 178.131L22.3249 175.989L19.4141 175.989L18.6121 178.131Z" fill="#424C51"/>
<path fill-rule="evenodd" clip-rule="evenodd" d="M13.2318 194.203L-4.52344 210.182L-5.00127 209.652L12.754 193.672C12.8852 193.554 13.0554 193.488 13.2318 193.488L32.7376 193.488L32.7376 194.203L13.2318 194.203ZM-1.43054 209.652L13.4674 196.173C13.5988 196.054 13.7696 195.988 13.9467 195.988L32.7376 195.988L32.7376 196.703L30.8565 196.703L26.6496 210.025L25.9685 209.809L30.1075 196.703L27.6422 196.703L23.4353 210.025L22.7542 209.809L26.8932 196.703L24.428 196.703L20.2211 210.025L19.5399 209.809L23.6789 196.703L20.8565 196.703L16.6496 210.025L15.9685 209.809L20.1075 196.703L17.9929 196.703L13.4327 210.033L12.7569 209.801L17.238 196.703L13.9467 196.703L9.5779 200.655L11.2578 205.775C11.3014 205.908 11.3051 206.051 11.2683 206.186L10.2251 210.011L9.53594 209.823L10.5792 205.998L8.99824 201.18L7.06889 202.925L8.0532 206.503C8.09074 206.64 8.08689 206.784 8.04213 206.919L7.00503 210.03L6.3274 209.804L7.3645 206.693L6.47572 203.462L3.60324 206.061L4.43005 207.516C4.49121 207.623 4.52336 207.745 4.52336 207.869L4.52336 209.917L3.80907 209.917L3.80907 207.869L3.06067 206.552L-0.951317 210.182L-1.43054 209.652ZM-7.6195 207.417L-5.61612 207.417L12.3931 190.82C12.5249 190.699 12.6977 190.631 12.8771 190.631L31.3091 190.631L31.3091 191.345L12.8771 191.345L-5.13205 207.942C-5.26395 208.064 -5.43675 208.131 -5.61612 208.131L-7.6195 208.131L-7.6195 207.417ZM12.1594 188.845L-7.38193 206.255L-7.85707 205.722L11.6842 188.312C11.8151 188.196 11.9842 188.131 12.1594 188.131L32.7376 188.131L32.7376 188.845L12.1594 188.845Z" fill="#424C51"/>
<path fill-rule="evenodd" clip-rule="evenodd" d="M33.1832 194.795L30.8411 192.118C30.6501 191.9 30.6101 191.587 30.7398 191.328L32.3138 188.18L27.2418 182.094C27.0746 181.893 27.0303 181.617 27.1262 181.374L32.361 168.112L31.7758 166.064L29.4943 167.965C29.3659 168.072 29.2041 168.131 29.037 168.131L13.2428 168.131L12.276 169.098L11.7709 168.593L12.7377 167.626C12.8717 167.492 13.0534 167.417 13.2428 167.417L29.037 167.417L41.7948 156.785L42.2521 157.334L32.3758 165.564L33.0479 167.916C33.091 168.067 33.0832 168.228 33.0254 168.375L27.7906 181.636L34.7978 190.045L34.2491 190.502L32.813 188.779L31.3787 191.648L33.7208 194.324L33.1832 194.795ZM11.4571 165.631L10.1331 166.955L9.62807 166.45L10.952 165.126C11.086 164.992 11.2677 164.917 11.4571 164.917L28.6729 164.917L38.5713 156.079L39.047 156.612L29.1487 165.449C29.0178 165.566 28.8484 165.631 28.6729 165.631L11.4571 165.631Z" fill="#424C51"/>
<path fill-rule="evenodd" clip-rule="evenodd" d="M35.2194 166.705L34.1847 163.601L34.8624 163.375L35.897 166.479C35.9448 166.623 35.9459 166.778 35.9 166.922L30.9943 182.34L35.8707 188.261L35.3193 188.715L30.4429 182.794C30.2888 182.607 30.2401 182.354 30.3136 182.123L35.2194 166.705Z" fill="#424C51"/>
<path fill-rule="evenodd" clip-rule="evenodd" d="M38.0763 164.205L37.0417 161.101L37.7193 160.875L38.754 163.979C38.8018 164.123 38.8029 164.278 38.757 164.422L33.8512 179.84L38.7276 185.761L38.1763 186.215L33.2998 180.294C33.1457 180.107 33.0971 179.854 33.1706 179.623L38.0763 164.205Z" fill="#424C51"/>
<path fill-rule="evenodd" clip-rule="evenodd" d="M41.6479 161.348L40.6132 158.244L41.2908 158.018L42.3255 161.122C42.3733 161.266 42.3744 161.421 42.3285 161.565L37.4227 176.983L42.2991 182.904L41.7478 183.358L36.8714 177.437C36.7172 177.25 36.6686 176.997 36.7421 176.766L41.6479 161.348Z" fill="#424C51"/>
<path fill-rule="evenodd" clip-rule="evenodd" d="M7.50898 163.928L9.5525 162.226C9.68087 162.119 9.84267 162.06 10.0098 162.06L28.3173 162.06L40.0019 151.792L40.4734 152.328L28.7888 162.597C28.6584 162.711 28.4908 162.774 28.3173 162.774L10.0098 162.774L7.96625 164.477L7.50898 163.928ZM8.58609 159.917L5.82994 162.329L5.35957 161.791L8.11573 159.38C8.24594 159.266 8.41307 159.203 8.58609 159.203L27.6063 159.203L41.792 147.145L42.2546 147.689L28.0689 159.747C27.9398 159.857 27.7758 159.917 27.6063 159.917L8.58609 159.917ZM27.3522 157.25C27.2236 157.358 27.0612 157.417 26.8935 157.417L6.66618 157.417L6.66618 156.703L7.02333 156.703L6.68892 156.577L15.2604 133.72L15.9292 133.971L7.40476 156.703L10.2376 156.703L9.90321 156.577L18.4746 133.72L19.1434 133.971L10.619 156.703L13.4519 156.703L13.1175 156.577L21.6889 133.72L22.3577 133.971L13.8333 156.703L16.6662 156.703L16.3318 156.577L24.9032 133.72L25.572 133.971L17.0476 156.703L19.8805 156.703L19.5461 156.577L28.1175 133.72L28.7863 133.971L20.2619 156.703L23.0948 156.703L22.7604 156.577L31.3318 133.72L32.0006 133.971L23.4762 156.703L26.8935 156.703L30.6262 153.575L30.6068 153.581L29.2077 148.334C29.1694 148.19 29.1769 148.038 29.2291 147.899L34.5461 133.72L35.2149 133.971L29.8979 148.15L31.2135 153.083L33.7561 150.953L32.4297 146.562C32.3856 146.415 32.3894 146.259 32.4408 146.115L36.8656 133.726L37.5382 133.966L33.1135 146.355L34.3516 150.454L36.784 148.416L35.6553 145.152C35.6023 144.999 35.603 144.832 35.6572 144.68L39.5439 133.726L40.217 133.965L36.3303 144.919L37.37 147.925L39.8369 145.858L39.2026 143.321C39.169 143.187 39.1752 143.045 39.2206 142.914L42.4001 133.729L43.0751 133.963L39.8956 143.148L40.5299 145.685C40.5962 145.95 40.5053 146.23 40.2957 146.406L27.3522 157.25ZM12.7149 133.971L4.14344 156.828L3.47463 156.577L12.0461 133.72L12.7149 133.971Z" fill="#424C51"/>
<path fill-rule="evenodd" clip-rule="evenodd" d="M109.532 4.99736L108.461 0.354507L109.157 0.193893L110.228 4.83675L109.532 4.99736Z" fill="#424C51"/>
<path fill-rule="evenodd" clip-rule="evenodd" d="M147.032 28.5689L145.961 23.926L146.657 23.7654L147.728 28.4083L147.032 28.5689Z" fill="#424C51"/>
<path fill-rule="evenodd" clip-rule="evenodd" d="M49.9799 0.988021L50.2556 0.160797L50.9333 0.386674L50.6575 1.2139C50.5603 1.50557 50.2873 1.70231 49.9799 1.70231H45.9516V0.988021H49.9799Z" fill="#424C51"/>
<path fill-rule="evenodd" clip-rule="evenodd" d="M50.9664 3.48813L52.0403 0.164047L52.72 0.38364L51.6461 3.70772C51.5508 4.0026 51.2763 4.20242 50.9664 4.20242H45.9516V3.48813H50.9664Z" fill="#424C51"/>
<path fill-rule="evenodd" clip-rule="evenodd" d="M52.3802 6.70244H45.9516V5.98816H52.3802V6.70244Z" fill="#424C51"/>
<path fill-rule="evenodd" clip-rule="evenodd" d="M52.3802 9.20244H45.9516V8.48816H52.3802V9.20244Z" fill="#424C51"/>
<path fill-rule="evenodd" clip-rule="evenodd" d="M50.9516 12.06H45.9516V11.3457H50.9516V12.06Z" fill="#424C51"/>
<path fill-rule="evenodd" clip-rule="evenodd" d="M40.6165 44.7939L45.9736 30.151L46.6444 30.3964L41.3322 44.9166H44.5233L44.1845 44.8037L45.9702 39.4465L46.6478 39.6724L44.8998 44.9166H46.309V45.6309H38.809V44.9166H40.9519L40.6165 44.7939ZM39.5924 47.5366C39.7097 47.4583 39.8476 47.4166 39.9886 47.4166H46.309V48.1309H39.9886L36.8643 50.2138L36.4681 49.6194L39.5924 47.5366ZM40.6424 50.4166C40.766 50.3239 40.9164 50.2737 41.0709 50.2737H46.309V50.988H41.0709L38.5568 52.8736C38.2724 53.0869 37.8745 53.0586 37.6232 52.8073L35.6993 50.8834L36.2044 50.3783L38.1282 52.3022L40.6424 50.4166Z" fill="#424C51"/>
<path fill-rule="evenodd" clip-rule="evenodd" d="M49.8802 14.917H45.9516V14.2027H49.8802V14.917Z" fill="#424C51"/>
<path fill-rule="evenodd" clip-rule="evenodd" d="M49.1659 17.06H45.9516V16.3457H49.1659V17.06Z" fill="#424C51"/>
<path fill-rule="evenodd" clip-rule="evenodd" d="M144.189 210.147L147.047 202.647L147.714 202.901L144.857 210.401L144.189 210.147Z" fill="#424C51"/>
<path fill-rule="evenodd" clip-rule="evenodd" d="M141.332 210.147L144.19 202.647L144.857 202.901L142 210.401L141.332 210.147Z" fill="#424C51"/>
<path fill-rule="evenodd" clip-rule="evenodd" d="M138.475 210.147L141.332 202.647L142 202.901L139.142 210.401L138.475 210.147Z" fill="#424C51"/>
<path fill-rule="evenodd" clip-rule="evenodd" d="M135.618 210.147L138.475 202.647L139.143 202.901L136.285 210.401L135.618 210.147Z" fill="#424C51"/>
<path fill-rule="evenodd" clip-rule="evenodd" d="M132.761 210.147L135.618 202.647L136.286 202.901L133.428 210.401L132.761 210.147Z" fill="#424C51"/>
<path fill-rule="evenodd" clip-rule="evenodd" d="M129.904 210.147L132.761 202.647L133.429 202.901L130.571 210.401L129.904 210.147Z" fill="#424C51"/>
<path fill-rule="evenodd" clip-rule="evenodd" d="M127.046 210.147L129.904 202.647L130.571 202.901L127.714 210.401L127.046 210.147Z" fill="#424C51"/>
<path fill-rule="evenodd" clip-rule="evenodd" d="M124.189 210.147L127.047 202.647L127.714 202.901L124.857 210.401L124.189 210.147Z" fill="#424C51"/>
<path fill-rule="evenodd" clip-rule="evenodd" d="M44.904 210.147L47.7611 202.647L48.4286 202.901L45.5715 210.401L44.904 210.147Z" fill="#424C51"/>
<path fill-rule="evenodd" clip-rule="evenodd" d="M67.4949 204.577L68.481 202.276L69.1375 202.558L68.1515 204.858L71.2285 208.619L70.6757 209.072L67.5986 205.311C67.43 205.105 67.39 204.822 67.4949 204.577ZM63.7818 202.554L62.0877 206.62C61.9767 206.886 61.7167 207.06 61.4283 207.06H50.0334C49.5378 207.06 49.1928 206.567 49.3622 206.101L50.6165 202.652L51.2878 202.896L50.0334 206.345L61.4283 206.345L63.1225 202.279L63.7818 202.554ZM64.974 204.96L65.9749 202.291L66.6437 202.542L65.6428 205.211L69.4472 210.053L68.8856 210.495L66.7571 207.786L64.8116 209.083C64.6943 209.161 64.5564 209.203 64.4154 209.203H49.345L48.3807 210.488L47.8093 210.06L48.7736 208.774C48.9084 208.594 49.1202 208.488 49.345 208.488H64.4154L66.3144 207.222L65.0811 205.653C64.927 205.456 64.8864 205.194 64.974 204.96ZM69.9688 204.237L70.6133 202.304L71.2909 202.53L70.6465 204.463L72.2761 206.093L71.771 206.598L70.1414 204.968C69.9501 204.777 69.8833 204.494 69.9688 204.237ZM53.7716 202.934L53.3157 203.845L60.0171 203.845L60.6327 202.614L61.2716 202.934L60.656 204.165C60.535 204.407 60.2877 204.56 60.0171 204.56H53.3157C52.7847 204.56 52.4394 204.001 52.6768 203.526L53.1327 202.614L53.7716 202.934Z" fill="#424C51"/>
<path fill-rule="evenodd" clip-rule="evenodd" d="M121.332 210.147L124.19 202.647L124.857 202.901L122 210.401L121.332 210.147Z" fill="#424C51"/>
<path fill-rule="evenodd" clip-rule="evenodd" d="M117.023 202.417H118.563C118.859 202.417 119.125 202.6 119.23 202.877L120.523 206.27C120.585 206.433 120.585 206.614 120.523 206.778L119.143 210.401L118.475 210.147L119.855 206.524L118.563 203.131H117.023V202.417Z" fill="#424C51"/>
<path fill-rule="evenodd" clip-rule="evenodd" d="M116.63 207.449L115.285 205.094L115.905 204.74L117.25 207.094C117.356 207.279 117.374 207.5 117.299 207.699L116.286 210.4L115.618 210.149L116.63 207.449Z" fill="#424C51"/>
</g>
<path d="M20 0.000152588H45.7143V22.143L35.7143 52.8573H20V0.000152588Z" fill="#1B458E"/>
<path d="M92.1426 52.8571H121.785V3.8147e-06H111.071L92.1426 52.8571Z" fill="#1B458E"/>
<path d="M128.214 52.8571H171.072V3.8147e-06H147.143L128.214 52.8571Z" fill="#686B71"/>
<path d="M194.285 78.5717H171.785V131.429H175.357L194.285 78.5717Z" fill="#686B71"/>
<path d="M99.2855 131.429H121.785V78.5715H118.214L99.2855 131.429Z" fill="#686B71"/>
<path d="M70.7141 210H96.7855V157.143H89.6426L70.7141 210Z" fill="#1B458E"/>
<path d="M63.2141 131.429H96.7855V78.5715H82.1426L63.2141 131.429Z" fill="#1B458E"/>
<path d="M82.1428 78.5717H46.4285V131.429H63.2142L82.1428 78.5717Z" fill="#686B71"/>
<path d="M161.071 78.5717H121.785V131.429H142.143L161.071 78.5717Z" fill="#1B458E"/>
<path d="M133.214 157.143H96.4285V210H114.286L133.214 157.143Z" fill="#686B71"/>
<path d="M190 0.000152588H171.072V52.8573L190 0.000152588Z" fill="#1B458E"/>
<path d="M55.7144 52.8571H45.7144V23.5714L55.7144 3.8147e-06H74.643L55.7144 52.8571Z" fill="#1B458E"/>
<path d="M26.4286 131.429H20V95.7144L26.0714 78.5715H37.5V101.072L26.4286 131.429Z" fill="#686B71"/>
<path d="M20 95.7144L6.42857 131.429H20V95.7144Z" fill="#1B458E"/>
<path d="M46.4285 177.857L34.2856 210H46.4285V177.857Z" fill="#1B458E"/>
<path d="M20 198.572L35.7143 157.143L20 157.143L20 198.572Z" fill="#1B458E"/>
<path d="M34.2856 210L54.6427 157.143L35.8841 157.143L15.357 210L34.2856 210Z" fill="#686B71"/>
</svg>
